<?xml version="1.0" encoding="UTF-8" standalone="no"?>
<svg
   xmlns:dc="http://purl.org/dc/elements/1.1/"
   xmlns:cc="http://creativecommons.org/ns#"
   xmlns:rdf="http://www.w3.org/1999/02/22-rdf-syntax-ns#"
   xmlns:svg="http://www.w3.org/2000/svg"
   xmlns="http://www.w3.org/2000/svg"
   xmlns:sodipodi="http://sodipodi.sourceforge.net/DTD/sodipodi-0.dtd"
   xmlns:inkscape="http://www.inkscape.org/namespaces/inkscape"
   inkscape:version="1.0.2 (e86c8708, 2021-01-15)"
   sodipodi:docname="Fig9.svg"
   viewBox="0 0 599.79685 535.81634"
   height="535.81635"
   width="599.79688"
   xml:space="preserve"
   id="svg833"
   version="1.1"
   inkscape:export-filename="/Users/jpjh/Dropbox/WORK/projects/2_COMPMUT/COMPMUT/figs/Fig9.png"
   inkscape:export-xdpi="345.79013"
   inkscape:export-ydpi="345.79013"><metadata
     id="metadata839"><rdf:RDF><cc:Work
         rdf:about=""><dc:format>image/svg+xml</dc:format><dc:type
           rdf:resource="http://purl.org/dc/dcmitype/StillImage" /><dc:title></dc:title></cc:Work></rdf:RDF></metadata><defs
     id="defs837"><clipPath
       id="clipPath851"
       clipPathUnits="userSpaceOnUse"><path
         inkscape:connector-curvature="0"
         id="path849"
         d="M 12,68 H 829.92 V 528 H 12 Z" /></clipPath><clipPath
       id="clipPath861"
       clipPathUnits="userSpaceOnUse"><path
         inkscape:connector-curvature="0"
         id="path859"
         d="M 12,68 H 830 V 528 H 12 Z" /></clipPath></defs><sodipodi:namedview
     inkscape:current-layer="g841"
     inkscape:window-maximized="0"
     inkscape:window-y="30"
     inkscape:window-x="60"
     inkscape:cy="292.46839"
     inkscape:cx="331.04509"
     inkscape:zoom="0.71793344"
     fit-margin-bottom="0"
     fit-margin-right="0"
     fit-margin-left="0"
     fit-margin-top="0"
     showgrid="false"
     id="namedview835"
     inkscape:window-height="948"
     inkscape:window-width="1730"
     inkscape:pageshadow="2"
     inkscape:pageopacity="0"
     guidetolerance="10"
     gridtolerance="10"
     objecttolerance="10"
     borderopacity="1"
     inkscape:document-rotation="0"
     bordercolor="#666666"
     pagecolor="#ffffff"><sodipodi:guide
       id="guide1623"
       orientation="0,1090.6666"
       position="-406.50665,546.50259" /><sodipodi:guide
       id="guide1625"
       orientation="613.33332,0"
       position="684.15995,546.50259" /><sodipodi:guide
       id="guide1627"
       orientation="0,-1090.6666"
       position="684.15995,-66.83071" /><sodipodi:guide
       id="guide1629"
       orientation="-613.33332,0"
       position="-406.50665,-66.83071" /></sodipodi:namedview><g
     transform="matrix(1.3333333,0,0,-1.3333333,-422.50666,693.31372)"
     inkscape:label="Fig_Summary"
     inkscape:groupmode="layer"
     id="g841"><rect
       style="fill:#ffffff;fill-opacity:1;stroke:#00ff8a;stroke-width:0;stroke-miterlimit:10"
       id="rect1040"
       width="451.29532"
       height="407.4194"
       x="317.92465"
       y="-521.35132"
       transform="scale(1,-1)" /><path
       inkscape:connector-curvature="0"
       id="path865"
       style="fill:#c00000;fill-opacity:0.349;fill-rule:nonzero;stroke:none"
       d="m 504.5015,385.3129 13.349,1.0424 -0.5999,-3.4304 13.0893,3.5908 -0.3671,-3.5727 19.654,2.3162 -20.9951,-11.4717 0.6525,4.2373 -13.2402,-7.0083 0.3972,5.1698 -13.9353,-7.4267 z" /><path
       inkscape:connector-curvature="0"
       id="path867"
       style="fill:#c00000;fill-opacity:0.349;fill-rule:nonzero;stroke:none"
       d="m 504.4137,389.5266 13.7703,-0.1402 -1.1876,-3.5326 13.9341,2.549 -0.9744,-3.7028 20.4055,0.6108 -23.3103,-10.0629 1.3768,4.3717 -14.6623,-6.1095 1.2735,5.3704 -15.4404,-6.4829 z" /><path
       inkscape:connector-curvature="0"
       id="path869"
       style="fill:#c00000;fill-opacity:0.349;fill-rule:nonzero;stroke:none"
       d="m 510.6013,417.5216 -12.236,6.8137 1.4778,2.6959 -12.7025,4.4022 1.3084,2.9571 -18.2296,9.3387 21.941,-1.993 -1.7462,-3.3813 13.7748,-1.4575 -1.7733,-4.3566 14.5117,-1.4892 z" /><path
       inkscape:connector-curvature="0"
       id="path871"
       style="fill:#c00000;fill-opacity:0.349;fill-rule:nonzero;stroke:none"
       d="m 508.7392,413.3533 -11.7641,8.0603 2.0001,2.5848 -12.6523,5.6664 1.8648,2.8651 -17.6604,11.1868 22.7782,-4.1137 -2.3956,-3.2522 14.2664,-2.7912 -2.5847,-4.2359 15.0372,-2.8938 z" /><path
       inkscape:connector-curvature="0"
       id="path873"
       style="fill:#c00000;fill-opacity:0.349;fill-rule:nonzero;stroke:none"
       d="m 497.7743,372.0344 -16.0632,-1.6069 0.1464,3.8968 -15.3138,-4.4791 -0.1611,4.0503 -23.5172,-3.2492 23.5916,13.6414 -0.0731,-4.8108 14.9162,8.3471 0.396,-5.8565 15.6906,8.8423 z" /><path
       inkscape:connector-curvature="0"
       id="path875"
       style="fill:#c00000;fill-opacity:0.349;fill-rule:nonzero;stroke:none"
       d="m 498.3404,366.8886 -16.5237,-0.1634 0.7919,4.0863 -16.2398,-3.2567 0.5061,4.2769 -24.3396,-1.1825 26.1315,12.1099 -0.8687,-5.0548 16.4762,7.3642 -0.5666,-6.1997 17.3418,7.8117 z" /><path
       inkscape:connector-curvature="0"
       id="path877"
       style="fill:#c00000;fill-opacity:0.349;fill-rule:nonzero;stroke:none"
       d="m 517.0257,422.126 10.751,-6.5525 -1.6667,-2.3723 11.4404,-4.4005 -1.5355,-2.6131 16.1023,-9.0314 -20.3485,2.5561 1.99,2.9793 -12.7533,1.7903 2.1175,3.8552 -13.4404,1.8445 z" /><path
       inkscape:connector-curvature="0"
       id="path879"
       style="fill:#c00000;fill-opacity:0.349;fill-rule:nonzero;stroke:none"
       d="m 518.9703,425.7069 10.32,-7.6598 -2.1457,-2.2218 11.396,-5.5629 -2.0455,-2.4771 15.5827,-10.6851 -21.1185,4.5906 2.5855,2.8005 -13.2057,3.0666 2.8615,3.6692 -13.9239,3.1892 z" /><path
       inkscape:connector-curvature="0"
       id="path881"
       style="fill:#70ad47;fill-opacity:0.4784;fill-rule:nonzero;stroke:none"
       d="m 465.8803,220.7722 c -0.8201,6.462 3.4029,12.413 9.4325,13.292 2.4433,0.3562 4.9274,-0.1763 7.0549,-1.5121 2.2544,4.5542 7.5223,6.2851 11.7663,3.8659 0.7421,-0.423 1.4232,-0.9591 2.0221,-1.5917 1.7557,3.7751 6.0323,5.3089 9.552,3.4257 0.9741,-0.5212 1.8239,-1.275 2.484,-2.2035 2.83,3.5701 7.8306,4.0111 11.1692,0.985 1.4032,-1.2719 2.349,-3.0261 2.6751,-4.9619 4.6367,-1.356 7.3721,-6.4921 6.1095,-11.4719 -0.1061,-0.4187 -0.2393,-0.8289 -0.3985,-1.2277 3.7187,-5.1889 2.8084,-12.6261 -2.0333,-16.6115 -1.5072,-1.2406 -3.2873,-2.0438 -5.1686,-2.3321 -0.0418,-5.5825 -4.3014,-10.0717 -9.5141,-10.0269 -1.7416,0.015 -3.4453,0.5457 -4.9227,1.5334 -1.7631,-6.2586 -7.913,-9.7961 -13.7362,-7.9011 -2.4404,0.7942 -4.549,2.4736 -5.966,4.752 -5.9622,-3.8546 -13.7009,-1.7811 -17.2849,4.6311 -0.0452,0.0808 -0.0896,0.1622 -0.1332,0.244 -3.902,-0.4896 -7.4365,2.4948 -7.8944,6.6658 -0.2441,2.2231 0.4406,4.4484 1.8716,6.0826 -3.3786,2.1319 -4.5135,6.8114 -2.5349,10.4518 1.1414,2.1002 3.1434,3.4886 5.3903,3.7382 z" /><path
       inkscape:connector-curvature="0"
       id="path883"
       style="fill:#70ad47;fill-opacity:0.4784;fill-rule:nonzero;stroke:none"
       d="m 498.1613,230.0324 c 5.1192,4.0296 12.3965,3.4737 16.2543,-1.2416 1.5632,-1.9107 2.3855,-4.3139 2.3352,-6.825 5.066,0.4124 9.2622,-3.2116 9.3725,-8.0944 0.0193,-0.8538 -0.0899,-1.7135 -0.324,-2.5524 4.1412,0.4386 7.658,-2.4372 7.8551,-6.4233 0.0545,-1.1032 -0.1544,-2.2196 -0.6108,-3.2634 4.5183,-0.5876 7.4708,-4.6464 6.5946,-9.0657 -0.3683,-1.8574 -1.3858,-3.5711 -2.8779,-4.8472 1.2242,-4.6721 -1.7721,-9.6606 -6.6925,-11.1421 -0.4136,-0.1246 -0.8339,-0.2216 -1.2579,-0.2904 -2.5353,-5.8585 -9.3817,-8.907 -15.2918,-6.809 -1.8398,0.6531 -3.445,1.7653 -4.6607,3.2293 -4.8087,-2.8381 -10.8512,-1.4983 -13.4963,2.9924 -0.8838,1.5004 -1.3058,3.2338 -1.2193,5.0085 -6.2747,-1.7108 -12.4742,1.739 -13.847,7.7055 -0.5753,2.5004 -0.2206,5.1722 1.0037,7.5597 -6.3748,3.1257 -8.5807,10.8258 -4.9269,17.1986 0.046,0.0803 0.0929,0.1602 0.1406,0.2397 -2.4285,3.0923 -1.6889,7.6579 1.6521,10.1977 1.7808,1.3537 4.0415,1.9124 6.1797,1.5272 0.0889,3.9932 3.5174,7.3749 7.6578,7.5533 2.3887,0.1028 4.6099,-0.8983 5.9807,-2.6955 z" /><path
       inkscape:connector-curvature="0"
       id="path885"
       style="fill:#70ad47;fill-opacity:0.4784;fill-rule:nonzero;stroke:none"
       d="m 475.2554,207.081 c -3.8518,5.2537 -3.0453,12.5055 1.8015,16.1975 1.9639,1.496 4.3947,2.2347 6.9033,2.0979 -0.2377,5.0758 3.5297,9.1435 8.4148,9.0854 0.8542,-0.0102 1.7099,-0.1488 2.5405,-0.4117 -0.2958,4.1527 2.7003,7.5674 6.6919,7.6269 1.1048,0.0164 2.2136,-0.2308 3.2413,-0.7228 0.7431,4.4942 4.9024,7.3042 9.2901,6.2764 1.8441,-0.4319 3.5222,-1.5076 4.7464,-3.0424 4.7128,1.0621 9.5964,-2.1036 10.9079,-7.0707 0.1102,-0.4176 0.1927,-0.8409 0.2469,-1.2669 5.7692,-2.735 8.5807,-9.6805 6.2797,-15.5132 -0.7163,-1.8157 -1.8835,-3.3812 -3.3889,-4.5454 2.6714,-4.9024 1.1238,-10.8935 -3.4567,-13.3815 -1.5303,-0.8313 -3.2777,-1.1931 -5.0489,-1.0456 1.494,-6.3282 -2.1684,-12.4035 -8.1802,-13.5694 -2.5195,-0.4886 -5.1782,-0.0421 -7.5227,1.2634 -3.3444,-6.2615 -11.118,-8.2001 -17.3628,-4.3299 -0.0787,0.0488 -0.157,0.0984 -0.2348,0.1488 -3.175,-2.3198 -7.7137,-1.4234 -10.1375,2.0022 -1.2919,1.8259 -1.7725,4.1039 -1.3137,6.227 -3.9889,0.2264 -7.2513,3.7685 -7.2869,7.9115 -0.0205,2.3901 1.0568,4.5749 2.9007,5.8826 z" /><path
       inkscape:connector-curvature="0"
       id="path887"
       style="fill:#c00000;fill-opacity:0.2706;fill-rule:nonzero;stroke:none"
       d="m 694.1403,202.2869 -5.3346,12.1564 -3.4528,-12.6842 -6.965,8.5385 1.7246,-8.6121 -13.3102,4.1323 9.7279,-9.8163 -4.6046,-2.9955 4.0618,-3.7848 -8.7001,-5.0729 11.6536,-0.7864 -2.9215,-6.2616 8.0245,0.7802 -0.6359,-6.7472 5.4608,1.7168 1.2983,-6.0347 4.1059,2.4401 4.1338,-9.6842 2.6827,7.1542 9.2174,-2.0556 -3.4302,7.0102 10.2195,2.5863 -9.0555,6.0708 9.3742,4.8499 -10.3211,4.4982 5.1978,8.3136 -12.2276,-2.5539 0.2388,10.6791 z" /><path
       inkscape:connector-curvature="0"
       id="path889"
       style="fill:#c00000;fill-opacity:0.2706;fill-rule:nonzero;stroke:none"
       d="m 688.4631,209.9945 2.9193,12.95 -10.3065,-8.1633 -0.5401,11.0046 -3.7221,-7.9558 -8.2629,11.2207 2.0061,-13.6718 -5.4844,0.3195 1.024,-5.4559 -10.0141,1.0762 8.9147,-7.5447 -6.0675,-3.308 6.9228,-4.1312 -4.5157,-5.0544 5.4148,-1.8568 -2.5359,-5.628 4.7533,-0.4708 -2.4189,-10.2477 6.405,4.1682 6.2004,-7.1215 1.3986,7.6778 9.7615,-3.979 -3.6874,10.2578 10.4245,-1.6555 -5.6395,9.7424 9.1177,3.6099 -11.3589,5.1961 6.5293,8.4553 z" /><path
       inkscape:connector-curvature="0"
       id="path891"
       style="fill:#c00000;fill-opacity:0.2706;fill-rule:nonzero;stroke:none"
       d="m 701.5791,184.0204 9.544,9.2295 -13.0963,-1.177 5.5839,9.4988 -7.4762,-4.6128 -0.7558,13.913 -5.8208,-12.533 -4.4112,3.2736 -2.1361,-5.1238 -7.7842,6.3893 3.317,-11.1961 -6.8884,0.5597 3.5235,-7.2498 -6.5485,-1.7515 3.5098,-4.5209 -5.2074,-3.3164 3.7168,-2.9994 -7.6434,-7.2439 7.6424,-0.0252 1.2792,-9.3544 5.3807,5.654 5.9809,-8.6785 2.5424,10.5996 7.8097,-7.0988 0.6273,11.2386 9.6047,-1.9792 -6.6492,10.572 10.0977,3.4917 z" /><path
       inkscape:connector-curvature="0"
       id="path893"
       style="fill:#c00000;fill-opacity:0.2706;fill-rule:nonzero;stroke:none"
       d="m 594.1796,350.011 -10.0868,2.2762 6.3561,-8.0262 -8.5722,-0.4176 6.1962,-2.8999 -8.7426,-6.43 10.6503,1.5582 -0.2503,-4.2697 4.2501,0.7957 -0.8409,-7.796 5.8794,6.9384 2.5751,-4.7247 3.2199,5.3886 3.936,-3.517 1.4478,4.2151 4.3833,-1.9757 0.368,3.7005 7.982,-1.886 -3.2452,4.9877 5.549,4.8253 -5.9803,1.0909 3.102,7.5987 -7.9913,-2.868 1.2923,8.1153 -7.5905,-4.3879 -2.8095,7.0994 -4.0506,-8.842 -6.5846,5.0856 z" /><path
       inkscape:connector-curvature="0"
       id="path895"
       style="fill:#c00000;fill-opacity:0.2706;fill-rule:nonzero;stroke:none"
       d="m 607.7466,354.5142 -10.0869,2.2763 6.3562,-8.0262 -8.5723,-0.4176 6.1963,-2.8999 -8.7427,-6.43 10.6503,1.5582 -0.2503,-4.2697 4.2502,0.7957 -0.8409,-7.796 5.8793,6.9383 2.5752,-4.7246 3.2199,5.3886 3.936,-3.517 1.4478,4.2151 4.3833,-1.9758 0.368,3.7005 7.982,-1.8859 -3.2453,4.9877 5.5491,4.8253 -5.9803,1.0909 3.102,7.5987 -7.9914,-2.8681 1.2923,8.1154 -7.5904,-4.3879 -2.8096,7.0994 -4.0505,-8.842 -6.5846,5.0856 z" /><path
       inkscape:connector-curvature="0"
       id="path897"
       style="fill:#c00000;fill-opacity:0.2706;fill-rule:nonzero;stroke:none"
       d="m 608.448,346.6911 -10.0868,2.2762 6.3561,-8.0262 -8.5722,-0.4176 6.1962,-2.8999 -8.7426,-6.43 10.6503,1.5582 -0.2503,-4.2697 4.2501,0.7957 -0.8409,-7.796 5.8794,6.9384 2.5751,-4.7247 3.2199,5.3886 3.936,-3.517 1.4478,4.2151 4.3833,-1.9757 0.368,3.7005 7.982,-1.8859 -3.2452,4.9876 5.549,4.8253 -5.9803,1.091 3.102,7.5986 -7.9913,-2.868 1.2923,8.1154 -7.5905,-4.388 -2.8095,7.0994 -4.0506,-8.8419 -6.5846,5.0855 z" /><path
       inkscape:connector-curvature="0"
       id="path899"
       style="fill:#1e5f9d;fill-opacity:0.702;fill-rule:nonzero;stroke:none"
       d="m 551.5752,385.5438 7.186,14.3681 h 108.6182 l 7.186,-14.3681 -7.186,-14.3681 H 558.7612 Z" /><g
       transform="matrix(0.24,0,0,0.2399348,576.4307,-190.1649)"
       id="g901"><text
         id="text905"
         style="font-variant:normal;font-weight:normal;font-size:62.5px;font-family:Helvetica;-inkscape-font-specification:Helvetica;writing-mode:lr-tb;fill:#ffffff;fill-opacity:1;fill-rule:nonzero;stroke:none"
         transform="matrix(1,0,0,-1,0,2379)"><tspan
           id="tspan903"
           sodipodi:role="line"
           y="0"
           x="0 42.606251 81.650002 117.13125 163.3 198.78125 234.2625 269.74374">PFLU4242</tspan></text></g><g
       transform="matrix(6.709317e-5,0,0,-6.707495e-5,551.5752,312.7449)"
       id="g907"><path
         inkscape:connector-curvature="0"
         id="path909"
         style="fill:none;stroke:#e8b3bf;stroke-width:76200;stroke-linecap:butt;stroke-linejoin:miter;stroke-miterlimit:8;stroke-dasharray:none;stroke-opacity:1"
         d="M 0,108444 108443.9,0 H 1724681 l 108444,108444 V 261812 L 1724681,370256 H 108443.9 L 0,261812 Z" /></g><g
       transform="matrix(0.24,0,0,0.2399348,563.2234,-275.3649)"
       id="g911"><text
         id="text915"
         style="font-variant:normal;font-weight:normal;font-size:62.5px;font-family:Helvetica;-inkscape-font-specification:Helvetica;writing-mode:lr-tb;fill:#000000;fill-opacity:1;fill-rule:nonzero;stroke:none"
         transform="matrix(1,0,0,-1,0,2379)"><tspan
           id="tspan913"
           sodipodi:role="line"
           y="0"
           x="0 42.606251 92.337502 134.94376 152.675 173.96875 209.45 241.43124 276.91251 312.39374 347.875 379.85626">SOS response</tspan></text></g><path
       inkscape:connector-curvature="0"
       id="path917"
       style="fill:#7f7f7f;fill-opacity:1;fill-rule:nonzero;stroke:none"
       d="m 636.694,352.0226 0.3763,0.3214 2.2897,1.5887 2.4083,1.339 2.5068,1.0878 2.5853,0.835 2.6439,0.5808 2.6824,0.3254 2.7013,0.0683 2.7002,-0.1901 2.6794,-0.45 2.6384,-0.7115 2.5776,-0.9745 2.4965,-1.2388 2.3952,-1.5043 2.2734,-1.771 2.0745,-1.9816 1.8308,-2.1397 1.585,-2.2777 1.3375,-2.3958 1.0884,-2.494 0.8378,-2.5723 0.5858,-2.631 0.3323,-2.6701 0.0774,-2.6895 -0.1792,-2.6895 -0.4372,-2.6697 -0.6967,-2.6303 -0.9579,-2.5711 -1.2204,-2.4921 -1.4844,-2.3929 -1.7296,-2.2482 -1.0132,0.779 1.7101,2.2227 -0.0365,-0.0528 1.4505,2.3385 -0.0308,-0.0557 1.1925,2.435 -0.0249,-0.058 0.9359,2.5123 -0.0189,-0.0594 0.6809,2.5703 -0.0129,-0.0604 0.4272,2.6091 -0.007,-0.0608 0.175,2.6285 -0.001,-0.0608 -0.0756,2.6287 0.005,-0.0605 -0.3248,2.6097 0.0104,-0.0599 -0.5725,2.5714 0.0161,-0.059 -0.8188,2.5138 0.022,-0.0576 -1.0636,2.437 0.0277,-0.0559 -1.3069,2.341 0.0334,-0.0535 -1.5487,2.2256 0.039,-0.0504 -1.7891,2.091 0.0441,-0.0466 -2.028,1.9371 0.0487,-0.042 -2.2225,1.7313 0.0528,-0.037 -2.3407,1.4701 0.0559,-0.0313 -2.4394,1.2105 0.0581,-0.0253 -2.5186,0.9521 0.0596,-0.0193 -2.5783,0.6953 0.0606,-0.0132 -2.6184,0.4398 0.061,-0.007 -2.6391,0.1858 0.0611,-10e-4 -2.6402,-0.0668 0.0608,0.004 -2.6219,-0.318 0.0602,0.0103 -2.5839,-0.5677 0.0593,0.016 -2.5265,-0.816 0.0579,0.0219 -2.4496,-1.0629 0.0562,0.0277 -2.3532,-1.3084 0.0538,0.0335 -2.2373,-1.5524 0.0507,0.0391 -0.3519,-0.3006 -0.8302,0.9716 z m 0.4151,-0.4858 5.4074,-0.726 -9.1042,-2.8046 3.2183,8.9641 z" /><path
       inkscape:connector-curvature="0"
       id="path919"
       style="fill:#7f7f7f;fill-opacity:1;fill-rule:nonzero;stroke:none"
       d="m 613.7094,368.8125 v -1.2778 h -1.2781 v 1.2778 z m 0,-2.5555 v -1.2778 h -1.2781 v 1.2777 z m 0,-2.5556 v -1.2778 h -1.2781 v 1.2778 z m 0,-2.5556 v -1.2777 h -1.2781 v 1.2777 z m 0,-2.5555 v -1.2778 h -1.2781 v 1.2778 z m -0.639,-1.5696 4.2604,3.4075 -4.2604,-8.5186 -4.2605,8.5185 z" /><g
       transform="matrix(0.24,0,0,0.2399348,585.8696,-231.6849)"
       id="g921"><text
         id="text925"
         style="font-variant:normal;font-weight:normal;font-size:41.6667px;font-family:Helvetica;-inkscape-font-specification:Helvetica;writing-mode:lr-tb;fill:#000000;fill-opacity:1;fill-rule:nonzero;stroke:none"
         transform="matrix(1,0,0,-1,0,2379)"><tspan
           id="tspan923"
           sodipodi:role="line"
           y="0"
           x="0 30.620829 61.241657 87.320816 99.31665 122.85415 137.0583 160.59581 184.1333 205.42081">DNA breaks</tspan></text></g><path
       inkscape:connector-curvature="0"
       id="path1299"
       style="fill:#7f7f7f;fill-opacity:1;fill-rule:nonzero;stroke:none"
       d="m 663.4842,282.5584 9.3682,-11.9325 -1.0054,-0.7889 -9.3682,11.9325 z m 8.8655,-12.327 1.2471,5.3102 1.9095,-9.3308 -8.6123,4.0713 z" /><path
       inkscape:connector-curvature="0"
       id="path1301"
       style="fill:#7f7f7f;fill-opacity:1;fill-rule:nonzero;stroke:none"
       d="m 590.4781,281.3423 10e-5,-8.2788 H 589.2 v 8.2788 z m -0.639,-8.2788 4.2604,3.4074 -4.2604,-8.5185 -4.2604,8.5185 z" /><g
       transform="matrix(-6.709317e-5,0,0,-6.707495e-5,628.7567,262.6624)"
       id="g1303"><path
         inkscape:connector-curvature="0"
         id="path1305"
         style="fill:none;stroke:#e8b3bf;stroke-width:76200;stroke-linecap:butt;stroke-linejoin:miter;stroke-miterlimit:8;stroke-dasharray:none;stroke-opacity:1"
         d="M 0,209338 104669.6,0 H 1055438 l 104668,209338 -104668,209338 H 104669.6 Z" /></g><g
       transform="matrix(0.24,0,0,0.2399348,563.531,-325.0449)"
       id="g1307"><text
         id="text1311"
         style="font-variant:normal;font-weight:normal;font-size:41.6667px;font-family:Helvetica;-inkscape-font-specification:Helvetica;writing-mode:lr-tb;fill:#000000;fill-opacity:1;fill-rule:nonzero;stroke:none"
         transform="matrix(1,0,0,-1,0,2379)"><tspan
           id="tspan1309"
           sodipodi:role="line"
           y="0"
           x="0 28.404161 42.599995 66.129158 89.658318 113.18748 136.71664 160.2458 183.77496 195.76247">Prophage 1</tspan></text></g><g
       transform="matrix(0.24,0,0,0.2399348,674.6876,-315.4449)"
       id="g1313"><text
         id="text1317"
         style="font-variant:normal;font-weight:normal;font-size:41.6667px;font-family:Helvetica;-inkscape-font-specification:Helvetica;writing-mode:lr-tb;fill:#000000;fill-opacity:1;fill-rule:nonzero;stroke:none"
         transform="matrix(1,0,0,-1,0,2379)"><tspan
           id="tspan1315"
           sodipodi:role="line"
           y="0"
           x="0 23.52083 35.499996 59.020824 82.541656">other</tspan></text></g><g
       transform="matrix(0.24,0,0,0.2399348,671.3176,-328.4049)"
       id="g1319"><text
         id="text1323"
         style="font-variant:normal;font-weight:normal;font-size:41.6667px;font-family:Helvetica;-inkscape-font-specification:Helvetica;writing-mode:lr-tb;fill:#000000;fill-opacity:1;fill-rule:nonzero;stroke:none"
         transform="matrix(1,0,0,-1,0,2379)"><tspan
           id="tspan1321"
           sodipodi:role="line"
           y="0"
           x="0 23.52083 34.749996 46.72916 70.249992 91.562485 103.54165">effects</tspan></text></g><path
       inkscape:connector-curvature="0"
       id="path1325"
       style="fill:#e8b3bf;fill-opacity:0.6314;fill-rule:nonzero;stroke:none"
       d="m 632.8405,204.2479 -7.0226,14.0413 h -71.9577 l -7.0225,-14.0413 7.0225,-14.0414 h 71.9577 z" /><g
       transform="matrix(0.24,0,0,0.2399348,565.8786,-363.2049)"
       id="g1327"><text
         id="text1331"
         style="font-variant:normal;font-weight:normal;font-size:41.6667px;font-family:Helvetica;-inkscape-font-specification:Helvetica;writing-mode:lr-tb;fill:#000000;fill-opacity:1;fill-rule:nonzero;stroke:none"
         transform="matrix(1,0,0,-1,0,2379)"><tspan
           id="tspan1329"
           sodipodi:role="line"
           y="0"
           x="0 28.404161 54.599991 78.12915 108.74165 129.10414 152.63332 176.16248">PFLU1169</tspan></text></g><g
       transform="matrix(0.24,0,0,0.2399348,579.137,-376.1649)"
       id="g1333"><text
         id="text1337"
         style="font-variant:normal;font-weight:normal;font-size:41.6667px;font-family:Helvetica;-inkscape-font-specification:Helvetica;writing-mode:lr-tb;fill:#000000;fill-opacity:1;fill-rule:nonzero;stroke:none"
         transform="matrix(1,0,0,-1,0,2379)"><tspan
           id="tspan1335"
           sodipodi:role="line"
           y="0"
           x="0 23.52083 47.04166 56.354156 65.666656">holin</tspan></text></g><path
       inkscape:connector-curvature="0"
       id="path1339"
       style="fill:#7f7f7f;fill-opacity:1;fill-rule:nonzero;stroke:none"
       d="m 589.2,230.7166 v -4.693 h 1.2781 v 4.693 z m 0.639,-4.693 -4.2604,3.4075 4.2604,-8.5186 4.2605,8.5185 z" /><path
       inkscape:connector-curvature="0"
       id="path1341"
       style="fill:#7f7f7f;fill-opacity:1;fill-rule:nonzero;stroke:none"
       d="m 632.8632,199.1168 15.7106,-6.87 -0.5122,-1.1707 -15.7106,6.87 z m 15.4545,-7.4554 -1.4153,5.2678 6.0994,-7.316 -9.5141,-0.4886 z" /><path
       inkscape:connector-curvature="0"
       id="path1343"
       style="fill:#c00000;fill-opacity:0.2706;fill-rule:nonzero;stroke:none"
       d="m 672.912,199.394 -12.5513,-4.3325 12.3668,-4.4664 -9.0761,-6.2498 8.7257,1.022 -5.1963,-12.9288 10.5734,8.8995 2.6142,-4.8305 4.1019,3.7413 4.354,-9.0795 1.7266,11.5486 6.0064,-3.4176 -0.1288,8.0592 6.6754,-1.1793 -1.2699,5.5803 6.1216,0.8056 -2.1007,4.2886 9.9894,3.336 -6.9158,3.2518 2.795,9.0184 -7.2666,-2.851 -1.752,10.3923 -6.7849,-8.5323 -4.0772,9.7332 -5.3194,-9.9207 -7.8682,5.8517 1.5572,-12.3907 -10.6277,1.1016 z" /><path
       inkscape:connector-curvature="0"
       id="path1345"
       style="fill:#c00000;fill-opacity:0.2706;fill-rule:nonzero;stroke:none"
       d="m 664.7684,194.3604 -12.675,3.9563 7.3052,-10.9302 -11.0151,0.3518 7.6308,-4.3524 -11.8552,-7.3261 13.7929,0.8933 -0.7621,-5.4391 5.5223,0.5791 -1.8828,-9.8915 8.2429,8.2728 2.8074,-6.3135 4.6787,6.5642 4.674,-4.9085 2.2891,5.2454 5.406,-2.982 0.8538,4.6983 10.0213,-3.2391 -3.6377,6.7194 7.6016,5.6024 -7.5416,2.0146 4.7565,9.4051 -10.5252,-2.8447 2.4936,10.2536 -10.1692,-4.8315 -2.8617,9.3773 -6.0991,-10.8984 -7.9018,7.19 z" /><path
       inkscape:connector-curvature="0"
       id="path1347"
       style="fill:#c00000;fill-opacity:0.2706;fill-rule:nonzero;stroke:none"
       d="m 691.7252,205.3291 -8.4298,10.2566 0.1142,-13.1451 -9.0187,6.3324 3.9943,-7.8228 -13.9323,0.3722 12.0246,-6.8139 -3.6205,-4.1308 4.9357,-2.5429 -6.9997,-7.2398 11.4307,2.3997 -1.1151,-6.8187 7.5129,2.9247 1.2166,-6.6669 4.7912,3.1317 2.8853,-5.4572 3.291,3.461 6.6039,-8.2021 0.6433,7.6133 9.4297,0.5181 -5.2018,5.8189 9.1361,5.2578 -10.3621,3.3907 7.7091,7.2078 -11.1541,1.534 2.75,9.4106 -11.078,-5.7706 -2.6645,10.3443 z" /><g
       transform="matrix(0.24,0,0,0.2399348,677.3546,-375.6849)"
       id="g1349"><text
         id="text1353"
         style="font-variant:normal;font-weight:normal;font-size:50px;font-family:Helvetica;-inkscape-font-specification:Helvetica;writing-mode:lr-tb;fill:#000000;fill-opacity:1;fill-rule:nonzero;stroke:none"
         transform="matrix(1,0,0,-1,0,2379)"><tspan
           id="tspan1351"
           sodipodi:role="line"
           y="0"
           x="0 24.85 52.349998 63.450001 74.550003">cell </tspan></text></g><g
       transform="matrix(0.24,0,0,0.2399348,664.8375,-389.8449)"
       id="g1355"><text
         id="text1359"
         style="font-variant:normal;font-weight:normal;font-size:50px;font-family:Helvetica;-inkscape-font-specification:Helvetica;writing-mode:lr-tb;fill:#000000;fill-opacity:1;fill-rule:nonzero;stroke:none"
         transform="matrix(1,0,0,-1,0,2379)"><tspan
           id="tspan1357"
           sodipodi:role="line"
           y="0"
           x="0 27.514999 55.029999 96.294998 123.81 151.325">damage</tspan></text></g><path
       inkscape:connector-curvature="0"
       id="path1361"
       style="fill:#7f7f7f;fill-opacity:1;fill-rule:nonzero;stroke:none"
       d="m 686.9377,234.8528 1e-4,-1.2778 -1.2781,-2e-4 -1e-4,1.2778 z m 3e-4,-2.5556 10e-5,-1.2778 -1.2781,-1e-4 -10e-5,1.2778 z m 3e-4,-2.5555 10e-5,-1.2778 -1.2781,-2e-4 -10e-5,1.2778 z m 3e-4,-2.5556 v -0.0844 l -1.2781,-1e-4 v 0.0843 z m -0.6391,-0.0845 4.2601,3.408 -4.2594,-8.5191 -4.2615,8.518 z" /><g
       transform="matrix(6.709317e-5,0,0,-6.707495e-5,529.0065,489.6865)"
       id="g1363"><path
         inkscape:connector-curvature="0"
         id="path1365"
         style="fill:none;stroke:#1e5f9d;stroke-width:76200;stroke-linecap:butt;stroke-linejoin:miter;stroke-miterlimit:8;stroke-dasharray:none;stroke-opacity:0.702"
         d="M 0,222545.9 111271.1,0 H 2394611 L 2505882,222545.9 2394611,445089 H 111271.1 Z" /></g><g
       transform="matrix(0.24,0,0,0.2399348,552.9984,-100.8849)"
       id="g1367"><text
         id="text1371"
         style="font-variant:normal;font-weight:normal;font-size:62.5px;font-family:Helvetica;-inkscape-font-specification:Helvetica;writing-mode:lr-tb;fill:#000000;fill-opacity:1;fill-rule:nonzero;stroke:none"
         transform="matrix(1,0,0,-1,0,2379)"><tspan
           id="tspan1369"
           sodipodi:role="line"
           y="0"
           x="0 49.706249 85.224998 117.18125">GacA</tspan></text></g><g
       transform="matrix(0.24,0,0,0.2399348,591.3422,-100.8849)"
       id="g1373"><text
         id="text1377"
         style="font-variant:normal;font-weight:normal;font-size:62.5px;font-family:Helvetica;-inkscape-font-specification:Helvetica;writing-mode:lr-tb;fill:#000000;fill-opacity:1;fill-rule:nonzero;stroke:none"
         transform="matrix(1,0,0,-1,0,2379)"><tspan
           id="tspan1375"
           sodipodi:role="line"
           y="0"
           x="0 17.75 60.375 78.125 99.4375 134.9375 166.875 202.375 237.875 273.375 305.3125">/S response</tspan></text></g><path
       inkscape:connector-curvature="0"
       id="path1379"
       style="fill:#7f7f7f;fill-opacity:1;fill-rule:nonzero;stroke:none"
       d="m 613.709,334.5199 5e-4,-11.7918 -1.2781,-10e-5 -5e-4,11.7918 z m -0.6385,-11.7918 4.2602,3.4076 -4.26,-8.5187 -4.2608,8.5183 z" /><path
       inkscape:connector-curvature="0"
       id="path1381"
       style="fill:#7f7f7f;fill-opacity:1;fill-rule:nonzero;stroke:none"
       d="m 613.7094,454.6405 v -48.1061 h -1.2781 v 48.1061 z m -0.639,-48.1061 4.2604,3.4074 -4.2604,-8.5185 -4.2604,8.5185 z" /><g
       transform="matrix(6.709317e-5,0,0,-6.707495e-5,361.6891,401.8127)"
       id="g1383"><path
         inkscape:connector-curvature="0"
         id="path1385"
         style="fill:none;stroke:#d0cece;stroke-width:50800;stroke-linecap:butt;stroke-linejoin:miter;stroke-miterlimit:8;stroke-dasharray:none;stroke-opacity:1"
         d="M 0,547963.5 C 0,245331.6 245331.6,0 547963.5,0 850595.3,0 1095927,245331.6 1095927,547963.5 1095927,850595.3 850595.3,1095927 547963.5,1095927 245331.6,1095927 0,850595.3 0,547963.5 Z" /></g><g
       transform="matrix(2.211288e-5,6.33272e-5,6.334442e-5,-2.210687e-5,351.5296,342.3586)"
       id="g1393"><path
         inkscape:connector-curvature="0"
         id="path1395"
         style="fill:none;stroke:#1e5f9d;stroke-width:101600;stroke-linecap:butt;stroke-linejoin:miter;stroke-miterlimit:8;stroke-dasharray:none;stroke-opacity:1"
         d="M 831317.1,78152.05 C 887386.6,111770.9 937000.7,155134.1 977822.1,206199" /></g><g
       transform="matrix(5.066364e-5,-4.397316e-5,-4.398511e-5,-5.064987e-5,394.6562,417.0757)"
       id="g1397"><path
         inkscape:connector-curvature="0"
         id="path1399"
         style="fill:none;stroke:#fbac4f;stroke-width:101600;stroke-linecap:butt;stroke-linejoin:miter;stroke-miterlimit:8;stroke-dasharray:none;stroke-opacity:1"
         d="M 216326.7,112274.8 C 291990.4,54638.33 381330.4,17648.54 475591.7,4930.314" /></g><g
       transform="matrix(0.24,0,0,0.2399348,396.9078,-183.9249)"
       id="g1401"><text
         id="text1405"
         style="font-style:italic;font-variant:normal;font-size:41.6667px;font-family:Helvetica;-inkscape-font-specification:Helvetica-Oblique;writing-mode:lr-tb;fill:#000000;fill-opacity:1;fill-rule:nonzero;stroke:none"
         transform="matrix(1,0,0,-1,0,2379)"><tspan
           id="tspan1403"
           sodipodi:role="line"
           y="0"
           x="0 23.52083 47.04166">par</tspan></text></g><g
       transform="matrix(0.24,0,0,0.2399348,346.9324,-175.0449)"
       id="g1407"><text
         id="text1411"
         style="font-variant:normal;font-weight:normal;font-size:41.6667px;font-family:Helvetica;-inkscape-font-specification:Helvetica;writing-mode:lr-tb;fill:#000000;fill-opacity:1;fill-rule:nonzero;stroke:none"
         transform="matrix(1,0,0,-1,0,2379)"><tspan
           id="tspan1409"
           y="0"
           x="0">0</tspan></text></g><g
       transform="matrix(0.24,0,0,0.2399348,352.5774,-175.0449)"
       id="g1413"><text
         id="text1417"
         style="font-variant:normal;font-weight:normal;font-size:41.6667px;font-family:Helvetica;-inkscape-font-specification:Helvetica;writing-mode:lr-tb;fill:#000000;fill-opacity:1;fill-rule:nonzero;stroke:none"
         transform="matrix(1,0,0,-1,0,2379)"><tspan
           id="tspan1415"
           y="0"
           x="0">0</tspan></text></g><g
       transform="matrix(0.24,0,0,0.2399348,358.2225,-175.0449)"
       id="g1419"><text
         id="text1423"
         style="font-variant:normal;font-weight:normal;font-size:41.6667px;font-family:Helvetica;-inkscape-font-specification:Helvetica;writing-mode:lr-tb;fill:#000000;fill-opacity:1;fill-rule:nonzero;stroke:none"
         transform="matrix(1,0,0,-1,0,2379)"><tspan
           id="tspan1421"
           sodipodi:role="line"
           y="0"
           x="0 23.52083">59</tspan></text></g><g
       transform="matrix(2.364435e-5,6.277179e-5,-6.278884e-5,2.363793e-5,401.3936,384.7279)"
       id="g1425"><path
         inkscape:connector-curvature="0"
         id="path1427"
         style="fill:none;stroke:#7f7f7f;stroke-width:19050;stroke-linecap:butt;stroke-linejoin:miter;stroke-miterlimit:8;stroke-dasharray:none;stroke-opacity:1"
         d="M 355962.1,19761.98 C 485661.1,72998.7 545801,216986.7 490288.2,341368.1 434775.5,465749.5 284631.8,523423.7 154932.8,470187 134118.3,461643.4 114580.7,450484 96833.26,437002.1" /></g><g
       transform="matrix(6.54983e-5,1.453794e-5,1.454189e-5,-6.548051e-5,404.1064,407.3084)"
       id="g1429"><path
         inkscape:connector-curvature="0"
         id="path1431"
         style="fill:none;stroke:#7f7f7f;stroke-width:19050;stroke-linecap:butt;stroke-linejoin:miter;stroke-miterlimit:8;stroke-dasharray:none;stroke-opacity:1"
         d="M 0,0 125437,27206" /></g><g
       transform="matrix(6.709317e-5,0,0,-6.707495e-5,381.8668,518.2816)"
       id="g1433"><path
         inkscape:connector-curvature="0"
         id="path1435"
         style="fill:none;stroke:#afabab;stroke-width:50800;stroke-linecap:butt;stroke-linejoin:miter;stroke-miterlimit:8;stroke-dasharray:none;stroke-opacity:1"
         d="M 0,684246.5 C 0,306347.6 306347.6,0 684246.5,0 1062145,0 1368493,306347.6 1368493,684246.5 1368493,1062145 1062145,1368493 684246.5,1368493 306347.6,1368493 0,1062145 0,684246.5 Z" /></g><path
       inkscape:connector-curvature="0"
       id="path1443"
       style="fill:#7f7f7f;fill-opacity:1;fill-rule:nonzero;stroke:none"
       d="m 447.2783,372.2691 1.268,0.161 -0.1611,1.2676 -1.2679,-0.161 z m 2.5359,0.322 1.2679,0.161 -0.161,1.2676 -1.2679,-0.161 z m 2.5359,0.322 1.2679,0.161 -0.161,1.2676 -1.268,-0.161 z m 2.5359,0.322 1.2679,0.161 -0.161,1.2676 -1.268,-0.161 z m 2.5358,0.322 1.268,0.161 -0.1611,1.2676 -1.2679,-0.161 z m 2.5359,0.322 1.268,0.161 -0.1611,1.2676 -1.2679,-0.161 z m 2.5359,0.322 1.2679,0.161 -0.161,1.2676 -1.2679,-0.161 z m 2.5359,0.322 1.2679,0.161 -0.161,1.2676 -1.268,-0.161 z m 2.5358,0.322 1.268,0.161 -0.1611,1.2676 -1.2679,-0.161 z m 2.5359,0.322 1.268,0.1609 -0.1611,1.2676 -1.2679,-0.161 z m 2.5359,0.3219 1.2679,0.161 -0.161,1.2676 -1.2679,-0.161 z m 2.5359,0.322 1.2679,0.161 -0.161,1.2676 -1.268,-0.161 z m 2.5359,0.322 1.2679,0.161 -0.161,1.2676 -1.268,-0.161 z m 2.5358,0.322 1.268,0.161 -0.1611,1.2676 -1.2679,-0.161 z m 2.5359,0.322 1.268,0.161 -0.1611,1.2676 -1.2679,-0.161 z m 2.5359,0.322 1.2679,0.161 -0.161,1.2676 -1.2679,-0.161 z m 2.5359,0.322 1.2679,0.161 -0.161,1.2676 -1.268,-0.161 z m 2.5359,0.322 1.2679,0.161 -0.161,1.2676 -1.268,-0.161 z m 2.5358,0.322 1.268,0.161 -0.1611,1.2676 -1.2679,-0.161 z m 2.5359,0.322 1.268,0.161 -0.1611,1.2676 -1.2679,-0.161 z m 2.5359,0.322 1.2679,0.161 -0.161,1.2675 -1.2679,-0.161 z m 2.5359,0.3219 1.2679,0.161 -0.161,1.2676 -1.268,-0.161 z m 2.5359,0.322 1.2679,0.161 -0.1611,1.2676 -1.2679,-0.161 z m 2.5358,0.322 1.268,0.161 -0.1611,1.2676 -1.2679,-0.161 z m 2.5359,0.322 1.2679,0.161 -0.161,1.2676 -1.2679,-0.161 z m 2.5359,0.322 1.2679,0.161 -0.161,1.2676 -1.268,-0.161 z m 2.5359,0.322 1.2679,0.161 -0.161,1.2676 -1.268,-0.161 z m 2.5358,0.322 1.268,0.161 -0.1611,1.2676 -1.2679,-0.161 z m 2.5359,0.322 1.2679,0.161 -0.161,1.2676 -1.2679,-0.161 z m 2.5359,0.322 1.2679,0.161 -0.161,1.2676 -1.2679,-0.161 z m 2.5359,0.322 1.2679,0.161 -0.161,1.2676 -1.268,-0.161 z m 2.5359,0.322 1.2679,0.161 -0.1611,1.2675 -1.2679,-0.1609 z m 2.5358,0.3219 1.268,0.161 -0.1611,1.2676 -1.2679,-0.161 z m 2.5359,0.322 1.2679,0.161 -0.161,1.2676 -1.2679,-0.161 z m 2.5359,0.322 1.2679,0.161 -0.161,1.2676 -1.268,-0.161 z m 2.5359,0.322 1.2679,0.161 -0.161,1.2676 -1.268,-0.161 z m 2.5358,0.322 1.268,0.161 -0.1611,1.2676 -1.2679,-0.161 z m -91.3721,-10.9579 2.8443,4.6547 -7.9161,-5.2987 8.9897,-3.152 z m 93.1977,11.8337 -2.8443,-4.6546 7.9161,5.2986 -8.9897,3.152 z" /><path
       inkscape:connector-curvature="0"
       id="path1445"
       style="fill:#7f7f7f;fill-opacity:1;fill-rule:nonzero;stroke:none"
       d="m 478.3842,440.8104 1.0974,-0.6551 -0.6553,-1.0971 -1.0974,0.6551 z m 2.1947,-1.3103 1.0974,-0.6551 -0.6553,-1.097 -1.0974,0.6551 z m 2.1947,-1.3102 1.0974,-0.6551 -0.6553,-1.0971 -1.0974,0.6551 z m 2.1947,-1.3102 1.0974,-0.6552 -0.6553,-1.097 -1.0974,0.6551 z m 2.1947,-1.3103 1.0974,-0.6551 -0.6553,-1.0971 -1.0974,0.6552 z m 2.1947,-1.3102 1.0974,-0.6552 -0.6553,-1.097 -1.0974,0.6551 z m 2.1947,-1.3103 1.0974,-0.6551 -0.6553,-1.0971 -1.0974,0.6552 z m 2.1948,-1.3102 1.0973,-0.6551 -0.6553,-1.0971 -1.0973,0.6551 z m 2.1947,-1.3103 1.0973,-0.6551 -0.6553,-1.097 -1.0973,0.6551 z m 2.1947,-1.3102 1.0973,-0.6551 -0.6553,-1.0971 -1.0973,0.6551 z m 2.1947,-1.3103 1.0973,-0.6551 -0.6553,-1.097 -1.0973,0.6551 z m 2.1947,-1.3102 1.0973,-0.6551 -0.6553,-1.0971 -1.0973,0.6551 z m 2.1947,-1.3102 1.0973,-0.6552 -0.6553,-1.097 -1.0973,0.6551 z m 2.1947,-1.3103 1.0973,-0.6551 -0.6553,-1.0971 -1.0973,0.6552 z m 2.1947,-1.3102 1.0974,-0.6551 -0.6553,-1.0971 -1.0974,0.6551 z m 2.1947,-1.3103 1.0974,-0.6551 -0.6553,-1.0971 -1.0974,0.6552 z m 2.1947,-1.3102 1.0974,-0.6551 -0.6553,-1.0971 -1.0974,0.6551 z m 2.1947,-1.3103 1.0974,-0.6551 -0.6553,-1.097 -1.0974,0.6551 z m 2.1947,-1.3102 1.0974,-0.6551 -0.6553,-1.0971 -1.0974,0.6551 z m 2.1948,-1.3102 1.0973,-0.6552 -0.6553,-1.097 -1.0973,0.6551 z m 2.1947,-1.3103 1.0973,-0.6551 -0.6553,-1.0971 -1.0973,0.6552 z m 2.1947,-1.3102 1.0973,-0.6552 -0.6553,-1.097 -1.0973,0.6551 z m 2.1947,-1.3103 1.0973,-0.6551 -0.6553,-1.0971 -1.0973,0.6552 z m 2.1947,-1.3102 1.0973,-0.6551 -0.6553,-1.0971 -1.0973,0.6551 z m 2.1947,-1.3103 1.0973,-0.6551 -0.6553,-1.097 -1.0973,0.6551 z m 2.1947,-1.3102 1.0973,-0.6551 -0.6552,-1.0971 -1.0974,0.6551 z m 2.1947,-1.3103 1.0974,-0.6551 -0.6553,-1.097 -1.0974,0.6551 z m 2.1947,-1.3102 1.0974,-0.6551 -0.6553,-1.0971 -1.0974,0.6552 z m 2.1947,-1.3102 1.0974,-0.6552 -0.6553,-1.097 -1.0974,0.6551 z m 2.1947,-1.3103 1.0974,-0.6551 -0.6553,-1.0971 -1.0974,0.6552 z m 2.1947,-1.3102 1.0974,-0.6552 -0.6553,-1.097 -1.0974,0.6551 z m 2.1947,-1.3103 0.5027,-0.3001 -0.6553,-1.097 -0.5027,0.3001 z m -68.3635,40.069 0.742,-5.4038 -5.1314,8.0243 9.5,-0.7106 z m 68.5386,-40.9176 -0.7419,5.4038 5.1313,-8.0243 -9.5,0.7106 z" /><g
       transform="matrix(3.669126e-5,5.615631e-5,-5.617157e-5,3.66813e-5,460.6972,347.2163)"
       id="g1447"><path
         inkscape:connector-curvature="0"
         id="path1449"
         style="fill:none;stroke:#7f7f7f;stroke-width:19050;stroke-linecap:butt;stroke-linejoin:miter;stroke-miterlimit:8;stroke-dasharray:none;stroke-opacity:1"
         d="m 677265.2,123269.6 c 174153.4,186708.6 196587.9,518019.2 50109,740002.9 C 635081.3,1003139 492381.5,1071793 350601.7,1044542" /></g><g
       transform="matrix(6.709317e-5,0,0,6.707495e-5,473.7519,388.7885)"
       id="g1451"><path
         inkscape:connector-curvature="0"
         id="path1453"
         style="fill:none;stroke:#7f7f7f;stroke-width:19050;stroke-linecap:butt;stroke-linejoin:miter;stroke-miterlimit:8;stroke-dasharray:none;stroke-opacity:1"
         d="M 0,0 135005,20151" /></g><g
       transform="matrix(0,6.707495e-5,6.709317e-5,0,359.5269,136.9412)"
       id="g1455"><path
         inkscape:connector-curvature="0"
         id="path1457"
         style="fill:none;stroke:#000000;stroke-width:19050;stroke-linecap:butt;stroke-linejoin:miter;stroke-miterlimit:8;stroke-dasharray:none;stroke-opacity:1"
         d="m 331706,1493751 c -91598.5,0 -165853.8,-12375 -165853.8,-27640 l 1.6,-702020.8 c 0,-15265.3 -74255.27,-27640.3 -165853.8,-27640.3 91598.53,0 165853.8,-12374.9 165853.8,-27640.2 V 27640.27 C 165853.8,12374.97 240109.1,0 331707.6,0" /></g><g
       transform="matrix(0,6.707495e-5,6.709317e-5,0,546.3044,137.852)"
       id="g1459"><path
         inkscape:connector-curvature="0"
         id="path1461"
         style="fill:none;stroke:#000000;stroke-width:19050;stroke-linecap:butt;stroke-linejoin:miter;stroke-miterlimit:8;stroke-dasharray:none;stroke-opacity:1"
         d="m 331706,2874185 c -91599,0 -165854.6,-12376 -165854.6,-27642 l 3.2,-1401872 c 0,-15266 -74255.65,-27642 -165854.6,-27642 91598.95,0 165854.6,-12376 165854.6,-27642 V 27641.71 C 165854.6,12375.62 240110.2,0 331709.1,0" /></g><path
       inkscape:connector-curvature="0"
       id="path1463"
       style="fill:#7f7f7f;fill-opacity:1;fill-rule:nonzero;stroke:none"
       d="m 698.2773,468.8934 17.8237,-13.4468 -0.7699,-1.0199 -17.8237,13.4467 z m 17.4388,-13.9567 -0.1543,5.4523 4.2352,-8.5311 -9.3679,1.7314 z" /><path
       inkscape:connector-curvature="0"
       id="path1465"
       style="fill:#7f7f7f;fill-opacity:1;fill-rule:nonzero;stroke:none"
       d="m 699.0683,476.1968 20.1266,-3.9104 -0.2439,-1.2544 -20.1265,3.9105 z m 20.0046,-4.5376 -2.5329,4.8311 7.5516,-5.8062 -9.1772,-2.5559 z" /><path
       inkscape:connector-curvature="0"
       id="path1467"
       style="fill:#7f7f7f;fill-opacity:1;fill-rule:nonzero;stroke:none"
       d="m 697.8988,482.2547 18.8307,5.1656 -0.3382,1.2323 -18.8307,-5.1656 z m 18.6616,5.7817 -2.1594,-5.009 7.0897,6.3615 -9.3445,1.8533 z" /><g
       transform="matrix(0.24,0,0,0.2399348,727.6257,-84.32487)"
       id="g1469"><text
         id="text1473"
         style="font-variant:normal;font-weight:normal;font-size:41.6667px;font-family:Helvetica;-inkscape-font-specification:Helvetica;writing-mode:lr-tb;fill:#000000;fill-opacity:1;fill-rule:nonzero;stroke:none"
         transform="matrix(1,0,0,-1,0,2379)"><tspan
           id="tspan1471"
           sodipodi:role="line"
           y="0"
           x="0 23.52083 37.708328 61.229156 73.208321 96.729149 120.24998 141.56248">protease</tspan></text></g><g
       transform="matrix(0.24,0,0,0.2399348,727.9865,-103.5249)"
       id="g1475"><text
         id="text1479"
         style="font-variant:normal;font-weight:normal;font-size:41.6667px;font-family:Helvetica;-inkscape-font-specification:Helvetica;writing-mode:lr-tb;fill:#000000;fill-opacity:1;fill-rule:nonzero;stroke:none"
         transform="matrix(1,0,0,-1,0,2379)"><tspan
           id="tspan1477"
           sodipodi:role="line"
           y="0"
           x="0 23.52083 32.833328 56.354156 68.333321 77.645821 86.958321">biofilm</tspan></text></g><g
       transform="matrix(0.24,0,0,0.2399348,725.932,-121.7649)"
       id="g1481"><text
         id="text1485"
         style="font-variant:normal;font-weight:normal;font-size:41.6667px;font-family:Helvetica;-inkscape-font-specification:Helvetica;writing-mode:lr-tb;fill:#000000;fill-opacity:1;fill-rule:nonzero;stroke:none"
         transform="matrix(1,0,0,-1,0,2379)"><tspan
           id="tspan1483"
           sodipodi:role="line"
           y="0"
           x="0 35.504162 59.008324 70.970825 80.308319 89.645821 98.983315 110.94582">motility</tspan></text></g><g
       transform="matrix(0.24,0,0,0.2399348,721.7557,-140.0049)"
       id="g1487"><text
         id="text1491"
         style="font-variant:normal;font-weight:normal;font-size:41.6667px;font-family:Helvetica;-inkscape-font-specification:Helvetica;writing-mode:lr-tb;fill:#000000;fill-opacity:1;fill-rule:nonzero;stroke:none"
         transform="matrix(1,0,0,-1,0,2379)"><tspan
           id="tspan1489"
           sodipodi:role="line"
           y="0"
           x="0 23.52083 35.499996 56.812492">etc.</tspan></text></g><path
       inkscape:connector-curvature="0"
       id="path1493"
       style="fill:#7f7f7f;fill-opacity:1;fill-rule:nonzero;stroke:none"
       d="m 696.2897,461.6635 18.504,-20.7666 -0.9543,-0.8499 -18.504,20.7666 z m 18.0269,-21.1916 0.9141,5.3774 2.4865,-9.1938 -8.849,3.5276 z" /><path
       inkscape:connector-curvature="0"
       id="path1495"
       style="fill:#7f7f7f;fill-opacity:1;fill-rule:nonzero;stroke:none"
       d="m 546.8375,500.3537 -0.7138,1.06 -1.0603,-0.7135 0.7138,-1.06 z m -1.4947,2.1184 -0.7751,1.0159 -1.0163,-0.7749 0.7752,-1.016 z m -1.6315,2.014 -0.6247,0.7267 -0.2474,0.2565 -0.92,-0.887 0.2347,-0.2433 -0.0247,0.0271 0.6127,-0.7128 z m -1.7593,1.9029 -0.4285,0.4441 -0.5112,0.4735 -0.8686,-0.9373 0.498,-0.4613 -0.0257,0.0252 0.416,-0.4312 z m -1.8773,1.786 -0.2044,0.1893 -0.7967,0.6602 -0.8156,-0.9838 0.7831,-0.6489 -0.0265,0.0232 0.1915,-0.1773 z m -2.0147,1.6831 -1.0267,0.7611 -0.7613,-1.0264 1.0267,-0.7611 z m -2.093,1.5244 -1.0655,0.7058 -0.706,-1.0652 1.0655,-0.7058 z m -2.1784,1.398 -1.1005,0.6498 -0.65,-1.1002 1.1005,-0.6498 z m -2.2541,1.2707 -1.1305,0.5926 -0.0303,0.014 -0.5367,-1.1597 0.016,-0.007 -0.0284,0.014 1.1164,-0.5851 0.5935,1.1316 z m -2.3207,1.1432 -0.9128,0.4222 -0.2812,0.1139 -0.4799,-1.1843 0.2669,-0.1081 -0.0285,0.0124 0.8987,-0.4158 z m -2.3786,1.0159 -0.704,0.2851 -0.5363,0.1741 -0.3947,-1.2153 0.5147,-0.1671 -0.0426,0.0155 0.683,-0.2766 z m -2.456,0.8538 -1.2156,0.3946 -0.3947,-1.2153 1.2156,-0.3946 z m -2.4313,0.7892 -0.2981,0.0968 -0.9982,0.2255 -0.2817,-1.2464 0.9696,-0.219 -0.0565,0.0155 0.2702,-0.0877 z m -2.543,0.6039 -1.2467,0.2816 -0.2817,-1.2464 1.2467,-0.2816 z m -2.5508,0.5653 -1.2668,0.1697 -0.1697,-1.2664 1.2668,-0.1697 z m -2.5336,0.3394 -1.2668,0.1697 -0.1697,-1.2664 1.2668,-0.1697 z m -2.5776,0.3187 -1.2752,0.0866 -0.0867,-1.2748 1.2752,-0.0867 z m -2.5789,0.1531 -1.2777,0.0318 -0.0317,-1.2774 1.2777,-0.0317 z m -2.5828,0.0383 -1.2779,-0.0228 0.0228,-1.2776 1.278,0.0229 z m -2.5819,-0.0749 -1.2758,-0.0771 0.0771,-1.2754 1.2758,0.0771 z m -2.576,-0.1863 -1.2714,-0.1309 0.1309,-1.2711 1.2714,0.131 z m -2.5657,-0.296 -1.2648,-0.1843 0.1844,-1.2644 1.2648,0.1843 z m -2.5509,-0.4038 -1.2559,-0.2374 0.2374,-1.2555 1.2559,0.2373 z m -2.5318,-0.5099 -1.2448,-0.2899 0.29,-1.2444 1.2448,0.2898 z m -2.5086,-0.614 -1.2315,-0.3419 0.342,-1.2311 1.2315,0.3419 z m -2.4814,-0.716 -1.216,-0.3934 0.3934,-1.2157 1.2161,0.3934 z m -2.4504,-0.816 -1.1984,-0.4442 0.4443,-1.1981 1.1984,0.4442 z m -2.4158,-0.9138 -1.1786,-0.4943 0.4945,-1.1783 1.1786,0.4944 z m -2.385,-1.0168 -1.1481,-0.5617 0.5618,-1.1477 1.1481,0.5617 z m -2.2961,-1.1233 -1.148,-0.5617 0.5618,-1.1477 1.148,0.5617 z m -2.3117,-1.1939 -1.1035,-0.6448 0.6449,-1.1032 1.1035,0.6448 z m -2.207,-1.2895 -1.1035,-0.6447 0.6449,-1.1032 1.1035,0.6447 z m -2.1963,-1.3948 -1.0525,-0.725 0.7252,-1.0522 1.0525,0.725 z m -2.105,-1.45 -0.6176,-0.4254 -0.4486,-0.3619 0.8026,-0.9944 0.4298,0.3467 -0.0387,-0.0289 0.5977,0.4117 z m -2.0609,-1.5898 -0.9947,-0.8024 0.8027,-0.9944 0.9947,0.8024 z m -1.9894,-1.6048 -0.1081,-0.0872 0.8027,-0.9944 0.1081,0.0872 z m 79.94,-4.6814 -5.3849,0.8776 7.8947,-5.3305 -0.4712,9.5124 z" /><g
       transform="matrix(0.24,0,0,0.2399348,326.4608,-448.4049)"
       id="g1497"><text
         id="text1501"
         style="font-variant:normal;font-weight:normal;font-size:62.5px;font-family:Helvetica;-inkscape-font-specification:Helvetica;writing-mode:lr-tb;fill:#000000;fill-opacity:1;fill-rule:nonzero;stroke:none"
         transform="matrix(1,0,0,-1,0,2379)"><tspan
           id="tspan1499"
           sodipodi:role="line"
           y="0"
           x="0 35.506248 71.012497 106.51875 142.02499 163.34375 198.85001 213.04375 230.8 284.05624 319.5625 337.31876 372.82501 408.33124 443.83749 458.03125 472.22501 504.16876 521.92499 553.86877 589.375 621.31873 639.07501">general/metabolic costs</tspan></text></g><g
       transform="matrix(0.24,0,0,0.2399348,551.0305,-449.3649)"
       id="g1503"><text
         id="text1507"
         style="font-variant:normal;font-weight:normal;font-size:62.5px;font-family:Helvetica;-inkscape-font-specification:Helvetica;writing-mode:lr-tb;fill:#000000;fill-opacity:1;fill-rule:nonzero;stroke:none"
         transform="matrix(1,0,0,-1,0,2379)"><tspan
           id="tspan1505"
           sodipodi:role="line"
           y="0"
           x="0 31.956249 67.474998 102.99375 134.95 149.15625 166.925 181.13126 213.08749 230.85625 266.375 301.89374 337.41251 372.93124 390.70001 422.65625 458.17499 493.69376 511.46249 525.66876 539.875 571.83124 589.59998 607.36877 639.32501 674.84375 706.79999 724.56873">specific gene conflict costs</tspan></text></g><g
       transform="matrix(0.24,0,0,0.2399348,510.147,-449.3649)"
       id="g1509"><text
         id="text1513"
         style="font-variant:normal;font-weight:normal;font-size:70.8333px;font-family:Helvetica;-inkscape-font-specification:Helvetica;writing-mode:lr-tb;fill:#000000;fill-opacity:1;fill-rule:nonzero;stroke:none"
         transform="matrix(1,0,0,-1,0,2379)"><tspan
           id="tspan1511"
           y="0"
           x="0">&lt;</tspan></text></g><g
       transform="matrix(0.24,0,0,0.2399348,476.5274,-357.9249)"
       id="g1515"><text
         id="text1519"
         style="font-variant:normal;font-weight:normal;font-size:41.6667px;font-family:Helvetica;-inkscape-font-specification:Helvetica;writing-mode:lr-tb;fill:#000000;fill-opacity:1;fill-rule:nonzero;stroke:none"
         transform="matrix(1,0,0,-1,0,2379)"><tspan
           id="tspan1517"
           sodipodi:role="line"
           y="0"
           x="0 11.983332 26.174995 49.699993 73.224991 94.541649 118.06665 141.59164 162.90831 186.4333">transposon</tspan></text></g><g
       transform="matrix(0.24,0,0,0.2399348,474.8786,-370.8849)"
       id="g1521"><text
         id="text1525"
         style="font-variant:normal;font-weight:normal;font-size:41.6667px;font-family:Helvetica;-inkscape-font-specification:Helvetica;writing-mode:lr-tb;fill:#000000;fill-opacity:1;fill-rule:nonzero;stroke:none"
         transform="matrix(1,0,0,-1,0,2379)"><tspan
           id="tspan1523"
           sodipodi:role="line"
           y="0"
           x="0 35.504162 59.008324 82.512489 91.849983 101.18748 110.52498 131.82082 155.32498 167.28748 176.62497">mobilisatio</tspan></text></g><g
       transform="matrix(0.24,0,0,0.2399348,522.9148,-370.8849)"
       id="g1527"><text
         id="text1531"
         style="font-variant:normal;font-weight:normal;font-size:41.6667px;font-family:Helvetica;-inkscape-font-specification:Helvetica;writing-mode:lr-tb;fill:#000000;fill-opacity:1;fill-rule:nonzero;stroke:none"
         transform="matrix(1,0,0,-1,0,2379)"><tspan
           id="tspan1529"
           y="0"
           x="0">n</tspan></text></g><path
       inkscape:connector-curvature="0"
       id="path1533"
       style="fill:#7ab53e;fill-opacity:0.251;fill-rule:nonzero;stroke:none"
       d="m 546.3668,278.5608 -8.2919,16.5795 h -75.542 l -8.2919,-16.5795 8.2919,-16.5794 h 75.542 z" /><g
       transform="matrix(0.24,0,0,0.2399348,483.047,-289.0449)"
       id="g1535"><text
         id="text1539"
         style="font-variant:normal;font-weight:normal;font-size:41.6667px;font-family:Helvetica;-inkscape-font-specification:Helvetica;writing-mode:lr-tb;fill:#000000;fill-opacity:1;fill-rule:nonzero;stroke:none"
         transform="matrix(1,0,0,-1,0,2379)"><tspan
           id="tspan1537"
           sodipodi:role="line"
           y="0"
           x="0 26.183329 49.699993 73.216652 96.733315 120.24998">Tn6291</tspan></text></g><g
       transform="matrix(0.24,0,0,0.2399348,472.5579,-302.0049)"
       id="g1541"><text
         id="text1545"
         style="font-variant:normal;font-weight:normal;font-size:41.6667px;font-family:Helvetica;-inkscape-font-specification:Helvetica;writing-mode:lr-tb;fill:#000000;fill-opacity:1;fill-rule:nonzero;stroke:none"
         transform="matrix(1,0,0,-1,0,2379)"><tspan
           id="tspan1543"
           sodipodi:role="line"
           y="0"
           x="0 11.983332 26.174995 49.699993 73.224991 94.541649 118.06665 141.59164 162.90831 186.4333 207.74997">transposase</tspan></text></g><path
       inkscape:connector-curvature="0"
       id="path1547"
       style="fill:#7f7f7f;fill-opacity:1;fill-rule:nonzero;stroke:none"
       d="m 501.2344,258.9236 v -1.2778 h -1.2781 l -10e-5,1.2778 z m 0,-2.5555 v -1.2778 h -1.2781 v 1.2778 z m 0,-2.5556 v -1.2778 h -1.2781 v 1.2778 z m 0,-2.5555 v -1.2778 h -1.2781 v 1.2777 z m 0,-2.5556 v -1.2778 h -1.2781 v 1.2778 z m -0.639,-1.5696 4.2604,3.4075 -4.2604,-8.5186 -4.2605,8.5185 z" /><path
       inkscape:connector-curvature="0"
       id="path1549"
       style="fill:#7f7f7f;fill-opacity:1;fill-rule:nonzero;stroke:none"
       d="m 377.5434,450.3806 -5.243,-3.9048 -5.0343,-4.0604 -4.8131,-4.1991 -4.5888,-4.3283 -4.3619,-4.4482 -4.1319,-4.5584 -3.8991,-4.6593 -3.6635,-4.7507 -3.425,-4.8327 -3.1836,-4.9051 -2.9394,-4.9682 -2.6923,-5.0218 -2.4422,-5.066 -2.1893,-5.1007 -1.9334,-5.126 -1.6747,-5.1419 -1.4129,-5.1483 -1.1483,-5.1452 -0.8806,-5.1328 -0.61,-5.1108 -0.3364,-5.0793 -0.0597,-5.0383 0.22,-4.9878 0.5026,-4.9275 0.7884,-4.8578 1.077,-4.7782 1.3687,-4.689 1.6633,-4.5899 1.9607,-4.4811 2.261,-4.3624 2.564,-4.2339 2.8682,-4.0935 2.3395,-2.9544 2.4746,-2.8206 2.6069,-2.6878 2.7349,-2.554 2.8583,-2.4193 2.9775,-2.2837 3.0923,-2.1472 3.2026,-2.0099 3.3086,-1.8717 3.4103,-1.7327 3.5076,-1.5928 3.6005,-1.4522 3.6893,-1.3107 3.7736,-1.1684 3.8536,-1.0253 3.9294,-0.8814 4.0008,-0.7367 4.0681,-0.5911 4.131,-0.4447 4.1896,-0.2976 4.2441,-0.1496 4.2941,-8e-4 4.3401,0.1489 4.3817,0.2994 4.4191,0.4507 4.4522,0.6028 4.4811,0.7558 4.5057,0.9097 4.5261,1.0644 4.5422,1.2199 4.2388,1.2811 -0.3698,1.2231 -4.2293,-1.2782 0.0191,0.006 -4.5229,-1.2147 0.0195,0.005 -4.5065,-1.0598 0.0198,0.004 -4.4857,-0.9056 0.0202,0.004 -4.4607,-0.7524 0.0206,0.003 -4.4315,-0.6 0.0209,0.002 -4.398,-0.4486 0.0213,0.002 -4.3602,-0.2979 0.0216,10e-4 -4.3182,-0.1481 0.0221,4e-4 -4.272,8e-4 0.0224,-4e-4 -4.2214,0.1487 0.0227,-0.001 -4.1667,0.296 0.0232,-0.002 -4.1077,0.4423 0.0235,-0.003 -4.0444,0.5877 0.0239,-0.004 -3.9769,0.7322 0.0242,-0.005 -3.9051,0.8759 0.0244,-0.006 -3.829,1.0188 0.0247,-0.007 -3.7487,1.1607 0.0249,-0.008 -3.6642,1.3018 0.0251,-0.01 -3.5754,1.4421 0.0252,-0.0108 -3.4824,1.5813 0.0253,-0.0121 -3.3851,1.7199 0.0252,-0.0136 -3.2835,1.8575 0.0251,-0.0149 -3.1777,1.9942 0.0248,-0.0163 -3.0676,2.1301 0.0244,-0.0179 -2.9533,2.2652 0.0239,-0.0193 -2.8347,2.3992 0.0233,-0.0207 -2.7119,2.5326 0.0226,-0.0222 -2.5848,2.665 0.0216,-0.0235 -2.4534,2.7965 0.0206,-0.0247 -2.3179,2.9272 0.0224,-0.0301 -2.8452,4.0607 0.0232,-0.0357 -2.5419,4.1976 0.0207,-0.037 -2.2416,4.325 0.0181,-0.0379 -1.944,4.4429 0.0154,-0.0384 -1.6493,4.5513 0.0126,-0.0386 -1.3574,4.6504 0.01,-0.0386 -1.0684,4.7399 0.007,-0.0382 -0.7822,4.8199 0.005,-0.0375 -0.4989,4.8905 0.003,-0.0367 -0.2184,4.9515 6e-4,-0.0357 0.0593,5.0031 -10e-4,-0.0346 0.3341,5.0452 -0.003,-0.0335 0.6061,5.0779 -0.005,-0.0323 0.8751,5.101 -0.006,-0.0311 1.1415,5.1147 -0.008,-0.0299 1.4049,5.119 -0.009,-0.0288 1.6655,5.1137 -0.01,-0.0276 1.9232,5.0989 -0.0107,-0.0265 2.1782,5.0747 -0.0116,-0.0254 2.4302,5.041 -0.0125,-0.0244 2.6795,4.9978 -0.0133,-0.0234 2.9258,4.9452 -0.0139,-0.0225 3.1693,4.8831 -0.0147,-0.0216 3.41,4.8115 -0.0153,-0.0208 3.6479,4.7304 -0.016,-0.0199 3.8828,4.6399 -0.0166,-0.0191 4.115,4.5398 -0.0172,-0.0182 4.3443,4.4303 -0.0178,-0.0175 4.5708,4.3113 -0.0184,-0.0166 4.7944,4.1828 -0.0189,-0.0159 5.0152,4.0449 -0.0195,-0.0151 5.2331,3.8975 -0.7636,1.0246 z m 70.5998,-177.5158 -1.8825,-5.1195 6.7315,6.7392 -9.4318,1.3402 z" /><path
       inkscape:connector-curvature="0"
       id="path1551"
       style="fill:#7f7f7f;fill-opacity:1;fill-rule:nonzero;stroke:none"
       d="m 410.4561,322.544 0.8231,-4.1674 1.1727,-4.0921 1.4963,-3.9692 1.7993,-3.8261 2.0822,-3.6629 2.3446,-3.4796 2.5871,-3.2762 2.8095,-3.0528 3.012,-2.809 3.1947,-2.545 3.3575,-2.2605 3.5008,-1.9556 3.624,-1.6297 3.7275,-1.283 2.5402,-0.61 0.2985,1.2424 -2.5104,0.6029 0.0587,-0.0171 -3.6709,1.2635 0.0542,-0.0215 -3.5722,1.6064 0.0496,-0.0249 -3.4533,1.9291 0.0452,-0.0278 -3.3142,2.2314 0.0412,-0.0303 -3.1551,2.5135 0.0376,-0.0324 -2.9759,2.7754 0.0343,-0.0346 -2.7766,3.017 0.0313,-0.0367 -2.5571,3.2383 0.0284,-0.0389 -2.3176,3.4394 0.0256,-0.0413 -2.0579,3.6203 0.0227,-0.0438 -1.7781,3.7809 0.0197,-0.0466 -1.4782,3.9212 0.0164,-0.0493 -1.1582,4.0413 0.0126,-0.0522 -0.8179,4.141 z m 38.2208,-41.9979 -4.0438,-3.6618 9.0909,2.8473 -7.733,5.5624 z" /><path
       inkscape:connector-curvature="0"
       id="path1553"
       style="fill:#c00000;fill-opacity:0.349;fill-rule:nonzero;stroke:none"
       d="m 457.8483,386.143 -4.6095,-4.1818 -0.7264,1.4818 -3.8111,-5.0827 -0.8511,1.4702 -6.5711,-6.4558 4.5368,10.3369 0.9298,-1.8052 2.9235,6.4323 1.2808,-2.0895 3.063,6.7893 z" /><path
       inkscape:connector-curvature="0"
       id="path1555"
       style="fill:#c00000;fill-opacity:0.349;fill-rule:nonzero;stroke:none"
       d="m 459.0448,384.606 -5.1065,-3.8741 -0.5313,1.6854 -4.4296,-4.946 -0.6564,1.6895 -7.3427,-6.0528 5.8209,10.4845 0.6916,-2.0592 3.7217,6.5109 1.0033,-2.4105 3.9058,6.8752 z" /><path
       inkscape:connector-curvature="0"
       id="path1557"
       style="fill:#c00000;fill-opacity:0.349;fill-rule:nonzero;stroke:none"
       d="m 458.4107,357.7605 -5.5098,2.8952 1.1433,1.1903 -6.0826,1.8365 1.0898,1.3034 -8.3191,3.9577 11.2685,-0.7167 -1.3776,-1.4921 7.0465,-0.5403 -1.5243,-1.9191 7.4297,-0.5489 z" /><path
       inkscape:connector-curvature="0"
       id="path1559"
       style="fill:#c00000;fill-opacity:0.349;fill-rule:nonzero;stroke:none"
       d="m 457.3766,356.1098 -5.391,3.4675 1.4015,1.0767 -6.1661,2.4644 1.3625,1.1956 -8.205,4.8207 11.8474,-1.8721 -1.6978,-1.3555 7.3939,-1.2629 -1.9209,-1.7687 7.7993,-1.3109 z" /><path
       inkscape:connector-curvature="0"
       id="path1561"
       style="fill:#c00000;fill-opacity:0.349;fill-rule:nonzero;stroke:none"
       d="m 533.7044,370.4176 4.1341,4.6521 0.8813,-1.3953 3.2437,5.4621 1.004,-1.3705 5.8403,7.1233 -3.4014,-10.7638 -1.1181,1.6951 -2.2164,-6.7087 -1.4976,1.94 -2.3167,-7.0786 z" /><path
       inkscape:connector-curvature="0"
       id="path1563"
       style="fill:#c00000;fill-opacity:0.349;fill-rule:nonzero;stroke:none"
       d="m 532.3499,371.8175 4.6613,4.3994 0.709,-1.6187 3.8734,5.3925 0.8338,-1.6093 6.6508,6.8054 -4.6622,-11.0483 -0.9085,1.9732 -3.0016,-6.8725 -1.2562,2.2889 -3.1454,-7.2544 z" /><path
       inkscape:connector-curvature="0"
       id="path1565"
       style="fill:#c00000;fill-opacity:0.349;fill-rule:nonzero;stroke:none"
       d="m 529.3595,399.5517 5.9239,-1.9103 -0.9227,-1.3682 6.3071,-0.7692 -0.8506,-1.4706 8.8736,-2.4767 -11.225,-1.2209 1.1019,1.7057 -7.035,-0.6728 1.1734,2.1515 -7.414,-0.7297 z" /><path
       inkscape:connector-curvature="0"
       id="path1567"
       style="fill:#c00000;fill-opacity:0.349;fill-rule:nonzero;stroke:none"
       d="m 530.096,401.3548 5.9048,-2.4944 -1.1966,-1.3005 6.497,-1.3735 -1.1379,-1.4111 8.9089,-3.3463 -11.9931,-0.1817 1.4409,1.6259 -7.5011,-0.0202 1.59,2.0712 -7.9086,-0.0423 z" /><path
       inkscape:connector-curvature="0"
       id="path1569"
       style="fill:#c00000;fill-opacity:0.349;fill-rule:nonzero;stroke:none"
       d="m 552.6107,419.0536 0.9655,-6.1475 -1.6377,0.2065 2.1571,-5.9749 -1.6965,0.096 1.7897,-9.035 -6.1513,9.466 2.0198,-0.2142 -3.7727,5.9742 2.45,-0.077 -3.9945,6.2869 z" /><path
       inkscape:connector-curvature="0"
       id="path1571"
       style="fill:#c00000;fill-opacity:0.349;fill-rule:nonzero;stroke:none"
       d="m 554.5527,419.2096 0.4353,-6.3939 -1.7006,0.4814 1.703,-6.4167 -1.7728,0.3791 1.0292,-9.4586 -5.5698,10.62 2.1013,-0.5527 -3.4001,6.6844 2.5661,-0.4849 -3.6037,7.0381 z" /><path
       inkscape:connector-curvature="0"
       id="path1573"
       style="fill:#c00000;fill-opacity:0.349;fill-rule:nonzero;stroke:none"
       d="m 491.9851,449.9454 -5.9428,-1.8509 -0.0343,1.6498 -5.5985,-3.0042 -0.1522,1.6919 -8.6801,-3.0869 8.471,7.4636 0.0824,-2.0289 5.3622,4.602 0.2809,-2.4344 5.6392,4.867 z" /><path
       inkscape:connector-curvature="0"
       id="path1575"
       style="fill:#c00000;fill-opacity:0.349;fill-rule:nonzero;stroke:none"
       d="m 492.4224,448.0473 -6.2638,-1.3623 0.2285,1.7522 -6.1018,-2.6196 0.1168,1.8086 -9.2101,-2.3964 9.6977,7.0566 -0.2406,-2.1588 6.1192,4.337 -0.1059,-2.6087 6.4397,4.59 z" /><path
       inkscape:connector-curvature="0"
       id="path1577"
       style="fill:#c00000;fill-opacity:0.349;fill-rule:nonzero;stroke:none"
       d="m 475.8767,422.6708 -2.3889,5.7463 1.6401,0.1855 -3.5061,5.2976 1.6713,0.3068 -3.8713,8.3579 8.2115,-7.748 -2.0134,-0.2682 5.076,-4.9159 -2.399,-0.503 5.3653,-5.1673 z" /><path
       inkscape:connector-curvature="0"
       id="path1579"
       style="fill:#c00000;fill-opacity:0.349;fill-rule:nonzero;stroke:none"
       d="m 474.0263,422.0612 -1.9318,6.1107 1.7663,-0.0667 -3.1692,5.834 1.8122,0.0497 -3.2321,8.9489 7.9186,-9.0066 -2.1724,0.0414 4.8815,-5.6938 -2.6081,-0.1339 5.1628,-5.9896 z" /><g
       transform="matrix(0.24,0,0,0.2399348,506.9904,-156.5649)"
       id="g1581"><text
         id="text1585"
         style="font-variant:normal;font-weight:bold;font-size:62.5px;font-family:Helvetica;-inkscape-font-specification:Helvetica-Bold;writing-mode:lr-tb;fill:#000000;fill-opacity:1;fill-rule:nonzero;stroke:none"
         transform="matrix(1,0,0,-1,0,2379)"><tspan
           id="tspan1583"
           y="0"
           x="0">A</tspan></text></g><g
       transform="matrix(0.24,0,0,0.2399348,505.7273,-195.6849)"
       id="g1587"><text
         id="text1591"
         style="font-variant:normal;font-weight:bold;font-size:62.5px;font-family:Helvetica;-inkscape-font-specification:Helvetica-Bold;writing-mode:lr-tb;fill:#000000;fill-opacity:1;fill-rule:nonzero;stroke:none"
         transform="matrix(1,0,0,-1,0,2379)"><tspan
           id="tspan1589"
           y="0"
           x="0">A</tspan></text></g><g
       transform="matrix(0.24,0,0,0.2399348,565.7187,-246.8049)"
       id="g1593"><text
         id="text1597"
         style="font-variant:normal;font-weight:bold;font-size:62.5px;font-family:Helvetica;-inkscape-font-specification:Helvetica-Bold;writing-mode:lr-tb;fill:#000000;fill-opacity:1;fill-rule:nonzero;stroke:none"
         transform="matrix(1,0,0,-1,0,2379)"><tspan
           id="tspan1595"
           y="0"
           x="0">B</tspan></text></g><g
       transform="matrix(0.24,0,0,0.2399348,638.3725,-370.1649)"
       id="g1599"><text
         id="text1603"
         style="font-variant:normal;font-weight:bold;font-size:62.5px;font-family:Helvetica;-inkscape-font-specification:Helvetica-Bold;writing-mode:lr-tb;fill:#000000;fill-opacity:1;fill-rule:nonzero;stroke:none"
         transform="matrix(1,0,0,-1,0,2379)"><tspan
           id="tspan1601"
           y="0"
           x="0">C</tspan></text></g><g
       transform="matrix(0.24,0,0,0.2399348,617.0819,-146.7249)"
       id="g1605"><text
         id="text1609"
         style="font-variant:normal;font-weight:bold;font-size:62.5px;font-family:Helvetica;-inkscape-font-specification:Helvetica-Bold;writing-mode:lr-tb;fill:#000000;fill-opacity:1;fill-rule:nonzero;stroke:none"
         transform="matrix(1,0,0,-1,0,2379)"><tspan
           id="tspan1607"
           y="0"
           x="0">D</tspan></text></g><g
       transform="matrix(0.24,0,0,0.2399348,356.9771,-159.6849)"
       id="g1611"><text
         id="text1615"
         style="font-variant:normal;font-weight:bold;font-size:62.5px;font-family:Helvetica;-inkscape-font-specification:Helvetica-Bold;writing-mode:lr-tb;fill:#000000;fill-opacity:1;fill-rule:nonzero;stroke:none"
         transform="matrix(1,0,0,-1,0,2379)"><tspan
           id="tspan1613"
           y="0"
           x="0">E</tspan></text></g><g
       transform="matrix(0.24,0,0,0.2399348,480.6215,-325.2849)"
       id="g1617"><text
         id="text1621"
         style="font-variant:normal;font-weight:bold;font-size:62.5px;font-family:Helvetica;-inkscape-font-specification:Helvetica-Bold;writing-mode:lr-tb;fill:#000000;fill-opacity:1;fill-rule:nonzero;stroke:none"
         transform="matrix(1,0,0,-1,0,2379)"><tspan
           id="tspan1619"
           y="0"
           x="0">F</tspan></text></g><g
       id="g843" /><text
       transform="scale(1,-1)"
       id="text1046"
       y="-471.93069"
       x="428.21893"
       style="font-size:14px;line-height:1.25;font-family:Helvetica;-inkscape-font-specification:Helvetica;stroke-width:0.75"
       xml:space="preserve"><tspan
         style="text-align:center;text-anchor:middle;stroke-width:0.75"
         y="-471.93069"
         x="428.21893"
         id="tspan1044"
         sodipodi:role="line">pQBR103</tspan><tspan
         id="tspan1048"
         style="font-size:11px;text-align:center;text-anchor:middle;stroke-width:0.75"
         y="-454.43069"
         x="428.21893"
         sodipodi:role="line">425 kb</tspan></text><text
       xml:space="preserve"
       style="font-size:14px;line-height:1.25;font-family:Helvetica;-inkscape-font-specification:Helvetica;stroke-width:0.75"
       x="398.96829"
       y="-364.78555"
       id="text1054"
       transform="scale(1,-1)"><tspan
         sodipodi:role="line"
         id="tspan1050"
         x="398.96829"
         y="-364.78555"
         style="text-align:center;text-anchor:middle;stroke-width:0.75">pQBR57</tspan><tspan
         sodipodi:role="line"
         x="398.96829"
         y="-347.28555"
         style="font-size:11px;text-align:center;text-anchor:middle;stroke-width:0.75"
         id="tspan1052">307 kb</tspan></text></g></svg>
