<?xml version="1.0" encoding="UTF-8" standalone="no"?>
<svg
   xmlns:dc="http://purl.org/dc/elements/1.1/"
   xmlns:cc="http://creativecommons.org/ns#"
   xmlns:rdf="http://www.w3.org/1999/02/22-rdf-syntax-ns#"
   xmlns:svg="http://www.w3.org/2000/svg"
   xmlns="http://www.w3.org/2000/svg"
   xmlns:sodipodi="http://sodipodi.sourceforge.net/DTD/sodipodi-0.dtd"
   xmlns:inkscape="http://www.inkscape.org/namespaces/inkscape"
   inkscape:version="1.0.2 (e86c8708, 2021-01-15)"
   inkscape:export-ydpi="313.84"
   inkscape:export-xdpi="313.84"
   inkscape:export-filename="/Users/jpjh/Dropbox/WORK/projects/2_COMPMUT/COMPMUT/figs/FigS6.png"
   sodipodi:docname="FigS6.svg"
   id="svg1197"
   version="1.1"
   viewBox="0 0 180 159.1731"
   height="159.1731pt"
   width="180pt"
   class="svglite">
  <metadata
     id="metadata1201">
    <rdf:RDF>
      <cc:Work
         rdf:about="">
        <dc:format>image/svg+xml</dc:format>
        <dc:type
           rdf:resource="http://purl.org/dc/dcmitype/StillImage" />
        <dc:title />
      </cc:Work>
    </rdf:RDF>
  </metadata>
  <sodipodi:namedview
     inkscape:current-layer="svg1197"
     inkscape:window-maximized="0"
     inkscape:window-y="86"
     inkscape:window-x="164"
     inkscape:cy="80.653889"
     inkscape:cx="120"
     inkscape:zoom="3.0634471"
     fit-margin-bottom="0"
     fit-margin-right="0"
     fit-margin-left="0"
     fit-margin-top="0"
     showgrid="false"
     id="namedview1199"
     inkscape:window-height="839"
     inkscape:window-width="1422"
     inkscape:pageshadow="2"
     inkscape:pageopacity="0"
     guidetolerance="10"
     gridtolerance="10"
     objecttolerance="10"
     borderopacity="1"
     inkscape:document-rotation="0"
     bordercolor="#666666"
     pagecolor="#ffffff" />
  <defs
     id="defs835">
    <style
       id="style833"
       type="text/css"><![CDATA[
    .svglite line, .svglite polyline, .svglite polygon, .svglite path, .svglite rect, .svglite circle {
      fill: none;
      stroke: #000000;
      stroke-linecap: round;
      stroke-linejoin: round;
      stroke-miterlimit: 10.00;
    }
  ]]></style>
  </defs>
  <rect
     y="0.38655496"
     x="0"
     id="rect837"
     style="fill:#ffffff;stroke:none"
     height="100%"
     width="100%" />
  <defs
     id="defs842">
    <clipPath
       id="cpMC4wMHwxODAuMDB8MC4wMHwxNTguNDA=">
      <rect
         id="rect839"
         height="158.39999"
         width="180"
         y="0"
         x="0" />
    </clipPath>
  </defs>
  <g
     transform="translate(0,0.38655496)"
     id="g846"
     clip-path="url(#cpMC4wMHwxODAuMDB8MC4wMHwxNTguNDA=)">
    <rect
       id="rect844"
       style="fill:#ffffff;stroke:#ffffff;stroke-width:0.75"
       height="158.39999"
       width="180"
       y="-2.8000001e-14"
       x="0" />
  </g>
  <defs
     id="defs851">
    <clipPath
       id="cpMTkuNzR8ODIuOTd8MTcuMDV8NDcuMjU=">
      <rect
         id="rect848"
         height="30.200001"
         width="63.23"
         y="17.049999"
         x="19.74" />
    </clipPath>
  </defs>
  <g
     transform="translate(0,0.38655496)"
     id="g877"
     clip-path="url(#cpMTkuNzR8ODIuOTd8MTcuMDV8NDcuMjU=)">
    <rect
       id="rect853"
       style="fill:#ffffff;stroke:none;stroke-width:0.75"
       height="30.200001"
       width="63.23"
       y="17.049999"
       x="19.74" />
    <polyline
       id="polyline855"
       style="stroke:#53bcc2;stroke-width:1.07;stroke-linecap:butt"
       points="22.61,45.77 23.42,45.77 24.23,45.77 25.04,45.77 25.85,45.75 26.66,45.73 27.47,45.72 28.28,45.70 29.09,45.68 29.90,45.65 30.71,45.61 31.52,45.58 32.33,45.52 33.14,45.47 33.95,45.38 34.75,45.31 35.56,45.18 36.37,45.01 37.18,44.87 37.99,44.66 38.80,44.41 39.61,44.09 40.42,43.77 41.23,43.39 42.04,42.93 42.85,42.38 43.66,41.66 44.47,40.86 45.28,39.85 46.09,38.74 46.90,37.49 47.71,36.24 48.52,35.14 49.33,34.14 50.14,33.27 50.95,32.41 51.76,31.64 52.57,30.91 53.38,30.17 54.19,29.46 55.00,28.73 55.81,28.05 56.61,27.39 57.42,26.86 58.23,26.35 59.04,25.95 59.85,25.58 60.66,25.13 61.47,24.83 62.28,24.53 63.09,24.24 63.90,23.88 64.71,23.62 65.52,23.39 66.33,23.08 67.14,22.73 67.95,22.51 68.76,22.37 69.57,22.18 70.38,22.00 71.19,21.73 72.00,21.55 72.81,21.32 73.62,21.08 74.43,20.95 75.24,20.77 76.05,20.62 76.86,20.41 77.67,20.30 78.47,20.16 79.28,19.98 80.09,19.87 " />
    <polyline
       id="polyline857"
       style="stroke:#e98076;stroke-width:1.07;stroke-linecap:butt"
       points="22.61,45.77 23.42,45.76 24.23,45.75 25.04,45.73 25.85,45.75 26.66,45.73 27.47,45.71 28.28,45.69 29.09,45.66 29.90,45.63 30.71,45.62 31.52,45.63 32.33,45.57 33.14,45.50 33.95,45.43 34.75,45.38 35.56,45.28 36.37,45.13 37.18,44.99 37.99,44.86 38.80,44.66 39.61,44.37 40.42,44.11 41.23,43.78 42.04,43.34 42.85,42.94 43.66,42.32 44.47,41.56 45.28,40.58 46.09,39.35 46.90,37.96 47.71,36.59 48.52,35.27 49.33,34.12 50.14,33.07 50.95,32.18 51.76,31.35 52.57,30.68 53.38,29.88 54.19,29.15 55.00,28.49 55.81,27.84 56.61,27.16 57.42,26.59 58.23,26.06 59.04,25.65 59.85,25.22 60.66,24.78 61.47,24.42 62.28,24.08 63.09,23.76 63.90,23.38 64.71,23.16 65.52,22.82 66.33,22.56 67.14,22.21 67.95,21.96 68.76,21.80 69.57,21.63 70.38,21.37 71.19,21.19 72.00,21.00 72.81,20.76 73.62,20.62 74.43,20.49 75.24,20.29 76.05,20.13 76.86,19.96 77.67,19.82 78.47,19.69 79.28,19.49 80.09,19.44 " />
    <polyline
       id="polyline859"
       style="stroke:#53bcc2;stroke-width:0.43;stroke-linecap:butt;stroke-opacity:0.4"
       points="22.61,45.77 23.42,45.82 24.23,45.82 25.04,45.82 25.85,45.80 26.66,45.77 27.47,45.77 28.28,45.74 29.09,45.74 29.90,45.68 30.71,45.66 31.52,45.63 32.33,45.57 33.14,45.49 33.95,45.41 34.75,45.35 35.56,45.18 36.37,44.96 37.18,44.85 37.99,44.60 38.80,44.32 39.61,43.91 40.42,43.57 41.23,43.16 42.04,42.68 42.85,41.99 43.66,41.15 44.47,40.21 45.28,39.13 46.09,37.99 46.90,36.51 47.71,35.32 48.52,34.37 49.33,33.34 50.14,32.54 50.95,31.68 51.76,30.93 52.57,30.20 53.38,29.26 54.19,28.54 55.00,27.90 55.81,27.20 56.61,26.62 57.42,26.15 58.23,25.65 59.04,25.28 59.85,24.87 60.66,24.48 61.47,24.12 62.28,24.06 63.09,23.76 63.90,23.37 64.71,23.17 65.52,23.01 66.33,22.67 67.14,22.37 67.95,22.12 68.76,21.95 69.57,21.87 70.38,21.62 71.19,21.39 72.00,21.17 72.81,20.98 73.62,20.78 74.43,20.64 75.24,20.59 76.05,20.39 76.86,20.23 77.67,20.09 78.47,20.00 79.28,19.84 80.09,19.75 " />
    <polyline
       id="polyline861"
       style="stroke:#e98076;stroke-width:0.43;stroke-linecap:butt;stroke-opacity:0.4"
       points="22.61,45.80 23.42,45.80 24.23,45.82 25.04,45.80 25.85,45.80 26.66,45.77 27.47,45.77 28.28,45.77 29.09,45.74 29.90,45.71 30.71,45.71 31.52,45.68 32.33,45.63 33.14,45.57 33.95,45.52 34.75,45.43 35.56,45.35 36.37,45.18 37.18,45.10 37.99,44.96 38.80,44.77 39.61,44.54 40.42,44.29 41.23,44.02 42.04,43.66 42.85,43.18 43.66,42.60 44.47,42.04 45.28,41.04 46.09,39.90 46.90,38.76 47.71,37.46 48.52,36.46 49.33,35.46 50.14,34.37 50.95,33.59 51.76,32.76 52.57,32.15 53.38,31.54 54.19,30.87 55.00,30.34 55.81,29.70 56.61,28.98 57.42,28.48 58.23,27.87 59.04,27.48 59.85,27.04 60.66,26.54 61.47,26.15 62.28,25.81 63.09,25.45 63.90,25.03 64.71,24.76 65.52,24.45 66.33,24.17 67.14,23.84 67.95,23.59 68.76,23.28 69.57,23.12 70.38,22.89 71.19,22.67 72.00,22.42 72.81,22.17 73.62,22.06 74.43,21.89 75.24,21.59 76.05,21.48 76.86,21.23 77.67,21.09 78.47,20.89 79.28,20.53 80.09,20.56 " />
    <polyline
       id="polyline863"
       style="stroke:#e98076;stroke-width:0.43;stroke-linecap:butt;stroke-opacity:0.4"
       points="22.61,45.77 23.42,45.77 24.23,45.77 25.04,45.77 25.85,45.74 26.66,45.71 27.47,45.71 28.28,45.68 29.09,45.66 29.90,45.63 30.71,45.63 31.52,45.63 32.33,45.52 33.14,45.46 33.95,45.41 34.75,45.35 35.56,45.27 36.37,45.02 37.18,44.82 37.99,44.77 38.80,44.49 39.61,44.02 40.42,43.63 41.23,43.29 42.04,42.52 42.85,42.13 43.66,41.32 44.47,40.38 45.28,39.24 46.09,37.93 46.90,36.37 47.71,35.15 48.52,33.82 49.33,32.68 50.14,31.68 50.95,30.82 51.76,29.95 52.57,29.31 53.38,28.40 54.19,27.67 55.00,27.01 55.81,26.48 56.61,25.78 57.42,25.31 58.23,24.90 59.04,24.51 59.85,24.23 60.66,23.89 61.47,23.56 62.28,23.23 63.09,23.03 63.90,22.67 64.71,22.53 65.52,22.09 66.33,21.87 67.14,21.45 67.95,21.28 68.76,21.20 69.57,20.98 70.38,20.73 71.19,20.56 72.00,20.50 72.81,20.23 73.62,20.06 74.43,20.00 75.24,19.84 76.05,19.67 76.86,19.48 77.67,19.36 78.47,19.28 79.28,19.14 80.09,19.09 " />
    <polyline
       id="polyline865"
       style="stroke:#53bcc2;stroke-width:0.43;stroke-linecap:butt;stroke-opacity:0.4"
       points="22.61,45.82 23.42,45.82 24.23,45.82 25.04,45.82 25.85,45.80 26.66,45.80 27.47,45.77 28.28,45.77 29.09,45.74 29.90,45.71 30.71,45.68 31.52,45.66 32.33,45.60 33.14,45.57 33.95,45.49 34.75,45.41 35.56,45.32 36.37,45.18 37.18,45.02 37.99,44.82 38.80,44.60 39.61,44.29 40.42,43.99 41.23,43.63 42.04,43.21 42.85,42.71 43.66,42.07 44.47,41.35 45.28,40.38 46.09,39.32 46.90,38.26 47.71,36.87 48.52,35.82 49.33,34.79 50.14,34.04 50.95,33.01 51.76,32.23 52.57,31.51 53.38,30.90 54.19,30.26 55.00,29.51 55.81,28.95 56.61,28.26 57.42,27.73 58.23,27.26 59.04,26.92 59.85,26.67 60.66,26.26 61.47,25.98 62.28,25.62 63.09,25.34 63.90,25.09 64.71,24.78 65.52,24.45 66.33,24.26 67.14,23.81 67.95,23.67 68.76,23.59 69.57,23.34 70.38,23.20 71.19,22.95 72.00,22.73 72.81,22.56 73.62,22.26 74.43,22.14 75.24,21.95 76.05,21.87 76.86,21.50 77.67,21.45 78.47,21.39 79.28,21.06 80.09,20.95 " />
    <polyline
       id="polyline867"
       style="stroke:#53bcc2;stroke-width:0.43;stroke-linecap:butt;stroke-opacity:0.4"
       points="22.61,45.82 23.42,45.80 24.23,45.80 25.04,45.77 25.85,45.77 26.66,45.74 27.47,45.71 28.28,45.68 29.09,45.66 29.90,45.63 30.71,45.57 31.52,45.52 32.33,45.43 33.14,45.38 33.95,45.24 34.75,45.16 35.56,44.99 36.37,44.80 37.18,44.63 37.99,44.38 38.80,44.07 39.61,43.77 40.42,43.41 41.23,42.99 42.04,42.46 42.85,41.88 43.66,41.10 44.47,40.21 45.28,39.10 46.09,37.90 46.90,36.49 47.71,35.43 48.52,34.37 49.33,33.43 50.14,32.62 50.95,31.79 51.76,31.04 52.57,30.20 53.38,29.48 54.19,28.62 55.00,27.87 55.81,27.17 56.61,26.48 57.42,25.95 58.23,25.42 59.04,24.95 59.85,24.53 60.66,24.03 61.47,23.76 62.28,23.42 63.09,23.12 63.90,22.81 64.71,22.56 65.52,22.34 66.33,21.98 67.14,21.62 67.95,21.39 68.76,21.25 69.57,21.09 70.38,20.92 71.19,20.59 72.00,20.53 72.81,20.23 73.62,20.03 74.43,19.87 75.24,19.67 76.05,19.50 76.86,19.45 77.67,19.25 78.47,19.03 79.28,18.89 80.09,18.81 " />
    <polyline
       id="polyline869"
       style="stroke:#e98076;stroke-width:0.43;stroke-linecap:butt;stroke-opacity:0.4"
       points="22.61,45.74 23.42,45.77 24.23,45.74 25.04,45.74 25.85,45.74 26.66,45.71 27.47,45.71 28.28,45.71 29.09,45.68 29.90,45.66 30.71,45.63 31.52,45.60 32.33,45.60 33.14,45.52 33.95,45.49 34.75,45.43 35.56,45.38 36.37,45.27 37.18,45.16 37.99,45.02 38.80,44.91 39.61,44.68 40.42,44.46 41.23,44.21 42.04,43.96 42.85,43.71 43.66,43.27 44.47,42.65 45.28,41.88 46.09,40.93 46.90,39.85 47.71,38.40 48.52,36.82 49.33,35.35 50.14,34.18 50.95,33.21 51.76,32.32 52.57,31.62 53.38,30.93 54.19,30.12 55.00,29.37 55.81,28.59 56.61,27.87 57.42,27.23 58.23,26.59 59.04,26.17 59.85,25.59 60.66,25.03 61.47,24.67 62.28,24.31 63.09,23.84 63.90,23.53 64.71,23.26 65.52,22.95 66.33,22.67 67.14,22.37 67.95,22.01 68.76,21.87 69.57,21.78 70.38,21.39 71.19,21.23 72.00,21.06 72.81,20.78 73.62,20.64 74.43,20.48 75.24,20.34 76.05,20.12 76.86,19.98 77.67,19.84 78.47,19.61 79.28,19.50 80.09,19.42 " />
    <polyline
       id="polyline871"
       style="stroke:#e98076;stroke-width:0.43;stroke-linecap:butt;stroke-opacity:0.4"
       points="22.61,45.80 23.42,45.71 24.23,45.66 25.04,45.63 25.85,45.71 26.66,45.74 27.47,45.63 28.28,45.60 29.09,45.55 29.90,45.52 30.71,45.52 31.52,45.60 32.33,45.55 33.14,45.46 33.95,45.32 34.75,45.30 35.56,45.13 36.37,45.05 37.18,44.88 37.99,44.68 38.80,44.46 39.61,44.24 40.42,44.04 41.23,43.60 42.04,43.21 42.85,42.74 43.66,42.10 44.47,41.15 45.28,40.18 46.09,38.63 46.90,36.87 47.71,35.35 48.52,33.98 49.33,32.98 50.14,32.04 50.95,31.09 51.76,30.37 52.57,29.62 53.38,28.68 54.19,27.92 55.00,27.26 55.81,26.59 56.61,26.01 57.42,25.34 58.23,24.90 59.04,24.45 59.85,24.01 60.66,23.64 61.47,23.31 62.28,22.95 63.09,22.73 63.90,22.28 64.71,22.09 65.52,21.81 66.33,21.53 67.14,21.17 67.95,20.98 68.76,20.84 69.57,20.64 70.38,20.48 71.19,20.28 72.00,20.03 72.81,19.87 73.62,19.73 74.43,19.59 75.24,19.39 76.05,19.25 76.86,19.14 77.67,19.00 78.47,18.98 79.28,18.78 80.09,18.70 " />
    <polyline
       id="polyline873"
       style="stroke:#53bcc2;stroke-width:0.43;stroke-linecap:butt;stroke-opacity:0.4"
       points="22.61,45.66 23.42,45.66 24.23,45.66 25.04,45.66 25.85,45.63 26.66,45.63 27.47,45.63 28.28,45.60 29.09,45.57 29.90,45.57 30.71,45.55 31.52,45.52 32.33,45.49 33.14,45.43 33.95,45.38 34.75,45.32 35.56,45.21 36.37,45.10 37.18,44.99 37.99,44.82 38.80,44.66 39.61,44.41 40.42,44.13 41.23,43.79 42.04,43.38 42.85,42.93 43.66,42.32 44.47,41.65 45.28,40.79 46.09,39.74 46.90,38.71 47.71,37.35 48.52,36.01 49.33,34.98 50.14,33.90 50.95,33.18 51.76,32.34 52.57,31.70 53.38,31.04 54.19,30.43 55.00,29.65 55.81,28.87 56.61,28.20 57.42,27.62 58.23,27.09 59.04,26.65 59.85,26.23 60.66,25.76 61.47,25.45 62.28,25.01 63.09,24.76 63.90,24.26 64.71,23.98 65.52,23.76 66.33,23.39 67.14,23.14 67.95,22.87 68.76,22.67 69.57,22.42 70.38,22.26 71.19,22.01 72.00,21.78 72.81,21.53 73.62,21.25 74.43,21.14 75.24,20.87 76.05,20.73 76.86,20.45 77.67,20.42 78.47,20.23 79.28,20.12 80.09,19.98 " />
    <rect
       id="rect875"
       style="stroke-width:0.75"
       height="30.200001"
       width="63.23"
       y="17.049999"
       x="19.74" />
  </g>
  <g
     transform="translate(0,0.38655496)"
     id="g879"
     clip-path="url(#cpMC4wMHwxODAuMDB8MC4wMHwxNTguNDA=)" />
  <defs
     id="defs884">
    <clipPath
       id="cpMTkuNzR8ODIuOTd8NTUuMTd8ODUuMzg=">
      <rect
         id="rect881"
         height="30.200001"
         width="63.23"
         y="55.169998"
         x="19.74" />
    </clipPath>
  </defs>
  <g
     transform="translate(0,0.38655496)"
     id="g910"
     clip-path="url(#cpMTkuNzR8ODIuOTd8NTUuMTd8ODUuMzg=)">
    <rect
       id="rect886"
       style="fill:#ffffff;stroke:none;stroke-width:0.75"
       height="30.200001"
       width="63.23"
       y="55.169998"
       x="19.74" />
    <polyline
       id="polyline888"
       style="stroke:#53bcc2;stroke-width:1.07;stroke-linecap:butt"
       points="22.61,83.91 23.42,83.93 24.23,83.93 25.04,83.91 25.85,83.91 26.66,83.88 27.47,83.86 28.28,83.85 29.09,83.84 29.90,83.80 30.71,83.77 31.52,83.73 32.33,83.68 33.14,83.61 33.95,83.53 34.75,83.46 35.56,83.34 36.37,83.18 37.18,83.05 37.99,82.84 38.80,82.62 39.61,82.36 40.42,82.04 41.23,81.68 42.04,81.26 42.85,80.75 43.66,80.13 44.47,79.36 45.28,78.45 46.09,77.42 46.90,76.24 47.71,74.94 48.52,73.87 49.33,72.84 50.14,71.91 50.95,71.02 51.76,70.24 52.57,69.48 53.38,68.83 54.19,68.06 55.00,67.32 55.81,66.59 56.61,65.95 57.42,65.33 58.23,64.77 59.04,64.31 59.85,63.83 60.66,63.38 61.47,63.02 62.28,62.66 63.09,62.26 63.90,61.92 64.71,61.64 65.52,61.34 66.33,61.01 67.14,60.58 67.95,60.32 68.76,60.23 69.57,59.93 70.38,59.80 71.19,59.53 72.00,59.38 72.81,59.12 73.62,58.96 74.43,58.68 75.24,58.55 76.05,58.36 76.86,58.16 77.67,58.02 78.47,57.88 79.28,57.77 80.09,57.61 " />
    <polyline
       id="polyline890"
       style="stroke:#e98076;stroke-width:1.07;stroke-linecap:butt"
       points="22.61,83.90 23.42,83.91 24.23,83.91 25.04,83.89 25.85,83.88 26.66,83.86 27.47,83.84 28.28,83.82 29.09,83.80 29.90,83.77 30.71,83.76 31.52,83.73 32.33,83.70 33.14,83.64 33.95,83.59 34.75,83.54 35.56,83.42 36.37,83.33 37.18,83.11 37.99,82.96 38.80,82.76 39.61,82.52 40.42,82.23 41.23,81.88 42.04,81.52 42.85,81.05 43.66,80.39 44.47,79.64 45.28,78.72 46.09,77.52 46.90,76.03 47.71,74.72 48.52,73.37 49.33,72.08 50.14,71.11 50.95,70.23 51.76,69.45 52.57,68.77 53.38,68.07 54.19,67.30 55.00,66.61 55.81,65.91 56.61,65.28 57.42,64.66 58.23,64.21 59.04,63.67 59.85,63.22 60.66,62.73 61.47,62.40 62.28,62.01 63.09,61.69 63.90,61.30 64.71,61.02 65.52,60.75 66.33,60.41 67.14,59.97 67.95,59.75 68.76,59.60 69.57,59.32 70.38,59.09 71.19,58.89 72.00,58.68 72.81,58.48 73.62,58.27 74.43,58.14 75.24,57.98 76.05,57.82 76.86,57.66 77.67,57.54 78.47,57.42 79.28,57.30 80.09,57.14 " />
    <polyline
       id="polyline892"
       style="stroke:#53bcc2;stroke-width:0.43;stroke-linecap:butt;stroke-opacity:0.4"
       points="22.61,83.92 23.42,83.95 24.23,83.95 25.04,83.92 25.85,83.92 26.66,83.89 27.47,83.86 28.28,83.86 29.09,83.84 29.90,83.78 30.71,83.75 31.52,83.70 32.33,83.64 33.14,83.56 33.95,83.48 34.75,83.39 35.56,83.25 36.37,83.09 37.18,82.92 37.99,82.73 38.80,82.48 39.61,82.20 40.42,81.86 41.23,81.50 42.04,81.06 42.85,80.56 43.66,79.89 44.47,79.11 45.28,78.14 46.09,77.11 46.90,76.00 47.71,74.58 48.52,73.53 49.33,72.61 50.14,71.69 50.95,70.83 51.76,70.08 52.57,69.27 53.38,68.61 54.19,67.83 55.00,67.08 55.81,66.33 56.61,65.63 57.42,64.94 58.23,64.47 59.04,63.85 59.85,63.47 60.66,62.96 61.47,62.71 62.28,62.33 63.09,62.02 63.90,61.74 64.71,61.44 65.52,61.19 66.33,60.88 67.14,60.46 67.95,60.13 68.76,60.10 69.57,59.85 70.38,59.69 71.19,59.38 72.00,59.27 72.81,59.05 73.62,58.93 74.43,58.71 75.24,58.57 76.05,58.41 76.86,58.32 77.67,58.13 78.47,57.99 79.28,57.82 80.09,57.68 " />
    <polyline
       id="polyline894"
       style="stroke:#e98076;stroke-width:0.43;stroke-linecap:butt;stroke-opacity:0.4"
       points="22.61,83.89 23.42,83.89 24.23,83.89 25.04,83.86 25.85,83.86 26.66,83.86 27.47,83.84 28.28,83.84 29.09,83.81 29.90,83.81 30.71,83.81 31.52,83.75 32.33,83.75 33.14,83.73 33.95,83.67 34.75,83.61 35.56,83.53 36.37,83.42 37.18,83.31 37.99,83.14 38.80,83.03 39.61,82.81 40.42,82.56 41.23,82.34 42.04,82.00 42.85,81.64 43.66,81.14 44.47,80.64 45.28,80.06 46.09,79.14 46.90,78.17 47.71,76.69 48.52,75.25 49.33,73.58 50.14,72.55 50.95,71.47 51.76,70.47 52.57,69.83 53.38,69.19 54.19,68.47 55.00,67.86 55.81,67.08 56.61,66.36 57.42,65.74 58.23,65.27 59.04,64.55 59.85,64.08 60.66,63.58 61.47,63.24 62.28,62.71 63.09,62.41 63.90,62.05 64.71,61.63 65.52,61.44 66.33,60.99 67.14,60.69 67.95,60.38 68.76,60.30 69.57,59.91 70.38,59.74 71.19,59.44 72.00,59.19 72.81,59.02 73.62,58.85 74.43,58.71 75.24,58.55 76.05,58.41 76.86,58.21 77.67,57.99 78.47,57.99 79.28,57.80 80.09,57.63 " />
    <polyline
       id="polyline896"
       style="stroke:#e98076;stroke-width:0.43;stroke-linecap:butt;stroke-opacity:0.4"
       points="22.61,83.89 23.42,83.92 24.23,83.89 25.04,83.89 25.85,83.86 26.66,83.84 27.47,83.84 28.28,83.81 29.09,83.75 29.90,83.70 30.71,83.67 31.52,83.67 32.33,83.64 33.14,83.50 33.95,83.50 34.75,83.48 35.56,83.28 36.37,83.25 37.18,82.92 37.99,82.81 38.80,82.59 39.61,82.31 40.42,81.98 41.23,81.42 42.04,81.17 42.85,80.61 43.66,79.78 44.47,78.92 45.28,77.92 46.09,76.42 46.90,74.47 47.71,73.30 48.52,71.72 49.33,70.64 50.14,69.66 50.95,68.88 51.76,68.11 52.57,67.27 53.38,66.49 54.19,65.74 55.00,64.99 55.81,64.38 56.61,63.83 57.42,63.16 58.23,62.74 59.04,62.30 59.85,61.83 60.66,61.46 61.47,61.16 62.28,60.82 63.09,60.63 63.90,60.27 64.71,59.99 65.52,59.71 66.33,59.55 67.14,59.10 67.95,58.93 68.76,58.77 69.57,58.60 70.38,58.43 71.19,58.32 72.00,58.13 72.81,57.96 73.62,57.74 74.43,57.57 75.24,57.49 76.05,57.35 76.86,57.24 77.67,57.16 78.47,57.05 79.28,56.96 80.09,56.82 " />
    <polyline
       id="polyline898"
       style="stroke:#53bcc2;stroke-width:0.43;stroke-linecap:butt;stroke-opacity:0.4"
       points="22.61,83.98 23.42,83.98 24.23,83.98 25.04,83.95 25.85,83.95 26.66,83.92 27.47,83.92 28.28,83.89 29.09,83.89 29.90,83.86 30.71,83.86 31.52,83.84 32.33,83.78 33.14,83.73 33.95,83.67 34.75,83.61 35.56,83.53 36.37,83.39 37.18,83.28 37.99,83.09 38.80,82.89 39.61,82.67 40.42,82.39 41.23,82.03 42.04,81.70 42.85,81.28 43.66,80.78 44.47,80.17 45.28,79.47 46.09,78.58 46.90,77.56 47.71,76.44 48.52,75.11 49.33,74.00 50.14,73.05 50.95,72.11 51.76,71.27 52.57,70.55 53.38,69.83 54.19,69.19 55.00,68.52 55.81,67.80 56.61,67.08 57.42,66.44 58.23,65.74 59.04,65.30 59.85,64.91 60.66,64.44 61.47,64.02 62.28,63.63 63.09,63.24 63.90,62.91 64.71,62.63 65.52,62.35 66.33,61.96 67.14,61.58 67.95,61.33 68.76,61.13 69.57,60.82 70.38,60.80 71.19,60.41 72.00,60.35 72.81,60.05 73.62,59.91 74.43,59.52 75.24,59.60 76.05,59.32 76.86,59.16 77.67,58.96 78.47,58.80 79.28,58.68 80.09,58.43 " />
    <polyline
       id="polyline900"
       style="stroke:#53bcc2;stroke-width:0.43;stroke-linecap:butt;stroke-opacity:0.4"
       points="22.61,83.89 23.42,83.92 24.23,83.92 25.04,83.89 25.85,83.89 26.66,83.86 27.47,83.84 28.28,83.84 29.09,83.81 29.90,83.75 30.71,83.73 31.52,83.67 32.33,83.61 33.14,83.53 33.95,83.45 34.75,83.34 35.56,83.23 36.37,83.09 37.18,82.92 37.99,82.70 38.80,82.48 39.61,82.20 40.42,81.89 41.23,81.53 42.04,81.09 42.85,80.59 43.66,79.95 44.47,79.20 45.28,78.25 46.09,77.25 46.90,76.06 47.71,74.58 48.52,73.69 49.33,72.72 50.14,71.72 50.95,70.83 51.76,70.02 52.57,69.25 53.38,68.63 54.19,67.83 55.00,67.02 55.81,66.27 56.61,65.63 57.42,65.05 58.23,64.47 59.04,64.02 59.85,63.52 60.66,62.99 61.47,62.60 62.28,62.24 63.09,61.80 63.90,61.44 64.71,61.13 65.52,60.91 66.33,60.52 67.14,60.10 67.95,59.82 68.76,59.82 69.57,59.46 70.38,59.32 71.19,59.07 72.00,58.88 72.81,58.63 73.62,58.41 74.43,58.16 75.24,57.99 76.05,57.85 76.86,57.60 77.67,57.52 78.47,57.38 79.28,57.32 80.09,57.18 " />
    <polyline
       id="polyline902"
       style="stroke:#e98076;stroke-width:0.43;stroke-linecap:butt;stroke-opacity:0.4"
       points="22.61,83.92 23.42,83.89 24.23,83.92 25.04,83.89 25.85,83.89 26.66,83.86 27.47,83.86 28.28,83.84 29.09,83.84 29.90,83.81 30.71,83.81 31.52,83.78 32.33,83.75 33.14,83.70 33.95,83.64 34.75,83.61 35.56,83.53 36.37,83.45 37.18,83.25 37.99,83.11 38.80,82.95 39.61,82.70 40.42,82.42 41.23,82.11 42.04,81.64 42.85,81.17 43.66,80.53 44.47,79.75 45.28,78.81 46.09,77.64 46.90,76.22 47.71,74.89 48.52,73.78 49.33,72.58 50.14,71.61 50.95,70.75 51.76,70.14 52.57,69.61 53.38,68.97 54.19,68.19 55.00,67.41 55.81,66.63 56.61,66.08 57.42,65.36 58.23,65.02 59.04,64.47 59.85,64.10 60.66,63.47 61.47,63.16 62.28,62.83 63.09,62.46 63.90,61.96 64.71,61.80 65.52,61.46 66.33,61.08 67.14,60.55 67.95,60.32 68.76,60.05 69.57,59.80 70.38,59.46 71.19,59.24 72.00,59.05 72.81,58.80 73.62,58.57 74.43,58.46 75.24,58.30 76.05,58.07 76.86,57.85 77.67,57.80 78.47,57.60 79.28,57.49 80.09,57.32 " />
    <polyline
       id="polyline904"
       style="stroke:#e98076;stroke-width:0.43;stroke-linecap:butt;stroke-opacity:0.4"
       points="22.61,83.89 23.42,83.92 24.23,83.92 25.04,83.89 25.85,83.89 26.66,83.86 27.47,83.84 28.28,83.81 29.09,83.81 29.90,83.78 30.71,83.75 31.52,83.70 32.33,83.64 33.14,83.61 33.95,83.53 34.75,83.45 35.56,83.34 36.37,83.20 37.18,82.98 37.99,82.78 38.80,82.48 39.61,82.25 40.42,81.98 41.23,81.64 42.04,81.28 42.85,80.78 43.66,80.11 44.47,79.25 45.28,78.11 46.09,76.89 46.90,75.25 47.71,74.00 48.52,72.72 49.33,71.53 50.14,70.61 50.95,69.83 51.76,69.08 52.57,68.38 53.38,67.63 54.19,66.80 55.00,66.19 55.81,65.55 56.61,64.85 57.42,64.38 58.23,63.80 59.04,63.35 59.85,62.85 60.66,62.41 61.47,62.02 62.28,61.66 63.09,61.27 63.90,60.94 64.71,60.66 65.52,60.38 66.33,60.02 67.14,59.55 67.95,59.38 68.76,59.27 69.57,58.96 70.38,58.71 71.19,58.55 72.00,58.38 72.81,58.16 73.62,57.91 74.43,57.80 75.24,57.57 76.05,57.43 76.86,57.32 77.67,57.21 78.47,57.05 79.28,56.93 80.09,56.79 " />
    <polyline
       id="polyline906"
       style="stroke:#53bcc2;stroke-width:0.43;stroke-linecap:butt;stroke-opacity:0.4"
       points="22.61,83.86 23.42,83.89 24.23,83.89 25.04,83.86 25.85,83.86 26.66,83.84 27.47,83.81 28.28,83.81 29.09,83.81 29.90,83.78 30.71,83.75 31.52,83.73 32.33,83.70 33.14,83.61 33.95,83.53 34.75,83.48 35.56,83.34 36.37,83.17 37.18,83.09 37.99,82.84 38.80,82.64 39.61,82.36 40.42,82.00 41.23,81.67 42.04,81.20 42.85,80.59 43.66,79.89 44.47,78.97 45.28,77.95 46.09,76.75 46.90,75.36 47.71,74.14 48.52,73.16 49.33,72.03 50.14,71.19 50.95,70.33 51.76,69.58 52.57,68.86 53.38,68.25 54.19,67.41 55.00,66.66 55.81,65.97 56.61,65.47 57.42,64.88 58.23,64.41 59.04,64.05 59.85,63.41 60.66,63.13 61.47,62.74 62.28,62.44 63.09,61.96 63.90,61.58 64.71,61.35 65.52,60.91 66.33,60.66 67.14,60.19 67.95,60.02 68.76,59.88 69.57,59.57 70.38,59.41 71.19,59.27 72.00,59.02 72.81,58.77 73.62,58.57 74.43,58.35 75.24,58.02 76.05,57.85 76.86,57.55 77.67,57.49 78.47,57.35 79.28,57.24 80.09,57.16 " />
    <rect
       id="rect908"
       style="stroke-width:0.75"
       height="30.200001"
       width="63.23"
       y="55.169998"
       x="19.74" />
  </g>
  <g
     transform="translate(0,0.38655496)"
     id="g912"
     clip-path="url(#cpMC4wMHwxODAuMDB8MC4wMHwxNTguNDA=)" />
  <defs
     id="defs917">
    <clipPath
       id="cpMTkuNzR8ODIuOTd8OTMuMzB8MTIzLjUw">
      <rect
         id="rect914"
         height="30.200001"
         width="63.23"
         y="93.300003"
         x="19.74" />
    </clipPath>
  </defs>
  <g
     transform="translate(0,0.38655496)"
     id="g943"
     clip-path="url(#cpMTkuNzR8ODIuOTd8OTMuMzB8MTIzLjUw)">
    <rect
       id="rect919"
       style="fill:#ffffff;stroke:none;stroke-width:0.75"
       height="30.200001"
       width="63.23"
       y="93.300003"
       x="19.74" />
    <polyline
       id="polyline921"
       style="stroke:#53bcc2;stroke-width:1.07;stroke-linecap:butt"
       points="22.61,122.08 23.42,122.07 24.23,122.07 25.04,122.05 25.85,122.06 26.66,122.02 27.47,122.02 28.28,122.00 29.09,121.98 29.90,121.96 30.71,121.93 31.52,121.90 32.33,121.86 33.14,121.80 33.95,121.73 34.75,121.65 35.56,121.55 36.37,121.41 37.18,121.28 37.99,121.09 38.80,120.88 39.61,120.65 40.42,120.34 41.23,120.03 42.04,119.66 42.85,119.23 43.66,118.70 44.47,118.06 45.28,117.26 46.09,116.31 46.90,115.19 47.71,114.06 48.52,112.87 49.33,111.80 50.14,110.76 50.95,109.92 51.76,109.00 52.57,108.31 53.38,107.64 54.19,106.90 55.00,106.25 55.81,105.50 56.61,104.79 57.42,104.20 58.23,103.62 59.04,103.01 59.85,102.60 60.66,102.14 61.47,101.78 62.28,101.31 63.09,100.95 63.90,100.54 64.71,100.21 65.52,99.92 66.33,99.57 67.14,99.20 67.95,99.01 68.76,98.79 69.57,98.55 70.38,98.27 71.19,98.07 72.00,97.85 72.81,97.64 73.62,97.46 74.43,97.30 75.24,97.07 76.05,96.95 76.86,96.73 77.67,96.57 78.47,96.40 79.28,96.25 80.09,96.17 " />
    <polyline
       id="polyline923"
       style="stroke:#e98076;stroke-width:1.07;stroke-linecap:butt"
       points="22.61,122.04 23.42,122.05 24.23,122.04 25.04,122.03 25.85,122.02 26.66,121.99 27.47,121.98 28.28,121.96 29.09,121.94 29.90,121.93 30.71,121.91 31.52,121.87 32.33,121.82 33.14,121.77 33.95,121.67 34.75,121.61 35.56,121.51 36.37,121.39 37.18,121.22 37.99,121.05 38.80,120.84 39.61,120.60 40.42,120.37 41.23,120.07 42.04,119.79 42.85,119.25 43.66,118.68 44.47,117.98 45.28,117.08 46.09,115.91 46.90,114.60 47.71,113.15 48.52,111.95 49.33,110.67 50.14,109.59 50.95,108.74 51.76,108.00 52.57,107.23 53.38,106.52 54.19,105.68 55.00,105.01 55.81,104.25 56.61,103.64 57.42,103.04 58.23,102.51 59.04,102.03 59.85,101.55 60.66,101.06 61.47,100.79 62.28,100.30 63.09,100.02 63.90,99.62 64.71,99.36 65.52,99.11 66.33,98.73 67.14,98.41 67.95,98.16 68.76,98.06 69.57,97.83 70.38,97.58 71.19,97.34 72.00,97.16 72.81,96.91 73.62,96.78 74.43,96.56 75.24,96.40 76.05,96.21 76.86,96.08 77.67,95.93 78.47,95.83 79.28,95.64 80.09,95.53 " />
    <polyline
       id="polyline925"
       style="stroke:#53bcc2;stroke-width:0.43;stroke-linecap:butt;stroke-opacity:0.4"
       points="22.61,122.13 23.42,122.07 24.23,122.07 25.04,122.07 25.85,122.07 26.66,122.05 27.47,122.02 28.28,122.02 29.09,121.99 29.90,121.96 30.71,121.93 31.52,121.88 32.33,121.85 33.14,121.80 33.95,121.71 34.75,121.63 35.56,121.55 36.37,121.41 37.18,121.30 37.99,121.13 38.80,120.91 39.61,120.68 40.42,120.43 41.23,120.13 42.04,119.79 42.85,119.41 43.66,118.93 44.47,118.35 45.28,117.65 46.09,116.85 46.90,115.88 47.71,114.85 48.52,113.60 49.33,112.51 50.14,111.46 50.95,110.65 51.76,109.57 52.57,108.84 53.38,108.12 54.19,107.40 55.00,106.73 55.81,105.84 56.61,105.12 57.42,104.43 58.23,103.79 59.04,103.01 59.85,102.70 60.66,102.09 61.47,101.67 62.28,101.26 63.09,100.84 63.90,100.48 64.71,100.14 65.52,99.78 66.33,99.48 67.14,99.03 67.95,98.89 68.76,98.64 69.57,98.39 70.38,98.14 71.19,97.98 72.00,97.73 72.81,97.56 73.62,97.37 74.43,97.37 75.24,97.09 76.05,97.00 76.86,96.75 77.67,96.70 78.47,96.45 79.28,96.31 80.09,96.17 " />
    <polyline
       id="polyline927"
       style="stroke:#e98076;stroke-width:0.43;stroke-linecap:butt;stroke-opacity:0.4"
       points="22.61,122.05 23.42,122.07 24.23,122.05 25.04,122.05 25.85,122.05 26.66,122.02 27.47,121.99 28.28,121.99 29.09,121.99 29.90,121.99 30.71,121.96 31.52,121.93 32.33,121.88 33.14,121.85 33.95,121.77 34.75,121.77 35.56,121.68 36.37,121.60 37.18,121.49 37.99,121.35 38.80,121.21 39.61,121.02 40.42,120.85 41.23,120.57 42.04,120.41 42.85,119.96 43.66,119.52 44.47,118.99 45.28,118.52 46.09,117.93 46.90,116.85 47.71,115.40 48.52,114.07 49.33,112.48 50.14,111.35 50.95,110.34 51.76,109.43 52.57,108.57 53.38,107.90 54.19,107.12 55.00,106.43 55.81,105.59 56.61,104.95 57.42,104.31 58.23,103.70 59.04,103.15 59.85,102.65 60.66,102.06 61.47,101.87 62.28,101.37 63.09,100.95 63.90,100.59 64.71,100.26 65.52,100.09 66.33,99.67 67.14,99.34 67.95,99.03 68.76,98.95 69.57,98.76 70.38,98.42 71.19,98.26 72.00,98.03 72.81,97.78 73.62,97.64 74.43,97.39 75.24,97.23 76.05,97.03 76.86,96.87 77.67,96.73 78.47,96.73 79.28,96.37 80.09,96.31 " />
    <polyline
       id="polyline929"
       style="stroke:#e98076;stroke-width:0.43;stroke-linecap:butt;stroke-opacity:0.4"
       points="22.61,122.05 23.42,122.02 24.23,122.02 25.04,122.02 25.85,121.99 26.66,121.96 27.47,121.96 28.28,121.93 29.09,121.91 29.90,121.91 30.71,121.85 31.52,121.82 32.33,121.80 33.14,121.74 33.95,121.60 34.75,121.52 35.56,121.41 36.37,121.27 37.18,121.04 37.99,120.85 38.80,120.60 39.61,120.32 40.42,120.07 41.23,119.79 42.04,119.54 42.85,118.96 43.66,118.40 44.47,117.63 45.28,116.71 46.09,115.21 46.90,113.79 47.71,112.12 48.52,111.01 49.33,109.87 50.14,108.79 50.95,108.01 51.76,107.29 52.57,106.48 53.38,105.79 54.19,104.84 55.00,104.20 55.81,103.51 56.61,102.87 57.42,102.31 58.23,101.84 59.04,101.37 59.85,100.90 60.66,100.53 61.47,100.31 62.28,99.70 63.09,99.56 63.90,99.20 64.71,98.95 65.52,98.73 66.33,98.31 67.14,98.14 67.95,97.84 68.76,97.78 69.57,97.53 70.38,97.31 71.19,97.03 72.00,96.87 72.81,96.67 73.62,96.62 74.43,96.34 75.24,96.23 76.05,96.03 76.86,95.98 77.67,95.84 78.47,95.75 79.28,95.61 80.09,95.53 " />
    <polyline
       id="polyline931"
       style="stroke:#53bcc2;stroke-width:0.43;stroke-linecap:butt;stroke-opacity:0.4"
       points="22.61,122.07 23.42,122.10 24.23,122.07 25.04,122.07 25.85,122.07 26.66,122.05 27.47,122.05 28.28,122.05 29.09,122.02 29.90,121.99 30.71,121.99 31.52,121.96 32.33,121.93 33.14,121.88 33.95,121.82 34.75,121.77 35.56,121.68 36.37,121.55 37.18,121.46 37.99,121.30 38.80,121.10 39.61,120.91 40.42,120.60 41.23,120.32 42.04,120.02 42.85,119.66 43.66,119.21 44.47,118.68 45.28,118.02 46.09,117.18 46.90,116.21 47.71,115.18 48.52,113.87 49.33,112.82 50.14,111.79 50.95,110.87 51.76,109.96 52.57,109.18 53.38,108.57 54.19,107.93 55.00,107.32 55.81,106.70 56.61,105.93 57.42,105.34 58.23,104.76 59.04,104.15 59.85,103.65 60.66,103.26 61.47,102.98 62.28,102.34 63.09,102.09 63.90,101.62 64.71,101.31 65.52,101.09 66.33,100.67 67.14,100.40 67.95,100.17 68.76,99.95 69.57,99.78 70.38,99.39 71.19,99.23 72.00,99.01 72.81,98.73 73.62,98.67 74.43,98.39 75.24,98.09 76.05,97.98 76.86,97.64 77.67,97.42 78.47,97.28 79.28,97.12 80.09,97.09 " />
    <polyline
       id="polyline933"
       style="stroke:#53bcc2;stroke-width:0.43;stroke-linecap:butt;stroke-opacity:0.4"
       points="22.61,122.05 23.42,122.05 24.23,122.05 25.04,122.02 25.85,122.05 26.66,121.99 27.47,121.99 28.28,121.96 29.09,121.93 29.90,121.91 30.71,121.85 31.52,121.82 32.33,121.77 33.14,121.66 33.95,121.57 34.75,121.46 35.56,121.32 36.37,121.16 37.18,120.96 37.99,120.74 38.80,120.46 39.61,120.18 40.42,119.82 41.23,119.43 42.04,118.96 42.85,118.40 43.66,117.71 44.47,116.93 45.28,115.96 46.09,114.85 46.90,113.37 47.71,112.26 48.52,111.29 49.33,110.15 50.14,109.26 50.95,108.45 51.76,107.68 52.57,107.01 53.38,106.31 54.19,105.45 55.00,104.79 55.81,104.04 56.61,103.34 57.42,102.87 58.23,102.31 59.04,101.87 59.85,101.40 60.66,101.01 61.47,100.67 62.28,100.20 63.09,99.81 63.90,99.42 64.71,99.14 65.52,98.70 66.33,98.51 67.14,98.06 67.95,97.95 68.76,97.70 69.57,97.48 70.38,97.20 71.19,97.03 72.00,96.78 72.81,96.64 73.62,96.39 74.43,96.23 75.24,96.03 76.05,95.95 76.86,95.78 77.67,95.64 78.47,95.48 79.28,95.36 80.09,95.25 " />
    <polyline
       id="polyline935"
       style="stroke:#e98076;stroke-width:0.43;stroke-linecap:butt;stroke-opacity:0.4"
       points="22.61,122.02 23.42,122.05 24.23,122.05 25.04,122.05 25.85,122.02 26.66,121.99 27.47,121.99 28.28,121.96 29.09,121.93 29.90,121.91 30.71,121.93 31.52,121.88 32.33,121.85 33.14,121.80 33.95,121.68 34.75,121.63 35.56,121.52 36.37,121.41 37.18,121.27 37.99,121.16 38.80,120.93 39.61,120.71 40.42,120.46 41.23,120.16 42.04,119.79 42.85,119.24 43.66,118.49 44.47,117.79 45.28,116.65 46.09,115.43 46.90,114.10 47.71,112.82 48.52,111.60 49.33,110.51 50.14,109.40 50.95,108.57 51.76,107.84 52.57,107.12 53.38,106.40 54.19,105.68 55.00,104.98 55.81,104.23 56.61,103.65 57.42,103.01 58.23,102.56 59.04,102.09 59.85,101.67 60.66,101.17 61.47,100.78 62.28,100.45 63.09,100.12 63.90,99.76 64.71,99.51 65.52,99.17 66.33,98.89 67.14,98.51 67.95,98.37 68.76,98.20 69.57,98.00 70.38,97.75 71.19,97.53 72.00,97.37 72.81,97.09 73.62,96.95 74.43,96.75 75.24,96.56 76.05,96.34 76.86,96.20 77.67,96.09 78.47,95.89 79.28,95.78 80.09,95.61 " />
    <polyline
       id="polyline937"
       style="stroke:#e98076;stroke-width:0.43;stroke-linecap:butt;stroke-opacity:0.4"
       points="22.61,122.05 23.42,122.05 24.23,122.05 25.04,122.02 25.85,122.02 26.66,121.99 27.47,121.99 28.28,121.96 29.09,121.93 29.90,121.91 30.71,121.88 31.52,121.85 32.33,121.77 33.14,121.71 33.95,121.63 34.75,121.55 35.56,121.43 36.37,121.27 37.18,121.07 37.99,120.85 38.80,120.63 39.61,120.35 40.42,120.10 41.23,119.74 42.04,119.43 42.85,118.85 43.66,118.29 44.47,117.52 45.28,116.46 46.09,115.07 46.90,113.68 47.71,112.26 48.52,111.12 49.33,109.82 50.14,108.84 50.95,108.04 51.76,107.43 52.57,106.76 53.38,105.98 54.19,105.06 55.00,104.43 55.81,103.67 56.61,103.09 57.42,102.51 58.23,101.92 59.04,101.51 59.85,100.98 60.66,100.48 61.47,100.20 62.28,99.70 63.09,99.45 63.90,98.95 64.71,98.73 65.52,98.45 66.33,98.06 67.14,97.67 67.95,97.39 68.76,97.31 69.57,97.03 70.38,96.84 71.19,96.56 72.00,96.37 72.81,96.12 73.62,95.89 74.43,95.75 75.24,95.59 76.05,95.42 76.86,95.28 77.67,95.09 78.47,94.95 79.28,94.81 80.09,94.67 " />
    <polyline
       id="polyline939"
       style="stroke:#53bcc2;stroke-width:0.43;stroke-linecap:butt;stroke-opacity:0.4"
       points="22.61,122.07 23.42,122.07 24.23,122.07 25.04,122.05 25.85,122.05 26.66,122.02 27.47,122.02 28.28,121.99 29.09,121.99 29.90,121.96 30.71,121.96 31.52,121.93 32.33,121.91 33.14,121.85 33.95,121.80 34.75,121.74 35.56,121.66 36.37,121.52 37.18,121.41 37.99,121.21 38.80,121.04 39.61,120.82 40.42,120.52 41.23,120.24 42.04,119.88 42.85,119.46 43.66,118.93 44.47,118.27 45.28,117.40 46.09,116.38 46.90,115.29 47.71,113.96 48.52,112.71 49.33,111.71 50.14,110.54 50.95,109.71 51.76,108.82 52.57,108.20 53.38,107.54 54.19,106.82 55.00,106.18 55.81,105.43 56.61,104.76 57.42,104.17 58.23,103.62 59.04,103.01 59.85,102.65 60.66,102.20 61.47,101.81 62.28,101.42 63.09,101.06 63.90,100.65 64.71,100.26 65.52,100.09 66.33,99.62 67.14,99.31 67.95,99.01 68.76,98.87 69.57,98.56 70.38,98.34 71.19,98.06 72.00,97.87 72.81,97.64 73.62,97.42 74.43,97.23 75.24,97.06 76.05,96.87 76.86,96.73 77.67,96.50 78.47,96.39 79.28,96.23 80.09,96.17 " />
    <rect
       id="rect941"
       style="stroke-width:0.75"
       height="30.200001"
       width="63.23"
       y="93.300003"
       x="19.74" />
  </g>
  <g
     transform="translate(0,0.38655496)"
     id="g945"
     clip-path="url(#cpMC4wMHwxODAuMDB8MC4wMHwxNTguNDA=)" />
  <defs
     id="defs950">
    <clipPath
       id="cpODUuODV8MTQ5LjA4fDE3LjA1fDQ3LjI1">
      <rect
         id="rect947"
         height="30.200001"
         width="63.23"
         y="17.049999"
         x="85.849998" />
    </clipPath>
  </defs>
  <g
     transform="translate(0,0.38655496)"
     id="g976"
     clip-path="url(#cpODUuODV8MTQ5LjA4fDE3LjA1fDQ3LjI1)">
    <rect
       id="rect952"
       style="fill:#ffffff;stroke:none;stroke-width:0.75"
       height="30.200001"
       width="63.23"
       y="17.049999"
       x="85.849998" />
    <polyline
       id="polyline954"
       style="stroke:#53bcc2;stroke-width:1.07;stroke-linecap:butt"
       points="88.72,45.78 89.53,45.76 90.34,45.76 91.15,45.75 91.96,45.74 92.77,45.77 93.58,45.75 94.39,45.72 95.20,45.69 96.01,45.66 96.82,45.61 97.63,45.57 98.44,45.52 99.25,45.43 100.06,45.32 100.87,45.22 101.68,45.06 102.49,44.88 103.30,44.67 104.11,44.40 104.91,44.13 105.72,43.77 106.53,43.38 107.34,42.93 108.15,42.36 108.96,41.65 109.77,40.85 110.58,39.88 111.39,38.76 112.20,37.58 113.01,36.30 113.82,35.23 114.63,34.37 115.44,33.39 116.25,32.63 117.06,31.84 117.87,31.15 118.68,30.50 119.49,29.73 120.30,28.95 121.11,28.32 121.92,27.70 122.73,27.12 123.54,26.63 124.35,26.19 125.16,25.81 125.97,25.40 126.78,25.05 127.58,24.78 128.39,24.40 129.20,24.17 130.01,23.85 130.82,23.58 131.63,23.37 132.44,23.05 133.25,22.76 134.06,22.48 134.87,22.42 135.68,22.16 136.49,21.99 137.30,21.79 138.11,21.58 138.92,21.36 139.73,21.18 140.54,21.00 141.35,20.87 142.16,20.69 142.97,20.55 143.78,20.41 144.59,20.27 145.40,20.11 146.21,20.00 " />
    <polyline
       id="polyline956"
       style="stroke:#e98076;stroke-width:1.07;stroke-linecap:butt"
       points="88.72,45.75 89.53,45.73 90.34,45.69 91.15,45.68 91.96,45.73 92.77,45.71 93.58,45.71 94.39,45.68 95.20,45.68 96.01,45.64 96.82,45.60 97.63,45.56 98.44,45.49 99.25,45.42 100.06,45.28 100.87,45.20 101.68,45.07 102.49,44.95 103.30,44.74 104.11,44.52 104.91,44.29 105.72,44.00 106.53,43.75 107.34,43.28 108.15,42.78 108.96,42.21 109.77,41.35 110.58,40.50 111.39,39.31 112.20,37.99 113.01,36.62 113.82,35.44 114.63,34.27 115.44,33.30 116.25,32.41 117.06,31.66 117.87,30.90 118.68,30.26 119.49,29.56 120.30,28.83 121.11,28.20 121.92,27.56 122.73,27.06 123.54,26.48 124.35,26.04 125.16,25.61 125.97,25.23 126.78,24.76 127.58,24.48 128.39,24.12 129.20,23.85 130.01,23.48 130.82,23.21 131.63,22.94 132.44,22.64 133.25,22.30 134.06,22.04 134.87,21.89 135.68,21.69 136.49,21.39 137.30,21.25 138.11,21.03 138.92,20.89 139.73,20.67 140.54,20.56 141.35,20.31 142.16,20.17 142.97,20.00 143.78,19.86 144.59,19.68 145.40,19.57 146.21,19.46 " />
    <polyline
       id="polyline958"
       style="stroke:#e98076;stroke-width:0.43;stroke-linecap:butt;stroke-opacity:0.4"
       points="88.72,45.82 89.53,45.77 90.34,45.80 91.15,45.80 91.96,45.80 92.77,45.77 93.58,45.74 94.39,45.71 95.20,45.68 96.01,45.66 96.82,45.63 97.63,45.57 98.44,45.49 99.25,45.43 100.06,45.30 100.87,45.21 101.68,45.07 102.49,44.91 103.30,44.71 104.11,44.49 104.91,44.27 105.72,43.96 106.53,43.60 107.34,43.24 108.15,42.65 108.96,41.96 109.77,41.24 110.58,40.26 111.39,39.07 112.20,37.85 113.01,36.76 113.82,35.76 114.63,34.90 115.44,33.98 116.25,33.18 117.06,32.51 117.87,31.87 118.68,31.34 119.49,30.82 120.30,30.18 121.11,29.62 121.92,29.06 122.73,28.54 123.54,27.98 124.35,27.45 125.16,27.01 125.97,26.59 126.78,26.06 127.58,25.78 128.39,25.42 129.20,25.28 130.01,24.73 130.82,24.51 131.63,24.28 132.44,23.89 133.25,23.53 134.06,23.28 134.87,23.17 135.68,22.92 136.49,22.64 137.30,22.51 138.11,22.17 138.92,21.98 139.73,21.78 140.54,21.78 141.35,21.45 142.16,21.37 142.97,21.25 143.78,21.09 144.59,20.84 145.40,20.56 146.21,20.45 " />
    <polyline
       id="polyline960"
       style="stroke:#53bcc2;stroke-width:0.43;stroke-linecap:butt;stroke-opacity:0.4"
       points="88.72,45.80 89.53,45.80 90.34,45.82 91.15,45.80 91.96,45.80 92.77,45.77 93.58,45.74 94.39,45.71 95.20,45.68 96.01,45.66 96.82,45.63 97.63,45.57 98.44,45.52 99.25,45.43 100.06,45.32 100.87,45.21 101.68,45.07 102.49,44.88 103.30,44.68 104.11,44.41 104.91,44.13 105.72,43.74 106.53,43.35 107.34,42.88 108.15,42.32 108.96,41.63 109.77,40.79 110.58,39.82 111.39,38.79 112.20,37.74 113.01,36.43 113.82,35.32 114.63,34.43 115.44,33.37 116.25,32.65 117.06,31.82 117.87,31.04 118.68,30.37 119.49,29.43 120.30,28.62 121.11,28.04 121.92,27.37 122.73,26.79 123.54,26.31 124.35,25.84 125.16,25.45 125.97,25.12 126.78,24.70 127.58,24.45 128.39,24.17 129.20,23.87 130.01,23.62 130.82,23.45 131.63,23.23 132.44,22.87 133.25,22.67 134.06,22.37 134.87,22.31 135.68,22.09 136.49,21.95 137.30,21.75 138.11,21.59 138.92,21.39 139.73,21.20 140.54,21.06 141.35,20.95 142.16,20.81 142.97,20.67 143.78,20.53 144.59,20.45 145.40,20.31 146.21,20.14 " />
    <polyline
       id="polyline962"
       style="stroke:#e98076;stroke-width:0.43;stroke-linecap:butt;stroke-opacity:0.4"
       points="88.72,45.77 89.53,45.77 90.34,45.77 91.15,45.74 91.96,45.74 92.77,45.71 93.58,45.71 94.39,45.71 95.20,45.71 96.01,45.68 96.82,45.52 97.63,45.52 98.44,45.43 99.25,45.35 100.06,45.21 100.87,45.13 101.68,45.02 102.49,44.82 103.30,44.60 104.11,44.27 104.91,44.07 105.72,43.71 106.53,43.74 107.34,42.93 108.15,42.40 108.96,41.99 109.77,41.04 110.58,40.21 111.39,38.93 112.20,37.82 113.01,36.26 113.82,35.21 114.63,33.79 115.44,32.73 116.25,31.76 117.06,31.07 117.87,30.26 118.68,29.62 119.49,28.81 120.30,28.12 121.11,27.48 121.92,26.81 122.73,26.51 123.54,25.87 124.35,25.42 125.16,25.06 125.97,24.84 126.78,24.31 127.58,24.09 128.39,23.78 129.20,23.45 130.01,23.34 130.82,22.98 131.63,22.62 132.44,22.42 133.25,22.09 134.06,21.87 134.87,21.81 135.68,21.45 136.49,21.28 137.30,21.12 138.11,20.92 138.92,20.89 139.73,20.56 140.54,20.59 141.35,20.34 142.16,20.06 142.97,19.84 143.78,19.78 144.59,19.61 145.40,19.61 146.21,19.53 " />
    <polyline
       id="polyline964"
       style="stroke:#53bcc2;stroke-width:0.43;stroke-linecap:butt;stroke-opacity:0.4"
       points="88.72,45.77 89.53,45.63 90.34,45.63 91.15,45.63 91.96,45.60 92.77,45.77 93.58,45.74 94.39,45.71 95.20,45.68 96.01,45.63 96.82,45.57 97.63,45.55 98.44,45.49 99.25,45.38 100.06,45.27 100.87,45.13 101.68,44.93 102.49,44.74 103.30,44.49 104.11,44.18 104.91,43.88 105.72,43.46 106.53,43.04 107.34,42.49 108.15,41.77 108.96,40.79 109.77,39.85 110.58,38.74 111.39,37.37 112.20,36.07 113.01,35.10 113.82,34.12 114.63,33.32 115.44,32.57 116.25,31.82 117.06,31.09 117.87,30.54 118.68,29.98 119.49,29.18 120.30,28.54 121.11,28.04 121.92,27.59 122.73,27.06 123.54,26.70 124.35,26.34 125.16,25.98 125.97,25.73 126.78,25.40 127.58,25.12 128.39,24.76 129.20,24.53 130.01,24.28 130.82,24.01 131.63,23.78 132.44,23.39 133.25,23.03 134.06,22.87 134.87,22.84 135.68,22.51 136.49,22.34 137.30,22.14 138.11,21.84 138.92,21.67 139.73,21.42 140.54,21.31 141.35,21.20 142.16,20.92 142.97,20.73 143.78,20.59 144.59,20.48 145.40,20.17 146.21,20.17 " />
    <polyline
       id="polyline966"
       style="stroke:#e98076;stroke-width:0.43;stroke-linecap:butt;stroke-opacity:0.4"
       points="88.72,45.68 89.53,45.74 90.34,45.57 91.15,45.57 91.96,45.74 92.77,45.74 93.58,45.71 94.39,45.68 95.20,45.68 96.01,45.66 96.82,45.66 97.63,45.63 98.44,45.57 99.25,45.55 100.06,45.38 100.87,45.32 101.68,45.21 102.49,45.10 103.30,44.96 104.11,44.82 104.91,44.60 105.72,44.41 106.53,44.16 107.34,43.74 108.15,43.35 108.96,42.88 109.77,42.24 110.58,41.65 111.39,40.71 112.20,39.46 113.01,38.12 113.82,36.68 114.63,35.26 115.44,34.23 116.25,33.21 117.06,32.46 117.87,31.70 118.68,31.09 119.49,30.34 120.30,29.45 121.11,28.76 121.92,28.06 122.73,27.45 123.54,26.87 124.35,26.42 125.16,25.90 125.97,25.45 126.78,25.06 127.58,24.65 128.39,24.26 129.20,23.95 130.01,23.56 130.82,23.37 131.63,23.03 132.44,22.70 133.25,22.31 134.06,21.95 134.87,21.73 135.68,21.67 136.49,21.20 137.30,21.20 138.11,20.98 138.92,20.78 139.73,20.56 140.54,20.37 141.35,20.06 142.16,20.00 142.97,19.84 143.78,19.61 144.59,19.50 145.40,19.39 146.21,19.25 " />
    <polyline
       id="polyline968"
       style="stroke:#53bcc2;stroke-width:0.43;stroke-linecap:butt;stroke-opacity:0.4"
       points="88.72,45.80 89.53,45.80 90.34,45.80 91.15,45.77 91.96,45.77 92.77,45.77 93.58,45.74 94.39,45.71 95.20,45.68 96.01,45.66 96.82,45.60 97.63,45.57 98.44,45.52 99.25,45.43 100.06,45.35 100.87,45.24 101.68,45.10 102.49,44.93 103.30,44.74 104.11,44.49 104.91,44.24 105.72,43.93 106.53,43.57 107.34,43.16 108.15,42.65 108.96,42.07 109.77,41.38 110.58,40.49 111.39,39.43 112.20,38.21 113.01,36.79 113.82,35.76 114.63,34.85 115.44,33.76 116.25,32.98 117.06,32.15 117.87,31.40 118.68,30.70 119.49,29.98 120.30,29.06 121.11,28.43 121.92,27.67 122.73,27.06 123.54,26.56 124.35,26.06 125.16,25.65 125.97,25.15 126.78,24.78 127.58,24.48 128.39,24.01 129.20,23.81 130.01,23.48 130.82,23.14 131.63,22.92 132.44,22.59 133.25,22.26 134.06,21.98 134.87,21.89 135.68,21.62 136.49,21.45 137.30,21.17 138.11,21.03 138.92,20.75 139.73,20.67 140.54,20.39 141.35,20.25 142.16,20.09 142.97,20.00 143.78,19.89 144.59,19.67 145.40,19.53 146.21,19.42 " />
    <polyline
       id="polyline970"
       style="stroke:#e98076;stroke-width:0.43;stroke-linecap:butt;stroke-opacity:0.4"
       points="88.72,45.74 89.53,45.66 90.34,45.63 91.15,45.60 91.96,45.63 92.77,45.60 93.58,45.66 94.39,45.60 95.20,45.66 96.01,45.57 96.82,45.60 97.63,45.52 98.44,45.46 99.25,45.35 100.06,45.24 100.87,45.16 101.68,44.99 102.49,44.96 103.30,44.68 104.11,44.49 104.91,44.21 105.72,43.93 106.53,43.49 107.34,43.21 108.15,42.71 108.96,42.02 109.77,40.88 110.58,39.88 111.39,38.51 112.20,36.82 113.01,35.35 113.82,34.09 114.63,33.12 115.44,32.26 116.25,31.48 117.06,30.59 117.87,29.76 118.68,28.98 119.49,28.29 120.30,27.56 121.11,26.92 121.92,26.31 122.73,25.76 123.54,25.20 124.35,24.84 125.16,24.48 125.97,24.03 126.78,23.62 127.58,23.39 128.39,23.01 129.20,22.73 130.01,22.28 130.82,21.98 131.63,21.81 132.44,21.53 133.25,21.28 134.06,21.06 134.87,20.87 135.68,20.70 136.49,20.45 137.30,20.20 138.11,20.06 138.92,19.89 139.73,19.78 140.54,19.50 141.35,19.39 142.16,19.25 142.97,19.09 143.78,18.95 144.59,18.75 145.40,18.73 146.21,18.59 " />
    <polyline
       id="polyline972"
       style="stroke:#53bcc2;stroke-width:0.43;stroke-linecap:butt;stroke-opacity:0.4"
       points="88.72,45.77 89.53,45.82 90.34,45.80 91.15,45.80 91.96,45.80 92.77,45.77 93.58,45.77 94.39,45.74 95.20,45.71 96.01,45.68 96.82,45.63 97.63,45.60 98.44,45.55 99.25,45.46 100.06,45.35 100.87,45.30 101.68,45.13 102.49,44.96 103.30,44.77 104.11,44.52 104.91,44.27 105.72,43.93 106.53,43.57 107.34,43.21 108.15,42.71 108.96,42.13 109.77,41.38 110.58,40.46 111.39,39.46 112.20,38.29 113.01,36.90 113.82,35.73 114.63,34.87 115.44,33.87 116.25,33.07 117.06,32.29 117.87,31.62 118.68,30.95 119.49,30.34 120.30,29.56 121.11,28.79 121.92,28.15 122.73,27.56 123.54,26.95 124.35,26.54 125.16,26.17 125.97,25.62 126.78,25.31 127.58,25.06 128.39,24.65 129.20,24.48 130.01,24.01 130.82,23.73 131.63,23.56 132.44,23.34 133.25,23.09 134.06,22.73 134.87,22.64 135.68,22.45 136.49,22.23 137.30,22.09 138.11,21.87 138.92,21.62 139.73,21.42 140.54,21.23 141.35,21.09 142.16,20.95 142.97,20.81 143.78,20.64 144.59,20.48 145.40,20.42 146.21,20.25 " />
    <rect
       id="rect974"
       style="stroke-width:0.75"
       height="30.200001"
       width="63.23"
       y="17.049999"
       x="85.849998" />
  </g>
  <g
     transform="translate(0,0.38655496)"
     id="g978"
     clip-path="url(#cpMC4wMHwxODAuMDB8MC4wMHwxNTguNDA=)" />
  <defs
     id="defs983">
    <clipPath
       id="cpODUuODV8MTQ5LjA4fDU1LjE3fDg1LjM4">
      <rect
         id="rect980"
         height="30.200001"
         width="63.23"
         y="55.169998"
         x="85.849998" />
    </clipPath>
  </defs>
  <g
     transform="translate(0,0.38655496)"
     id="g1009"
     clip-path="url(#cpODUuODV8MTQ5LjA4fDU1LjE3fDg1LjM4)">
    <rect
       id="rect985"
       style="fill:#ffffff;stroke:none;stroke-width:0.75"
       height="30.200001"
       width="63.23"
       y="55.169998"
       x="85.849998" />
    <polyline
       id="polyline987"
       style="stroke:#53bcc2;stroke-width:1.07;stroke-linecap:butt"
       points="88.72,83.90 89.53,83.91 90.34,83.91 91.15,83.91 91.96,83.88 92.77,83.86 93.58,83.86 94.39,83.83 95.20,83.82 96.01,83.80 96.82,83.77 97.63,83.73 98.44,83.68 99.25,83.62 100.06,83.54 100.87,83.46 101.68,83.33 102.49,83.18 103.30,83.02 104.11,82.83 104.91,82.62 105.72,82.36 106.53,82.04 107.34,81.69 108.15,81.27 108.96,80.77 109.77,80.20 110.58,79.38 111.39,78.50 112.20,77.42 113.01,76.22 113.82,74.92 114.63,73.79 115.44,72.77 116.25,71.89 117.06,71.00 117.87,70.30 118.68,69.53 119.49,68.84 120.30,68.11 121.11,67.37 121.92,66.63 122.73,65.99 123.54,65.36 124.35,64.81 125.16,64.33 125.97,63.81 126.78,63.35 127.58,62.95 128.39,62.57 129.20,62.19 130.01,61.80 130.82,61.52 131.63,61.20 132.44,60.89 133.25,60.46 134.06,60.23 134.87,60.12 135.68,59.85 136.49,59.60 137.30,59.41 138.11,59.21 138.92,59.00 139.73,58.87 140.54,58.60 141.35,58.48 142.16,58.27 142.97,58.14 143.78,57.93 144.59,57.83 145.40,57.68 146.21,57.52 " />
    <polyline
       id="polyline989"
       style="stroke:#e98076;stroke-width:1.07;stroke-linecap:butt"
       points="88.72,83.91 89.53,83.89 90.34,83.89 91.15,83.88 91.96,83.87 92.77,83.85 93.58,83.84 94.39,83.82 95.20,83.80 96.01,83.80 96.82,83.78 97.63,83.75 98.44,83.71 99.25,83.67 100.06,83.59 100.87,83.53 101.68,83.43 102.49,83.37 103.30,83.25 104.11,83.08 104.91,82.93 105.72,82.75 106.53,82.46 107.34,82.25 108.15,81.96 108.96,81.64 109.77,81.29 110.58,80.86 111.39,80.36 112.20,79.74 113.01,79.06 113.82,78.05 114.63,77.02 115.44,75.80 116.25,74.72 117.06,73.71 117.87,72.79 118.68,71.93 119.49,71.12 120.30,70.35 121.11,69.66 121.92,68.93 122.73,68.25 123.54,67.45 124.35,66.84 125.16,66.17 125.97,65.65 126.78,65.10 127.58,64.65 128.39,64.17 129.20,63.73 130.01,63.24 130.82,62.90 131.63,62.53 132.44,62.08 133.25,61.58 134.06,61.31 134.87,61.03 135.68,60.65 136.49,60.41 137.30,60.05 138.11,59.79 138.92,59.48 139.73,59.21 140.54,58.96 141.35,58.79 142.16,58.54 142.97,58.35 143.78,58.16 144.59,57.99 145.40,57.82 146.21,57.58 " />
    <polyline
       id="polyline991"
       style="stroke:#e98076;stroke-width:0.43;stroke-linecap:butt;stroke-opacity:0.4"
       points="88.72,83.95 89.53,83.89 90.34,83.89 91.15,83.89 91.96,83.89 92.77,83.86 93.58,83.86 94.39,83.84 95.20,83.84 96.01,83.81 96.82,83.81 97.63,83.78 98.44,83.75 99.25,83.75 100.06,83.67 100.87,83.61 101.68,83.50 102.49,83.50 103.30,83.42 104.11,83.25 104.91,83.14 105.72,82.95 106.53,82.70 107.34,82.53 108.15,82.28 108.96,81.95 109.77,81.61 110.58,81.17 111.39,80.75 112.20,80.11 113.01,79.50 113.82,78.83 114.63,77.56 115.44,76.39 116.25,75.14 117.06,74.14 117.87,73.03 118.68,72.16 119.49,71.27 120.30,70.58 121.11,69.94 121.92,69.27 122.73,68.63 123.54,67.83 124.35,67.27 125.16,66.49 125.97,65.88 126.78,65.44 127.58,64.85 128.39,64.38 129.20,63.91 130.01,63.41 130.82,63.10 131.63,62.80 132.44,62.27 133.25,61.85 134.06,61.60 134.87,61.35 135.68,61.05 136.49,60.88 137.30,60.44 138.11,60.27 138.92,59.99 139.73,59.71 140.54,59.46 141.35,59.35 142.16,59.13 142.97,58.88 143.78,58.77 144.59,58.74 145.40,58.55 146.21,58.18 " />
    <polyline
       id="polyline993"
       style="stroke:#53bcc2;stroke-width:0.43;stroke-linecap:butt;stroke-opacity:0.4"
       points="88.72,83.92 89.53,83.89 90.34,83.89 91.15,83.89 91.96,83.86 92.77,83.84 93.58,83.84 94.39,83.81 95.20,83.78 96.01,83.75 96.82,83.70 97.63,83.64 98.44,83.59 99.25,83.50 100.06,83.42 100.87,83.31 101.68,83.17 102.49,83.03 103.30,82.84 104.11,82.61 104.91,82.39 105.72,82.11 106.53,81.78 107.34,81.39 108.15,80.95 108.96,80.45 109.77,79.84 110.58,79.06 111.39,78.11 112.20,77.06 113.01,75.94 113.82,74.67 114.63,73.67 115.44,72.66 116.25,71.83 117.06,71.02 117.87,70.25 118.68,69.52 119.49,68.83 120.30,68.11 121.11,67.33 121.92,66.58 122.73,65.88 123.54,65.19 124.35,64.77 125.16,64.22 125.97,63.77 126.78,63.24 127.58,62.91 128.39,62.46 129.20,62.21 130.01,61.83 130.82,61.55 131.63,61.30 132.44,60.99 133.25,60.66 134.06,60.44 134.87,60.46 135.68,60.13 136.49,59.91 137.30,59.57 138.11,59.44 138.92,59.21 139.73,59.13 140.54,58.91 141.35,58.80 142.16,58.63 142.97,58.60 143.78,58.30 144.59,58.16 145.40,57.99 146.21,57.96 " />
    <polyline
       id="polyline995"
       style="stroke:#e98076;stroke-width:0.43;stroke-linecap:butt;stroke-opacity:0.4"
       points="88.72,83.92 89.53,83.89 90.34,83.89 91.15,83.86 91.96,83.86 92.77,83.84 93.58,83.84 94.39,83.81 95.20,83.75 96.01,83.75 96.82,83.75 97.63,83.70 98.44,83.61 99.25,83.56 100.06,83.42 100.87,83.42 101.68,83.28 102.49,83.23 103.30,83.06 104.11,82.89 104.91,82.75 105.72,82.56 106.53,82.31 107.34,82.11 108.15,81.84 108.96,81.59 109.77,81.17 110.58,80.78 111.39,80.36 112.20,79.70 113.01,79.22 113.82,78.08 114.63,77.33 115.44,76.39 116.25,75.50 117.06,74.69 117.87,73.83 118.68,72.94 119.49,72.14 120.30,71.25 121.11,70.47 121.92,69.80 122.73,69.11 123.54,68.27 124.35,67.55 125.16,66.86 125.97,66.33 126.78,65.72 127.58,65.19 128.39,64.66 129.20,64.24 130.01,63.69 130.82,63.16 131.63,62.77 132.44,62.27 133.25,61.77 134.06,61.38 134.87,61.08 135.68,60.60 136.49,60.38 137.30,59.99 138.11,59.60 138.92,59.32 139.73,59.02 140.54,58.68 141.35,58.57 142.16,58.24 142.97,58.13 143.78,57.82 144.59,57.57 145.40,57.41 146.21,57.21 " />
    <polyline
       id="polyline997"
       style="stroke:#53bcc2;stroke-width:0.43;stroke-linecap:butt;stroke-opacity:0.4"
       points="88.72,83.92 89.53,83.92 90.34,83.92 91.15,83.92 91.96,83.89 92.77,83.89 93.58,83.86 94.39,83.84 95.20,83.84 96.01,83.81 96.82,83.78 97.63,83.75 98.44,83.70 99.25,83.61 100.06,83.53 100.87,83.48 101.68,83.34 102.49,83.20 103.30,83.03 104.11,82.84 104.91,82.61 105.72,82.31 106.53,82.00 107.34,81.64 108.15,81.22 108.96,80.72 109.77,80.14 110.58,79.39 111.39,78.53 112.20,77.47 113.01,76.44 113.82,75.05 114.63,74.11 115.44,73.19 116.25,72.25 117.06,71.44 117.87,70.77 118.68,69.97 119.49,69.44 120.30,68.75 121.11,68.02 121.92,67.33 122.73,66.66 123.54,66.05 124.35,65.44 125.16,64.91 125.97,64.49 126.78,64.05 127.58,63.58 128.39,63.30 129.20,62.88 130.01,62.58 130.82,62.30 131.63,61.99 132.44,61.77 133.25,61.35 134.06,61.13 134.87,60.94 135.68,60.74 136.49,60.46 137.30,60.30 138.11,60.13 138.92,59.85 139.73,59.69 140.54,59.41 141.35,59.38 142.16,59.13 142.97,59.05 143.78,58.77 144.59,58.77 145.40,58.60 146.21,58.32 " />
    <polyline
       id="polyline999"
       style="stroke:#e98076;stroke-width:0.43;stroke-linecap:butt;stroke-opacity:0.4"
       points="88.72,83.84 89.53,83.86 90.34,83.86 91.15,83.86 91.96,83.84 92.77,83.81 93.58,83.81 94.39,83.78 95.20,83.78 96.01,83.78 96.82,83.75 97.63,83.73 98.44,83.70 99.25,83.67 100.06,83.61 100.87,83.50 101.68,83.42 102.49,83.34 103.30,83.17 104.11,82.95 104.91,82.81 105.72,82.61 106.53,82.17 107.34,81.89 108.15,81.47 108.96,81.06 109.77,80.67 110.58,80.11 111.39,79.36 112.20,78.64 113.01,77.56 113.82,76.11 114.63,74.89 115.44,73.61 116.25,72.69 117.06,71.64 117.87,70.97 118.68,70.36 119.49,69.72 120.30,69.08 121.11,68.36 121.92,67.52 122.73,66.86 123.54,66.13 124.35,65.66 125.16,65.08 125.97,64.69 126.78,64.10 127.58,63.88 128.39,63.47 129.20,62.99 130.01,62.66 130.82,62.41 131.63,61.99 132.44,61.69 133.25,61.13 134.06,60.96 134.87,60.66 135.68,60.30 136.49,59.99 137.30,59.71 138.11,59.44 138.92,59.16 139.73,58.96 140.54,58.77 141.35,58.52 142.16,58.35 142.97,58.10 143.78,57.93 144.59,57.71 145.40,57.57 146.21,57.32 " />
    <polyline
       id="polyline1001"
       style="stroke:#53bcc2;stroke-width:0.43;stroke-linecap:butt;stroke-opacity:0.4"
       points="88.72,83.89 89.53,83.95 90.34,83.95 91.15,83.95 91.96,83.92 92.77,83.89 93.58,83.89 94.39,83.86 95.20,83.84 96.01,83.81 96.82,83.78 97.63,83.73 98.44,83.67 99.25,83.64 100.06,83.56 100.87,83.48 101.68,83.36 102.49,83.25 103.30,83.11 104.11,82.95 104.91,82.73 105.72,82.50 106.53,82.23 107.34,81.92 108.15,81.56 108.96,81.14 109.77,80.67 110.58,80.06 111.39,79.36 112.20,78.50 113.01,77.42 113.82,76.25 114.63,74.86 115.44,73.75 116.25,72.89 117.06,71.72 117.87,70.94 118.68,70.08 119.49,69.36 120.30,68.63 121.11,67.94 121.92,66.99 122.73,66.36 123.54,65.63 124.35,65.05 125.16,64.58 125.97,63.99 126.78,63.47 127.58,63.08 128.39,62.60 129.20,62.16 130.01,61.66 130.82,61.38 131.63,61.08 132.44,60.60 133.25,60.16 134.06,59.88 134.87,59.82 135.68,59.49 136.49,59.27 137.30,59.05 138.11,58.88 138.92,58.63 139.73,58.46 140.54,58.24 141.35,58.05 142.16,57.85 142.97,57.60 143.78,57.49 144.59,57.30 145.40,57.18 146.21,57.02 " />
    <polyline
       id="polyline1003"
       style="stroke:#e98076;stroke-width:0.43;stroke-linecap:butt;stroke-opacity:0.4"
       points="88.72,83.92 89.53,83.92 90.34,83.92 91.15,83.89 91.96,83.89 92.77,83.89 93.58,83.86 94.39,83.86 95.20,83.84 96.01,83.84 96.82,83.81 97.63,83.78 98.44,83.75 99.25,83.70 100.06,83.67 100.87,83.59 101.68,83.53 102.49,83.42 103.30,83.36 104.11,83.23 104.91,83.03 105.72,82.89 106.53,82.67 107.34,82.45 108.15,82.25 108.96,81.98 109.77,81.72 110.58,81.36 111.39,80.97 112.20,80.50 113.01,79.97 113.82,79.17 114.63,78.31 115.44,76.81 116.25,75.55 117.06,74.36 117.87,73.33 118.68,72.28 119.49,71.36 120.30,70.50 121.11,69.86 121.92,69.11 122.73,68.41 123.54,67.58 124.35,66.86 125.16,66.27 125.97,65.72 126.78,65.13 127.58,64.69 128.39,64.19 129.20,63.77 130.01,63.22 130.82,62.91 131.63,62.58 132.44,62.10 133.25,61.58 134.06,61.30 134.87,61.05 135.68,60.66 136.49,60.38 137.30,60.07 138.11,59.85 138.92,59.46 139.73,59.16 140.54,58.91 141.35,58.71 142.16,58.43 142.97,58.30 143.78,58.10 144.59,57.93 145.40,57.77 146.21,57.60 " />
    <polyline
       id="polyline1005"
       style="stroke:#53bcc2;stroke-width:0.43;stroke-linecap:butt;stroke-opacity:0.4"
       points="88.72,83.86 89.53,83.86 90.34,83.86 91.15,83.86 91.96,83.84 92.77,83.84 93.58,83.84 94.39,83.81 95.20,83.84 96.01,83.84 96.82,83.81 97.63,83.78 98.44,83.75 99.25,83.73 100.06,83.64 100.87,83.59 101.68,83.45 102.49,83.25 103.30,83.09 104.11,82.92 104.91,82.75 105.72,82.50 106.53,82.17 107.34,81.81 108.15,81.34 108.96,80.78 109.77,80.14 110.58,79.03 111.39,78.00 112.20,76.67 113.01,75.08 113.82,73.69 114.63,72.53 115.44,71.47 116.25,70.58 117.06,69.80 117.87,69.22 118.68,68.55 119.49,67.75 120.30,66.94 121.11,66.19 121.92,65.63 122.73,65.05 123.54,64.55 124.35,63.99 125.16,63.63 125.97,62.96 126.78,62.66 127.58,62.24 128.39,61.91 129.20,61.49 130.01,61.16 130.82,60.85 131.63,60.44 132.44,60.19 133.25,59.69 134.06,59.49 134.87,59.27 135.68,59.05 136.49,58.77 137.30,58.71 138.11,58.41 138.92,58.30 139.73,58.18 140.54,57.85 141.35,57.68 142.16,57.49 142.97,57.32 143.78,57.18 144.59,57.10 145.40,56.93 146.21,56.79 " />
    <rect
       id="rect1007"
       style="stroke-width:0.75"
       height="30.200001"
       width="63.23"
       y="55.169998"
       x="85.849998" />
  </g>
  <g
     transform="translate(0,0.38655496)"
     id="g1011"
     clip-path="url(#cpMC4wMHwxODAuMDB8MC4wMHwxNTguNDA=)" />
  <defs
     id="defs1016">
    <clipPath
       id="cpODUuODV8MTQ5LjA4fDkzLjMwfDEyMy41MA==">
      <rect
         id="rect1013"
         height="30.200001"
         width="63.23"
         y="93.300003"
         x="85.849998" />
    </clipPath>
  </defs>
  <g
     transform="translate(0,0.38655496)"
     id="g1042"
     clip-path="url(#cpODUuODV8MTQ5LjA4fDkzLjMwfDEyMy41MA==)">
    <rect
       id="rect1018"
       style="fill:#ffffff;stroke:none;stroke-width:0.75"
       height="30.200001"
       width="63.23"
       y="93.300003"
       x="85.849998" />
    <polyline
       id="polyline1020"
       style="stroke:#53bcc2;stroke-width:1.07;stroke-linecap:butt"
       points="88.72,122.04 89.53,122.07 90.34,122.07 91.15,122.05 91.96,122.05 92.77,122.02 93.58,122.02 94.39,122.01 95.20,121.98 96.01,121.96 96.82,121.93 97.63,121.90 98.44,121.84 99.25,121.80 100.06,121.73 100.87,121.66 101.68,121.56 102.49,121.44 103.30,121.30 104.11,121.14 104.91,120.94 105.72,120.73 106.53,120.45 107.34,120.13 108.15,119.81 108.96,119.43 109.77,118.92 110.58,118.31 111.39,117.63 112.20,116.75 113.01,115.79 113.82,114.65 114.63,113.53 115.44,112.51 116.25,111.44 117.06,110.50 117.87,109.68 118.68,108.92 119.49,108.19 120.30,107.50 121.11,106.82 121.92,106.12 122.73,105.36 123.54,104.71 124.35,104.11 125.16,103.54 125.97,103.04 126.78,102.54 127.58,102.22 128.39,101.78 129.20,101.41 130.01,101.01 130.82,100.74 131.63,100.42 132.44,100.08 133.25,99.72 134.06,99.50 134.87,99.32 135.68,99.07 136.49,98.77 137.30,98.54 138.11,98.36 138.92,98.11 139.73,97.98 140.54,97.76 141.35,97.57 142.16,97.41 142.97,97.25 143.78,97.09 144.59,96.93 145.40,96.78 146.21,96.64 " />
    <polyline
       id="polyline1022"
       style="stroke:#e98076;stroke-width:1.07;stroke-linecap:butt"
       points="88.72,122.01 89.53,122.02 90.34,122.00 91.15,122.01 91.96,121.98 92.77,121.96 93.58,121.96 94.39,121.93 95.20,121.93 96.01,121.91 96.82,121.87 97.63,121.84 98.44,121.81 99.25,121.79 100.06,121.73 100.87,121.71 101.68,121.63 102.49,121.59 103.30,121.56 104.11,121.52 104.91,121.48 105.72,121.45 106.53,121.45 107.34,121.42 108.15,121.41 108.96,121.39 109.77,121.37 110.58,121.34 111.39,121.37 112.20,121.33 113.01,121.32 113.82,121.32 114.63,121.29 115.44,121.26 116.25,121.25 117.06,121.25 117.87,121.20 118.68,121.18 119.49,121.14 120.30,121.10 121.11,121.05 121.92,121.03 122.73,120.95 123.54,120.86 124.35,120.77 125.16,120.70 125.97,120.57 126.78,120.40 127.58,120.26 128.39,120.00 129.20,119.75 130.01,119.34 130.82,118.99 131.63,118.48 132.44,117.80 133.25,116.86 134.06,116.15 134.87,115.23 135.68,114.28 136.49,113.30 137.30,112.44 138.11,111.50 138.92,110.64 139.73,109.69 140.54,108.86 141.35,108.04 142.16,107.25 142.97,106.50 143.78,105.83 144.59,105.18 145.40,104.55 146.21,103.92 " />
    <polyline
       id="polyline1024"
       style="stroke:#e98076;stroke-width:0.43;stroke-linecap:butt;stroke-opacity:0.4"
       points="88.72,121.96 89.53,121.96 90.34,121.96 91.15,121.96 91.96,121.93 92.77,121.91 93.58,121.91 94.39,121.88 95.20,121.85 96.01,121.85 96.82,121.80 97.63,121.77 98.44,121.74 99.25,121.71 100.06,121.66 100.87,121.60 101.68,121.55 102.49,121.46 103.30,121.41 104.11,121.38 104.91,121.35 105.72,121.30 106.53,121.30 107.34,121.27 108.15,121.27 108.96,121.24 109.77,121.24 110.58,121.24 111.39,121.27 112.20,121.21 113.01,121.21 113.82,121.21 114.63,121.18 115.44,121.16 116.25,121.16 117.06,121.16 117.87,121.10 118.68,121.10 119.49,121.04 120.30,121.02 121.11,121.02 121.92,120.96 122.73,120.93 123.54,120.85 124.35,120.79 125.16,120.68 125.97,120.60 126.78,120.49 127.58,120.43 128.39,120.21 129.20,120.04 130.01,119.74 130.82,119.49 131.63,119.10 132.44,118.77 133.25,118.21 134.06,117.63 134.87,116.65 135.68,115.46 136.49,114.04 137.30,113.01 138.11,111.93 138.92,111.12 139.73,110.40 140.54,109.68 141.35,108.96 142.16,108.18 142.97,107.54 143.78,106.84 144.59,106.09 145.40,105.26 146.21,104.56 " />
    <polyline
       id="polyline1026"
       style="stroke:#53bcc2;stroke-width:0.43;stroke-linecap:butt;stroke-opacity:0.4"
       points="88.72,122.07 89.53,122.07 90.34,122.07 91.15,122.05 91.96,122.05 92.77,122.02 93.58,122.02 94.39,121.99 95.20,121.96 96.01,121.93 96.82,121.91 97.63,121.85 98.44,121.80 99.25,121.77 100.06,121.68 100.87,121.60 101.68,121.49 102.49,121.38 103.30,121.24 104.11,121.07 104.91,120.88 105.72,120.63 106.53,120.35 107.34,120.07 108.15,119.71 108.96,119.29 109.77,118.82 110.58,118.24 111.39,117.57 112.20,116.74 113.01,115.79 113.82,114.79 114.63,113.51 115.44,112.51 116.25,111.54 117.06,110.62 117.87,109.68 118.68,109.04 119.49,108.32 120.30,107.62 121.11,106.95 121.92,106.15 122.73,105.34 123.54,104.68 124.35,104.06 125.16,103.40 125.97,102.98 126.78,102.40 127.58,102.09 128.39,101.56 129.20,101.17 130.01,100.81 130.82,100.53 131.63,100.20 132.44,99.84 133.25,99.51 134.06,99.28 134.87,99.12 135.68,98.84 136.49,98.59 137.30,98.37 138.11,98.14 138.92,97.89 139.73,97.87 140.54,97.67 141.35,97.45 142.16,97.23 142.97,97.14 143.78,97.03 144.59,96.75 145.40,96.67 146.21,96.56 " />
    <polyline
       id="polyline1028"
       style="stroke:#e98076;stroke-width:0.43;stroke-linecap:butt;stroke-opacity:0.4"
       points="88.72,122.05 89.53,122.02 90.34,121.99 91.15,122.02 91.96,121.99 92.77,121.96 93.58,121.96 94.39,121.93 95.20,121.93 96.01,121.91 96.82,121.85 97.63,121.82 98.44,121.80 99.25,121.77 100.06,121.68 100.87,121.68 101.68,121.63 102.49,121.57 103.30,121.55 104.11,121.57 104.91,121.52 105.72,121.52 106.53,121.49 107.34,121.46 108.15,121.49 108.96,121.49 109.77,121.46 110.58,121.43 111.39,121.49 112.20,121.46 113.01,121.46 113.82,121.46 114.63,121.43 115.44,121.41 116.25,121.38 117.06,121.35 117.87,121.32 118.68,121.30 119.49,121.24 120.30,121.18 121.11,121.07 121.92,121.02 122.73,120.91 123.54,120.82 124.35,120.68 125.16,120.57 125.97,120.35 126.78,120.10 127.58,119.85 128.39,119.46 129.20,118.99 130.01,118.38 130.82,117.63 131.63,116.76 132.44,115.38 133.25,113.82 134.06,112.60 134.87,111.35 135.68,110.21 136.49,109.34 137.30,108.45 138.11,107.57 138.92,106.82 139.73,105.87 140.54,105.09 141.35,104.31 142.16,103.73 142.97,103.06 143.78,102.54 144.59,102.01 145.40,101.62 146.21,101.26 " />
    <polyline
       id="polyline1030"
       style="stroke:#53bcc2;stroke-width:0.43;stroke-linecap:butt;stroke-opacity:0.4"
       points="88.72,122.05 89.53,122.07 90.34,122.07 91.15,122.05 91.96,122.05 92.77,122.02 93.58,122.02 94.39,122.02 95.20,121.99 96.01,121.96 96.82,121.93 97.63,121.88 98.44,121.82 99.25,121.77 100.06,121.66 100.87,121.60 101.68,121.49 102.49,121.32 103.30,121.18 104.11,120.96 104.91,120.71 105.72,120.46 106.53,120.13 107.34,119.77 108.15,119.41 108.96,118.93 109.77,118.35 110.58,117.63 111.39,116.76 112.20,115.76 113.01,114.82 113.82,113.49 114.63,112.54 115.44,111.73 116.25,110.87 117.06,109.98 117.87,109.34 118.68,108.62 119.49,108.01 120.30,107.37 121.11,106.82 121.92,106.20 122.73,105.43 123.54,104.81 124.35,104.34 125.16,103.87 125.97,103.29 126.78,102.87 127.58,102.62 128.39,102.12 129.20,101.81 130.01,101.40 130.82,101.23 131.63,100.90 132.44,100.56 133.25,100.31 134.06,100.12 134.87,99.92 135.68,99.76 136.49,99.34 137.30,99.23 138.11,99.03 138.92,98.81 139.73,98.67 140.54,98.51 141.35,98.34 142.16,98.23 142.97,98.00 143.78,97.92 144.59,97.75 145.40,97.59 146.21,97.48 " />
    <polyline
       id="polyline1032"
       style="stroke:#e98076;stroke-width:0.43;stroke-linecap:butt;stroke-opacity:0.4"
       points="88.72,121.99 89.53,122.05 90.34,122.02 91.15,122.02 91.96,121.99 92.77,121.96 93.58,121.96 94.39,121.93 95.20,121.93 96.01,121.91 96.82,121.91 97.63,121.88 98.44,121.85 99.25,121.80 100.06,121.74 100.87,121.71 101.68,121.66 102.49,121.60 103.30,121.57 104.11,121.52 104.91,121.49 105.72,121.41 106.53,121.41 107.34,121.41 108.15,121.35 108.96,121.35 109.77,121.27 110.58,121.24 111.39,121.24 112.20,121.21 113.01,121.18 113.82,121.16 114.63,121.13 115.44,121.10 116.25,121.07 117.06,121.04 117.87,120.99 118.68,120.96 119.49,120.88 120.30,120.82 121.11,120.82 121.92,120.79 122.73,120.71 123.54,120.57 124.35,120.49 125.16,120.46 125.97,120.24 126.78,120.07 127.58,119.88 128.39,119.57 129.20,119.29 130.01,118.71 130.82,118.40 131.63,117.77 132.44,116.96 133.25,115.76 134.06,114.93 134.87,113.96 135.68,113.12 136.49,112.32 137.30,111.82 138.11,111.18 138.92,110.40 139.73,109.62 140.54,108.79 141.35,108.07 142.16,107.18 142.97,106.40 143.78,105.70 144.59,105.18 145.40,104.65 146.21,104.09 " />
    <polyline
       id="polyline1034"
       style="stroke:#53bcc2;stroke-width:0.43;stroke-linecap:butt;stroke-opacity:0.4"
       points="88.72,122.05 89.53,122.10 90.34,122.10 91.15,122.07 91.96,122.07 92.77,122.07 93.58,122.05 94.39,122.05 95.20,122.02 96.01,121.99 96.82,121.99 97.63,121.96 98.44,121.91 99.25,121.88 100.06,121.82 100.87,121.77 101.68,121.68 102.49,121.60 103.30,121.52 104.11,121.41 104.91,121.24 105.72,121.07 106.53,120.88 107.34,120.60 108.15,120.32 108.96,120.02 109.77,119.68 110.58,119.24 111.39,118.79 112.20,118.21 113.01,117.46 113.82,116.65 114.63,115.68 115.44,114.51 116.25,113.10 117.06,112.10 117.87,111.23 118.68,110.23 119.49,109.40 120.30,108.59 121.11,107.87 121.92,107.29 122.73,106.54 123.54,105.70 124.35,105.01 125.16,104.31 125.97,103.67 126.78,103.15 127.58,102.67 128.39,102.20 129.20,101.76 130.01,101.28 130.82,100.87 131.63,100.53 132.44,100.17 133.25,99.73 134.06,99.42 134.87,99.28 135.68,98.89 136.49,98.67 137.30,98.28 138.11,98.14 138.92,97.81 139.73,97.64 140.54,97.37 141.35,97.12 142.16,97.00 142.97,96.81 143.78,96.56 144.59,96.48 145.40,96.28 146.21,96.09 " />
    <polyline
       id="polyline1036"
       style="stroke:#e98076;stroke-width:0.43;stroke-linecap:butt;stroke-opacity:0.4"
       points="88.72,122.05 89.53,122.05 90.34,122.05 91.15,122.05 91.96,122.02 92.77,121.99 93.58,121.99 94.39,121.96 95.20,121.99 96.01,121.96 96.82,121.93 97.63,121.88 98.44,121.85 99.25,121.88 100.06,121.82 100.87,121.82 101.68,121.68 102.49,121.74 103.30,121.71 104.11,121.63 104.91,121.57 105.72,121.60 106.53,121.63 107.34,121.55 108.15,121.52 108.96,121.49 109.77,121.52 110.58,121.46 111.39,121.49 112.20,121.43 113.01,121.43 113.82,121.43 114.63,121.41 115.44,121.38 116.25,121.38 117.06,121.43 117.87,121.38 118.68,121.35 119.49,121.41 120.30,121.38 121.11,121.30 121.92,121.35 122.73,121.24 123.54,121.18 124.35,121.10 125.16,121.07 125.97,121.07 126.78,120.93 127.58,120.88 128.39,120.77 129.20,120.68 130.01,120.52 130.82,120.43 131.63,120.29 132.44,120.10 133.25,119.66 134.06,119.43 134.87,118.96 135.68,118.35 136.49,117.49 137.30,116.46 138.11,115.32 138.92,114.21 139.73,112.87 140.54,111.90 141.35,110.82 142.16,109.90 142.97,109.01 143.78,108.23 144.59,107.45 145.40,106.68 146.21,105.79 " />
    <polyline
       id="polyline1038"
       style="stroke:#53bcc2;stroke-width:0.43;stroke-linecap:butt;stroke-opacity:0.4"
       points="88.72,121.99 89.53,122.05 90.34,122.05 91.15,122.05 91.96,122.02 92.77,121.99 93.58,121.99 94.39,121.99 95.20,121.96 96.01,121.96 96.82,121.91 97.63,121.91 98.44,121.85 99.25,121.80 100.06,121.77 100.87,121.68 101.68,121.57 102.49,121.46 103.30,121.27 104.11,121.13 104.91,120.93 105.72,120.74 106.53,120.46 107.34,120.10 108.15,119.79 108.96,119.46 109.77,118.82 110.58,118.13 111.39,117.38 112.20,116.29 113.01,115.10 113.82,113.68 114.63,112.37 115.44,111.26 116.25,110.26 117.06,109.29 117.87,108.45 118.68,107.79 119.49,107.04 120.30,106.40 121.11,105.62 121.92,104.84 122.73,104.15 123.54,103.65 124.35,103.01 125.16,102.56 125.97,102.23 126.78,101.76 127.58,101.48 128.39,101.23 129.20,100.90 130.01,100.53 130.82,100.31 131.63,100.06 132.44,99.76 133.25,99.34 134.06,99.17 134.87,98.95 135.68,98.81 136.49,98.48 137.30,98.28 138.11,98.12 138.92,97.92 139.73,97.75 140.54,97.50 141.35,97.37 142.16,97.20 142.97,97.06 143.78,96.87 144.59,96.73 145.40,96.59 146.21,96.42 " />
    <rect
       id="rect1040"
       style="stroke-width:0.75"
       height="30.200001"
       width="63.23"
       y="93.300003"
       x="85.849998" />
  </g>
  <g
     transform="translate(0,0.38655496)"
     id="g1044"
     clip-path="url(#cpMC4wMHwxODAuMDB8MC4wMHwxNTguNDA=)" />
  <defs
     id="defs1049">
    <clipPath
       id="cpMTkuNzR8ODIuOTd8NS42N3wxNy4wNQ==">
      <rect
         id="rect1046"
         height="11.38"
         width="63.23"
         y="5.6700001"
         x="19.74" />
    </clipPath>
  </defs>
  <g
     transform="translate(0,0.38655496)"
     id="g1053"
     clip-path="url(#cpMTkuNzR8ODIuOTd8NS42N3wxNy4wNQ==)">
    <text
       id="text1051"
       lengthAdjust="spacingAndGlyphs"
       textLength="15.65"
       style="font-size:5.76px;font-family:Helvetica;fill:#1a1a1a"
       text-anchor="middle"
       y="13.42"
       x="51.349998">empty</text>
  </g>
  <g
     transform="translate(0,0.38655496)"
     id="g1055"
     clip-path="url(#cpMC4wMHwxODAuMDB8MC4wMHwxNTguNDA=)" />
  <defs
     id="defs1060">
    <clipPath
       id="cpODUuODV8MTQ5LjA4fDUuNjd8MTcuMDU=">
      <rect
         id="rect1057"
         height="11.38"
         width="63.23"
         y="5.6700001"
         x="85.849998" />
    </clipPath>
  </defs>
  <g
     transform="translate(0,0.38655496)"
     id="g1064"
     clip-path="url(#cpODUuODV8MTQ5LjA4fDUuNjd8MTcuMDU=)">
    <text
       id="text1062"
       lengthAdjust="spacingAndGlyphs"
       textLength="27.49"
       style="font-size:5.76px;font-family:Helvetica;fill:#1a1a1a"
       text-anchor="middle"
       y="13.42"
       x="117.46">PFLU4242</text>
  </g>
  <g
     transform="translate(0,0.38655496)"
     id="g1066"
     clip-path="url(#cpMC4wMHwxODAuMDB8MC4wMHwxNTguNDA=)" />
  <defs
     id="defs1071">
    <clipPath
       id="cpMTQ5LjA4fDE3NC4zM3wxNy4wNXw0Ny4yNQ==">
      <rect
         id="rect1068"
         height="30.200001"
         width="25.25"
         y="17.049999"
         x="149.08" />
    </clipPath>
  </defs>
  <g
     transform="translate(0,0.38655496)"
     id="g1075"
     clip-path="url(#cpMTQ5LjA4fDE3NC4zM3wxNy4wNXw0Ny4yNQ==)">
    <text
       id="text1073"
       lengthAdjust="spacingAndGlyphs"
       textLength="12.79"
       style="font-size:5.76px;font-family:Helvetica;fill:#1a1a1a"
       text-anchor="middle"
       y="34.209999"
       x="161.71001">none</text>
  </g>
  <g
     transform="translate(0,0.38655496)"
     id="g1077"
     clip-path="url(#cpMC4wMHwxODAuMDB8MC4wMHwxNTguNDA=)" />
  <defs
     id="defs1082">
    <clipPath
       id="cpMTQ5LjA4fDE3NC4zM3w1NS4xN3w4NS4zOA==">
      <rect
         id="rect1079"
         height="30.200001"
         width="25.25"
         y="55.169998"
         x="149.08" />
    </clipPath>
  </defs>
  <g
     transform="translate(0,0.38655496)"
     id="g1086"
     clip-path="url(#cpMTQ5LjA4fDE3NC4zM3w1NS4xN3w4NS4zOA==)">
    <text
       id="text1084"
       lengthAdjust="spacingAndGlyphs"
       textLength="25.25"
       style="font-size:5.76px;font-family:Helvetica;fill:#1a1a1a"
       text-anchor="middle"
       y="72.339996"
       x="161.71001">pQBR103</text>
  </g>
  <g
     transform="translate(0,0.38655496)"
     id="g1088"
     clip-path="url(#cpMC4wMHwxODAuMDB8MC4wMHwxNTguNDA=)" />
  <defs
     id="defs1093">
    <clipPath
       id="cpMTQ5LjA4fDE3NC4zM3w5My4zMHwxMjMuNTA=">
      <rect
         id="rect1090"
         height="30.200001"
         width="25.25"
         y="93.300003"
         x="149.08" />
    </clipPath>
  </defs>
  <g
     transform="translate(0,0.38655496)"
     id="g1097"
     clip-path="url(#cpMTQ5LjA4fDE3NC4zM3w5My4zMHwxMjMuNTA=)">
    <text
       id="text1095"
       lengthAdjust="spacingAndGlyphs"
       textLength="22.049999"
       style="font-size:5.76px;font-family:Helvetica;fill:#1a1a1a"
       text-anchor="middle"
       y="110.46"
       x="161.71001">pQBR57</text>
  </g>
  <g
     transform="translate(0,0.38655496)"
     id="g1195"
     clip-path="url(#cpMC4wMHwxODAuMDB8MC4wMHwxNTguNDA=)">
    <polyline
       id="polyline1099"
       style="stroke-width:0.26;stroke-linecap:butt"
       points="19.74,123.50 82.97,123.50 " />
    <polyline
       id="polyline1101"
       style="stroke:#333333;stroke-width:0.26;stroke-linecap:butt"
       points="21.80,125.00 21.80,123.50 " />
    <polyline
       id="polyline1103"
       style="stroke:#333333;stroke-width:0.26;stroke-linecap:butt"
       points="41.23,125.00 41.23,123.50 " />
    <polyline
       id="polyline1105"
       style="stroke:#333333;stroke-width:0.26;stroke-linecap:butt"
       points="60.66,125.00 60.66,123.50 " />
    <polyline
       id="polyline1107"
       style="stroke:#333333;stroke-width:0.26;stroke-linecap:butt"
       points="80.09,125.00 80.09,123.50 " />
    <text
       id="text1109"
       lengthAdjust="spacingAndGlyphs"
       textLength="3.3299999"
       style="font-size:6px;font-family:Helvetica"
       text-anchor="middle"
       y="130.5"
       x="21.799999">0</text>
    <text
       id="text1111"
       lengthAdjust="spacingAndGlyphs"
       textLength="3.3299999"
       style="font-size:6px;font-family:Helvetica"
       text-anchor="middle"
       y="130.5"
       x="41.23">6</text>
    <text
       id="text1113"
       lengthAdjust="spacingAndGlyphs"
       textLength="6.6700001"
       style="font-size:6px;font-family:Helvetica"
       text-anchor="middle"
       y="130.5"
       x="60.66">12</text>
    <text
       id="text1115"
       lengthAdjust="spacingAndGlyphs"
       textLength="6.6700001"
       style="font-size:6px;font-family:Helvetica"
       text-anchor="middle"
       y="130.5"
       x="80.089996">18</text>
    <polyline
       id="polyline1117"
       style="stroke-width:0.26;stroke-linecap:butt"
       points="85.85,123.50 149.08,123.50 " />
    <polyline
       id="polyline1119"
       style="stroke:#333333;stroke-width:0.26;stroke-linecap:butt"
       points="87.91,125.00 87.91,123.50 " />
    <polyline
       id="polyline1121"
       style="stroke:#333333;stroke-width:0.26;stroke-linecap:butt"
       points="107.34,125.00 107.34,123.50 " />
    <polyline
       id="polyline1123"
       style="stroke:#333333;stroke-width:0.26;stroke-linecap:butt"
       points="126.78,125.00 126.78,123.50 " />
    <polyline
       id="polyline1125"
       style="stroke:#333333;stroke-width:0.26;stroke-linecap:butt"
       points="146.21,125.00 146.21,123.50 " />
    <text
       id="text1127"
       lengthAdjust="spacingAndGlyphs"
       textLength="3.3299999"
       style="font-size:6px;font-family:Helvetica"
       text-anchor="middle"
       y="130.5"
       x="87.910004">0</text>
    <text
       id="text1129"
       lengthAdjust="spacingAndGlyphs"
       textLength="3.3299999"
       style="font-size:6px;font-family:Helvetica"
       text-anchor="middle"
       y="130.5"
       x="107.34">6</text>
    <text
       id="text1131"
       lengthAdjust="spacingAndGlyphs"
       textLength="6.6700001"
       style="font-size:6px;font-family:Helvetica"
       text-anchor="middle"
       y="130.5"
       x="126.78">12</text>
    <text
       id="text1133"
       lengthAdjust="spacingAndGlyphs"
       textLength="6.6700001"
       style="font-size:6px;font-family:Helvetica"
       text-anchor="middle"
       y="130.5"
       x="146.21001">18</text>
    <polyline
       id="polyline1135"
       style="stroke-width:0.26;stroke-linecap:butt"
       points="19.74,47.25 19.74,17.05 " />
    <text
       id="text1137"
       lengthAdjust="spacingAndGlyphs"
       textLength="8.3400002"
       style="font-size:6px;font-family:Helvetica"
       text-anchor="end"
       y="47.98"
       x="17.049999">0.0</text>
    <text
       id="text1139"
       lengthAdjust="spacingAndGlyphs"
       textLength="8.3400002"
       style="font-size:6px;font-family:Helvetica"
       text-anchor="end"
       y="34.080002"
       x="17.049999">0.5</text>
    <text
       id="text1141"
       lengthAdjust="spacingAndGlyphs"
       textLength="8.3400002"
       style="font-size:6px;font-family:Helvetica"
       text-anchor="end"
       y="20.18"
       x="17.049999">1.0</text>
    <polyline
       id="polyline1143"
       style="stroke:#333333;stroke-width:0.26;stroke-linecap:butt"
       points="18.24,45.82 19.74,45.82 " />
    <polyline
       id="polyline1145"
       style="stroke:#333333;stroke-width:0.26;stroke-linecap:butt"
       points="18.24,31.93 19.74,31.93 " />
    <polyline
       id="polyline1147"
       style="stroke:#333333;stroke-width:0.26;stroke-linecap:butt"
       points="18.24,18.03 19.74,18.03 " />
    <polyline
       id="polyline1149"
       style="stroke-width:0.26;stroke-linecap:butt"
       points="19.74,85.38 19.74,55.17 " />
    <text
       id="text1151"
       lengthAdjust="spacingAndGlyphs"
       textLength="8.3400002"
       style="font-size:6px;font-family:Helvetica"
       text-anchor="end"
       y="86.099998"
       x="17.049999">0.0</text>
    <text
       id="text1153"
       lengthAdjust="spacingAndGlyphs"
       textLength="8.3400002"
       style="font-size:6px;font-family:Helvetica"
       text-anchor="end"
       y="72.199997"
       x="17.049999">0.5</text>
    <text
       id="text1155"
       lengthAdjust="spacingAndGlyphs"
       textLength="8.3400002"
       style="font-size:6px;font-family:Helvetica"
       text-anchor="end"
       y="58.310001"
       x="17.049999">1.0</text>
    <polyline
       id="polyline1157"
       style="stroke:#333333;stroke-width:0.26;stroke-linecap:butt"
       points="18.24,83.95 19.74,83.95 " />
    <polyline
       id="polyline1159"
       style="stroke:#333333;stroke-width:0.26;stroke-linecap:butt"
       points="18.24,70.05 19.74,70.05 " />
    <polyline
       id="polyline1161"
       style="stroke:#333333;stroke-width:0.26;stroke-linecap:butt"
       points="18.24,56.16 19.74,56.16 " />
    <polyline
       id="polyline1163"
       style="stroke-width:0.26;stroke-linecap:butt"
       points="19.74,123.50 19.74,93.30 " />
    <text
       id="text1165"
       lengthAdjust="spacingAndGlyphs"
       textLength="8.3400002"
       style="font-size:6px;font-family:Helvetica"
       text-anchor="end"
       y="124.23"
       x="17.049999">0.0</text>
    <text
       id="text1167"
       lengthAdjust="spacingAndGlyphs"
       textLength="8.3400002"
       style="font-size:6px;font-family:Helvetica"
       text-anchor="end"
       y="110.33"
       x="17.049999">0.5</text>
    <text
       id="text1169"
       lengthAdjust="spacingAndGlyphs"
       textLength="8.3400002"
       style="font-size:6px;font-family:Helvetica"
       text-anchor="end"
       y="96.43"
       x="17.049999">1.0</text>
    <polyline
       id="polyline1171"
       style="stroke:#333333;stroke-width:0.26;stroke-linecap:butt"
       points="18.24,122.07 19.74,122.07 " />
    <polyline
       id="polyline1173"
       style="stroke:#333333;stroke-width:0.26;stroke-linecap:butt"
       points="18.24,108.18 19.74,108.18 " />
    <polyline
       id="polyline1175"
       style="stroke:#333333;stroke-width:0.26;stroke-linecap:butt"
       points="18.24,94.28 19.74,94.28 " />
    <text
       id="text1177"
       lengthAdjust="spacingAndGlyphs"
       textLength="20.34"
       style="font-size:6px;font-family:Helvetica"
       text-anchor="middle"
       y="137.63"
       x="84.410004">time (h)</text>
    <text
       id="text1179"
       lengthAdjust="spacingAndGlyphs"
       textLength="19"
       style="font-size:6px;font-family:Helvetica"
       transform="rotate(-90,46.6,41.9)">OD600</text>
    <text
       id="text1181"
       lengthAdjust="spacingAndGlyphs"
       textLength="17.450001"
       style="font-size:4.2px;font-family:Helvetica"
       transform="rotate(-90,37.65,31.85)">corrected</text>
    <line
       id="line1183"
       style="stroke:#53bcc2;stroke-width:1.07;stroke-linecap:butt"
       y2="151.53"
       x2="60.610001"
       y1="151.53"
       x1="54.849998" />
    <line
       id="line1185"
       style="stroke:#53bcc2;stroke-width:0.43;stroke-linecap:butt;stroke-opacity:0.4"
       y2="151.53"
       x2="60.610001"
       y1="151.53"
       x1="54.849998" />
    <line
       id="line1187"
       style="stroke:#e98076;stroke-width:1.07;stroke-linecap:butt"
       y2="151.53"
       x2="97.150002"
       y1="151.53"
       x1="91.389999" />
    <line
       id="line1189"
       style="stroke:#e98076;stroke-width:0.43;stroke-linecap:butt;stroke-opacity:0.4"
       y2="151.53"
       x2="97.150002"
       y1="151.53"
       x1="91.389999" />
    <text
       id="text1191"
       lengthAdjust="spacingAndGlyphs"
       textLength="22.16"
       style="font-size:4.8px;font-family:Helvetica"
       y="153.25"
       x="64.919998">uninduced</text>
    <text
       id="text1193"
       lengthAdjust="spacingAndGlyphs"
       textLength="16.82"
       style="font-size:4.8px;font-family:Helvetica"
       y="153.25"
       x="101.45">induced</text>
  </g>
  <path
     inkscape:connector-curvature="0"
     id="path1203"
     d="M 39.906027,6.262289 H 132.93848"
     style="fill:none;stroke:#000000;stroke-width:0.467717;stroke-linecap:butt;stroke-linejoin:miter;stroke-miterlimit:10;stroke-dasharray:none;stroke-opacity:1" />
  <text
     id="text1207"
     y="4.3037109"
     x="86.356133"
     style="font-size:6px;line-height:1.25;font-family:Helvetica;-inkscape-font-specification:Helvetica;text-align:center;text-anchor:middle;stroke-width:0.75"
     xml:space="preserve"><tspan
       style="text-align:center;text-anchor:middle;stroke-width:0.75"
       y="4.3037109"
       x="86.356133"
       id="tspan1205"
       sodipodi:role="line">pME6032 variant</tspan></text>
</svg>
